<svg version="1.2" xmlns="http://www.w3.org/2000/svg" viewBox="0 0 591 440" width="591" height="440"><defs><clipPath clipPathUnits="userSpaceOnUse" id="cp1"><path d="m-682-3798h1920v8118h-1920z" /></clipPath><linearGradient id="P" gradientUnits="userSpaceOnUse"/><linearGradient id="g1" x1="230.1" y1="371.9" x2="341.3" y2="38.1" href="#P"><stop stop-color="#1e0b4b"/><stop offset="1" stop-color="#1a0f91"/></linearGradient><linearGradient id="g2" x1="256.5" y1="388.9" x2="306.8" y2="-28.8" href="#P"><stop stop-color="#f1f6fb"/><stop offset="1" stop-color="#2f5bea"/></linearGradient><linearGradient id="g3" x1="304.6" y1="233.3" x2="293.5" y2="303.7" href="#P"><stop stop-color="#1c43c4"/><stop offset="1" stop-color="#2f5bea"/></linearGradient><linearGradient id="g4" x1="219.5" y1="368.9" x2="52.5" y2="478.6" href="#P"><stop stop-color="#1e0b4b"/><stop offset="1" stop-color="#1a0f91"/></linearGradient><linearGradient id="g5" x1="270.2" y1="368.9" x2="-17.3" y2="478.6" href="#P"><stop stop-color="#1e0b4b"/><stop offset="1" stop-color="#1a0f91"/></linearGradient><linearGradient id="g6" x1="296.5" y1="400.6" x2="256.1" y2="456.7" href="#P"><stop stop-color="#1e0b4b"/><stop offset="1" stop-color="#1a0f91"/></linearGradient><linearGradient id="g7" x1="463.8" y1="204.5" x2="399.9" y2="242.7" href="#P"><stop stop-color="#09005d"/><stop offset="1" stop-color="#1a0f91"/></linearGradient><linearGradient id="g8" x1="-81.3" y1="428.3" x2="-68.4" y2="428.3" href="#P"><stop stop-color="#09005d"/><stop offset="1" stop-color="#1a0f91"/></linearGradient><linearGradient id="g9" x1="-49.1" y1="413.1" x2="-95.9" y2="449.9" href="#P"><stop stop-color="#53d8ff"/><stop offset="1" stop-color="#3840f7"/></linearGradient><linearGradient id="g10" x1="-10.6" y1="232.3" x2="-35.1" y2="260.4" href="#P"><stop stop-color="#ff928e"/><stop offset="1" stop-color="#feb3b1"/></linearGradient><linearGradient id="g11" x1="-3" y1="224.7" x2="-16" y2="241.4" href="#P"><stop stop-color="#4042e2"/><stop offset="1" stop-color="#4f52ff"/></linearGradient><linearGradient id="g12" x1="372.8" y1="313.8" x2="368.8" y2="328.6" href="#P"><stop stop-color="#ff928e"/><stop offset="1" stop-color="#feb3b1"/></linearGradient><linearGradient id="g13" x1="-77.7" y1="413.7" x2="-80.2" y2="435.1" href="#P"><stop stop-color="#ff928e"/><stop offset="1" stop-color="#feb3b1"/></linearGradient><linearGradient id="g14" x1="-40.8" y1="423.7" x2="-87.6" y2="460.5" href="#P"><stop stop-color="#53d8ff"/><stop offset="1" stop-color="#3840f7"/></linearGradient><linearGradient id="g15" x1="-61.7" y1="428.7" x2="-43.2" y2="428.7" href="#P"><stop stop-color="#09005d"/><stop offset="1" stop-color="#1a0f91"/></linearGradient><linearGradient id="g16" x1="-57.7" y1="416" x2="-60.1" y2="437.4" href="#P"><stop stop-color="#ff928e"/><stop offset="1" stop-color="#feb3b1"/></linearGradient><linearGradient id="g17" x1="353.2" y1="376.4" x2="285.7" y2="444.8" href="#P"><stop stop-color="#2f5bea"/><stop offset="1" stop-color="#1e0b4b"/></linearGradient><linearGradient id="g18" x1="302.2" y1="365.4" x2="374.8" y2="269.6" href="#P"><stop stop-color="#1e0b4b"/><stop offset="1" stop-color="#8f005b"/></linearGradient><linearGradient id="g19" x1="-355.5" y1="714.8" x2="-339.4" y2="692.6" href="#P"><stop stop-color="#ff928e"/><stop offset="1" stop-color="#feb3b1"/></linearGradient><linearGradient id="g20" x1="-362.7" y1="709.4" x2="-346.6" y2="687.3" href="#P"><stop stop-color="#ff928e"/><stop offset="1" stop-color="#feb3b1"/></linearGradient><linearGradient id="g21" x1="351.8" y1="269" x2="349.8" y2="302.2" href="#P"><stop stop-color="#ff928e"/><stop offset="1" stop-color="#feb3b1"/></linearGradient><linearGradient id="g22" x1="-754.8" y1="-196.3" x2="-742.9" y2="-214.1" href="#P"><stop stop-color="#ff928e"/><stop offset="1" stop-color="#feb3b1"/></linearGradient><linearGradient id="g23" x1="344.8" y1="267.9" x2="360.6" y2="267.9" href="#P"><stop stop-color="#1e0b4b"/><stop offset="1" stop-color="#2f5bea"/></linearGradient><linearGradient id="g24" x1="-759.9" y1="-199.7" x2="-748" y2="-217.5" href="#P"><stop stop-color="#ff928e"/><stop offset="1" stop-color="#feb3b1"/></linearGradient><linearGradient id="g25" x1="-72.6" y1="350.6" x2="-79.2" y2="362.3" href="#P"><stop stop-color="#09005d"/><stop offset="1" stop-color="#1a0f91"/></linearGradient><linearGradient id="g26" x1="20" y1="201.6" x2="92" y2="201.6" href="#P"><stop stop-color="#dae3fe"/><stop offset="1" stop-color="#e9effd"/></linearGradient><linearGradient id="g27" x1="20" y1="212.2" x2="92" y2="212.2" href="#P"><stop stop-color="#dae3fe"/><stop offset="1" stop-color="#e9effd"/></linearGradient><linearGradient id="g28" x1="20" y1="222.7" x2="92" y2="222.7" href="#P"><stop stop-color="#dae3fe"/><stop offset="1" stop-color="#e9effd"/></linearGradient><linearGradient id="g29" x1="20" y1="233.3" x2="92" y2="233.3" href="#P"><stop stop-color="#dae3fe"/><stop offset="1" stop-color="#e9effd"/></linearGradient><linearGradient id="g30" x1="106.8" y1="215.5" x2="112.3" y2="192" href="#P"><stop stop-color="#dae3fe"/><stop offset="1" stop-color="#e9effd"/></linearGradient><linearGradient id="g31" x1="131" y1="212.3" x2="148.1" y2="195.2" href="#P"><stop stop-color="#dae3fe"/><stop offset="1" stop-color="#e9effd"/></linearGradient><linearGradient id="g32" x1="157.5" y1="204.2" x2="181.6" y2="204.2" href="#P"><stop stop-color="#dae3fe"/><stop offset="1" stop-color="#e9effd"/></linearGradient><linearGradient id="g33" x1="97.5" y1="223.2" x2="121.6" y2="223.2" href="#P"><stop stop-color="#dae3fe"/><stop offset="1" stop-color="#e9effd"/></linearGradient><linearGradient id="g34" x1="127.5" y1="223.2" x2="151.6" y2="223.2" href="#P"><stop stop-color="#dae3fe"/><stop offset="1" stop-color="#e9effd"/></linearGradient><linearGradient id="g35" x1="157.5" y1="223.2" x2="181.6" y2="223.2" href="#P"><stop stop-color="#dae3fe"/><stop offset="1" stop-color="#e9effd"/></linearGradient><linearGradient id="g36" x1="97.5" y1="236.7" x2="121.6" y2="236.7" href="#P"><stop stop-color="#dae3fe"/><stop offset="1" stop-color="#e9effd"/></linearGradient><linearGradient id="g37" x1="127.5" y1="236.7" x2="151.6" y2="236.7" href="#P"><stop stop-color="#dae3fe"/><stop offset="1" stop-color="#e9effd"/></linearGradient><linearGradient id="g38" x1="157.5" y1="236.7" x2="181.6" y2="236.7" href="#P"><stop stop-color="#dae3fe"/><stop offset="1" stop-color="#e9effd"/></linearGradient><linearGradient id="g39" x1="1791.7" y1="401.7" x2="1812" y2="401.7" href="#P"><stop stop-color="#ff928e"/><stop offset="1" stop-color="#feb3b1"/></linearGradient><linearGradient id="g40" x1="1391.8" y1="1042.1" x2="1406.5" y2="1019.9" href="#P"><stop stop-color="#09005d"/><stop offset="1" stop-color="#1a0f91"/></linearGradient><linearGradient id="g41" x1="477.4" y1="368.1" x2="474.4" y2="384.5" href="#P"><stop stop-color="#ff928e"/><stop offset="1" stop-color="#feb3b1"/></linearGradient><linearGradient id="g42" x1="474.9" y1="395.7" x2="518.9" y2="370.6" href="#P"><stop stop-color="#1e0b4b"/><stop offset="1" stop-color="#8f005b"/></linearGradient><linearGradient id="g43" x1="1373.6" y1="1029.9" x2="1388.4" y2="1007.7" href="#P"><stop stop-color="#1e0b4b"/><stop offset="1" stop-color="#1a0f91"/></linearGradient><linearGradient id="g44" x1="485.7" y1="377.4" x2="519.3" y2="335.4" href="#P"><stop stop-color="#1e0b4b"/><stop offset="1" stop-color="#8f005b"/></linearGradient><linearGradient id="g45" x1="493.2" y1="322.7" x2="496.1" y2="342.5" href="#P"><stop stop-color="#ff928e"/><stop offset="1" stop-color="#feb3b1"/></linearGradient><linearGradient id="g46" x1="1285" y1="975.5" x2="1295.4" y2="962.7" href="#P"><stop stop-color="#ff928e"/><stop offset="1" stop-color="#feb3b1"/></linearGradient><linearGradient id="g47" x1="489.4" y1="318.9" x2="505.6" y2="318.9" href="#P"><stop stop-color="#1e0b4b"/><stop offset="1" stop-color="#2f5bea"/></linearGradient><linearGradient id="g48" x1="1288.8" y1="978.3" x2="1299.2" y2="965.5" href="#P"><stop stop-color="#ff928e"/><stop offset="1" stop-color="#feb3b1"/></linearGradient><linearGradient id="g49" x1="514.6" y1="354.6" x2="509.7" y2="361.5" href="#P"><stop stop-color="#ff928e"/><stop offset="1" stop-color="#feb3b1"/></linearGradient><linearGradient id="g50" x1="503.7" y1="327.9" x2="526.8" y2="327.9" href="#P"><stop stop-color="#1e0b4b"/><stop offset="1" stop-color="#2f5bea"/></linearGradient><linearGradient id="g51" x1="1801.6" y1="489.8" x2="1776.3" y2="496.7" href="#P"><stop stop-color="#1e0b4b"/><stop offset="1" stop-color="#1a0f91"/></linearGradient><linearGradient id="g52" x1="454" y1="377.1" x2="470.1" y2="350.3" href="#P"><stop stop-color="#1e0b4b"/><stop offset="1" stop-color="#1a0f91"/></linearGradient><linearGradient id="g53" x1="76.7" y1="386.8" x2="75" y2="401.9" href="#P"><stop stop-color="#09005d"/><stop offset="1" stop-color="#1a0f91"/></linearGradient><linearGradient id="g54" x1="64.9" y1="426.2" x2="63.3" y2="413.8" href="#P"><stop stop-color="#ff928e"/><stop offset="1" stop-color="#feb3b1"/></linearGradient><linearGradient id="g55" x1="36.6" y1="382.3" x2="34.9" y2="397.4" href="#P"><stop stop-color="#09005d"/><stop offset="1" stop-color="#1a0f91"/></linearGradient><linearGradient id="g56" x1="30.2" y1="430.5" x2="28.7" y2="418.4" href="#P"><stop stop-color="#ff928e"/><stop offset="1" stop-color="#feb3b1"/></linearGradient><linearGradient id="g57" x1="52.6" y1="379.1" x2="-47.1" y2="448.8" href="#P"><stop stop-color="#2349c2"/><stop offset="1" stop-color="#1e0b4b"/></linearGradient><linearGradient id="g58" x1="72.4" y1="345.6" x2="48.6" y2="357.6" href="#P"><stop stop-color="#09005d"/><stop offset="1" stop-color="#1a0f91"/></linearGradient><linearGradient id="g59" x1="20.3" y1="369" x2="66.5" y2="294.9" href="#P"><stop stop-color="#1e0b4b"/><stop offset="1" stop-color="#8f005b"/></linearGradient><linearGradient id="g60" x1="41.9" y1="351.1" x2="63.6" y2="351.1" href="#P"><stop stop-color="#ff928e"/><stop offset="1" stop-color="#feb3b1"/></linearGradient><linearGradient id="g61" x1="61.9" y1="324" x2="102.3" y2="324" href="#P"><stop stop-color="#ff928e"/><stop offset="1" stop-color="#feb3b1"/></linearGradient><linearGradient id="g62" x1="47.3" y1="301.3" x2="61.4" y2="286.8" href="#P"><stop stop-color="#ff928e"/><stop offset="1" stop-color="#feb3b1"/></linearGradient><linearGradient id="g63" x1="100.1" y1="289.3" x2="83.3" y2="286.4" href="#P"><stop stop-color="#ff928e"/><stop offset="1" stop-color="#feb3b1"/></linearGradient><linearGradient id="g64" x1="54.3" y1="283.3" x2="75.3" y2="283.3" href="#P"><stop stop-color="#1e0b4b"/><stop offset="1" stop-color="#2f5bea"/></linearGradient><linearGradient id="g65" x1="42" y1="296.1" x2="56.1" y2="281.7" href="#P"><stop stop-color="#ff928e"/><stop offset="1" stop-color="#feb3b1"/></linearGradient><linearGradient id="g66" x1="113.6" y1="399.5" x2="135.6" y2="399.5" href="#P"><stop stop-color="#ff928e"/><stop offset="1" stop-color="#feb3b1"/></linearGradient><linearGradient id="g67" x1="131.3" y1="308.1" x2="129.3" y2="356.4" href="#P"><stop stop-color="#09005d"/><stop offset="1" stop-color="#1a0f91"/></linearGradient><linearGradient id="g68" x1="87.7" y1="401" x2="134.2" y2="401" href="#P"><stop stop-color="#ff928e"/><stop offset="1" stop-color="#feb3b1"/></linearGradient><linearGradient id="g69" x1="160.8" y1="328.9" x2="152.8" y2="350.6" href="#P"><stop stop-color="#ced9ff"/><stop offset="1" stop-color="#2047c7"/></linearGradient><linearGradient id="g70" x1="110.2" y1="359.8" x2="105.7" y2="379.9" href="#P"><stop stop-color="#09005d"/><stop offset="1" stop-color="#1a0f91"/></linearGradient><linearGradient id="g71" x1="136.7" y1="326.5" x2="169.7" y2="326.5" href="#P"><stop stop-color="#1e0b4b"/><stop offset="1" stop-color="#2f5bea"/></linearGradient><linearGradient id="g72" x1="148.1" y1="327.2" x2="148.1" y2="364.3" href="#P"><stop stop-color="#aec1ff"/><stop offset="1" stop-color="#183fbe"/></linearGradient><linearGradient id="g73" x1="135.9" y1="313.4" x2="140.7" y2="338.7" href="#P"><stop stop-color="#ff928e"/><stop offset="1" stop-color="#feb3b1"/></linearGradient><linearGradient id="g74" x1="139.8" y1="302.9" x2="134.5" y2="321" href="#P"><stop stop-color="#ff928e"/><stop offset="1" stop-color="#feb3b1"/></linearGradient><linearGradient id="g75" x1="132.2" y1="309.3" x2="148.9" y2="309.3" href="#P"><stop stop-color="#1e0b4b"/><stop offset="1" stop-color="#2f5bea"/></linearGradient><linearGradient id="g76" x1="145.2" y1="304.5" x2="139.9" y2="322.5" href="#P"><stop stop-color="#ff928e"/><stop offset="1" stop-color="#feb3b1"/></linearGradient><linearGradient id="g77" x1="159.8" y1="329.5" x2="154" y2="346.7" href="#P"><stop stop-color="#ff928e"/><stop offset="1" stop-color="#feb3b1"/></linearGradient><linearGradient id="g78" x1="129.1" y1="401.5" x2="101.6" y2="409.1" href="#P"><stop stop-color="#09005d"/><stop offset="1" stop-color="#1a0f91"/></linearGradient><linearGradient id="g79" x1="92.7" y1="368.3" x2="108.8" y2="348.9" href="#P"><stop stop-color="#09005d"/><stop offset="1" stop-color="#1a0f91"/></linearGradient><linearGradient id="g80" x1="407.7" y1="-44.3" x2="329.9" y2="111.4" href="#P"><stop stop-color="#4042e2"/><stop offset="1" stop-color="#4f52ff"/></linearGradient><linearGradient id="g81" x1="406.5" y1="-44.8" x2="328.7" y2="110.8" href="#P"><stop stop-color="#4042e2"/><stop offset="1" stop-color="#4f52ff"/></linearGradient><linearGradient id="g82" x1="405" y1="-45.6" x2="327.1" y2="110" href="#P"><stop stop-color="#4042e2"/><stop offset="1" stop-color="#4f52ff"/></linearGradient><linearGradient id="g83" x1="404.1" y1="-46" x2="326.3" y2="109.6" href="#P"><stop stop-color="#4042e2"/><stop offset="1" stop-color="#4f52ff"/></linearGradient><linearGradient id="g84" x1="295.4" y1="88.8" x2="291.3" y2="156.2" href="#P"><stop stop-color="#fee962"/><stop offset="1" stop-color="#fe5049"/></linearGradient><linearGradient id="g85" x1="300.7" y1="138.9" x2="303.3" y2="223.9" href="#P"><stop stop-color="#e1473d"/><stop offset="1" stop-color="#e9605a"/></linearGradient><linearGradient id="g86" x1="285.9" y1="139.4" x2="288.6" y2="224.3" href="#P"><stop stop-color="#e1473d"/><stop offset="1" stop-color="#e9605a"/></linearGradient><linearGradient id="g87" x1="99.2" y1="145.9" x2="260.1" y2="145.9" href="#P"><stop stop-color="#dae3fe"/><stop offset="1" stop-color="#e9effd"/></linearGradient><linearGradient id="g88" x1="11.1" y1="101.1" x2="128.4" y2="101.1" href="#P"><stop stop-color="#dae3fe"/><stop offset="1" stop-color="#e9effd"/></linearGradient><linearGradient id="g89" x1="32.9" y1="101.1" x2="106.6" y2="101.1" href="#P"><stop stop-color="#dae3fe"/><stop offset="1" stop-color="#e9effd"/></linearGradient><linearGradient id="g90" x1="23.9" y1="34.6" x2="142.5" y2="206.7" href="#P"><stop stop-color="#1640c5"/><stop offset="1" stop-color="#5880ff"/></linearGradient><linearGradient id="g91" x1="53.8" y1="101.1" x2="85.8" y2="101.1" href="#P"><stop stop-color="#dae3fe"/><stop offset="1" stop-color="#e9effd"/></linearGradient><linearGradient id="g92" x1="-57.6" y1="21.6" x2="-14.2" y2="30.2" href="#P"><stop stop-color="#09005d"/><stop offset="1" stop-color="#2f5bea"/></linearGradient><linearGradient id="g93" x1="-182.3" y1="932.8" x2="-188.4" y2="998.2" href="#P"><stop stop-color="#fe7062"/><stop offset="1" stop-color="#ff928e"/></linearGradient><linearGradient id="g94" x1="326.2" y1="255.1" x2="485" y2="255.1" href="#P"><stop stop-color="#dae3fe"/><stop offset="1" stop-color="#e9effd"/></linearGradient><linearGradient id="g95" x1="170.9" y1="254.7" x2="263.6" y2="254.7" href="#P"><stop stop-color="#dae3fe"/><stop offset="1" stop-color="#e9effd"/></linearGradient><linearGradient id="g96" x1="321.2" y1="133.4" x2="450.6" y2="133.4" href="#P"><stop stop-color="#dae3fe"/><stop offset="1" stop-color="#e9effd"/></linearGradient><linearGradient id="g97" x1="477.7" y1="128.2" x2="584.7" y2="128.2" href="#P"><stop stop-color="#dae3fe"/><stop offset="1" stop-color="#e9effd"/></linearGradient><linearGradient id="g98" x1="415" y1="80.8" x2="553.9" y2="80.8" href="#P"><stop stop-color="#dae3fe"/><stop offset="1" stop-color="#e9effd"/></linearGradient></defs><style>.s0{fill:url(#g1)}.s1{fill:url(#g2)}.s2{fill:#bdd0fb}.s3{opacity: .1;fill:#aec1ff}.s4{fill:url(#g3)}.s5{fill:url(#g4)}.s6{fill:url(#g5)}.s7{fill:url(#g6)}.s8{fill:url(#g7)}.s9{fill:#f1f6fb}.s10{fill:#cfdaff}.s11{fill:url(#g8)}.s12{fill:url(#g9)}.s13{fill:#2f5bea}.s14{fill:url(#g10)}.s15{fill:url(#g11)}.s16{fill:url(#g12)}.s17{fill:url(#g13)}.s18{fill:url(#g14)}.s19{fill:url(#g15)}.s20{fill:url(#g16)}.s21{fill:url(#g17)}.s22{fill:url(#g18)}.s23{fill:url(#g19)}.s24{fill:url(#g20)}.s25{fill:url(#g21)}.s26{fill:url(#g22)}.s27{fill:url(#g23)}.s28{fill:url(#g24)}.s29{fill:#5c0554}.s30{fill:url(#g25)}.s31{fill:#678bff}.s32{fill:url(#g26)}.s33{fill:url(#g27)}.s34{fill:url(#g28)}.s35{fill:url(#g29)}.s36{fill:url(#g30)}.s37{fill:url(#g31)}.s38{fill:url(#g32)}.s39{fill:#f15151}.s40{fill:url(#g33)}.s41{fill:url(#g34)}.s42{fill:url(#g35)}.s43{fill:url(#g36)}.s44{fill:url(#g37)}.s45{fill:url(#g38)}.s46{fill:#7d97f4}.s47{fill:url(#g39)}.s48{fill:url(#g40)}.s49{fill:url(#g41)}.s50{fill:url(#g42)}.s51{fill:url(#g43)}.s52{fill:url(#g44)}.s53{fill:url(#g45)}.s54{fill:url(#g46)}.s55{fill:url(#g47)}.s56{fill:url(#g48)}.s57{fill:url(#g49)}.s58{fill:url(#g50)}.s59{fill:url(#g51)}.s60{fill:url(#g52)}.s61{fill:#91b3fa}.s62{fill:#aec1ff}.s63{fill:url(#g53)}.s64{fill:url(#g54)}.s65{fill:url(#g55)}.s66{fill:url(#g56)}.s67{fill:url(#g57)}.s68{fill:url(#g58)}.s69{fill:url(#g59)}.s70{fill:#7a0258}.s71{fill:url(#g60)}.s72{fill:url(#g61)}.s73{fill:url(#g62)}.s74{fill:url(#g63)}.s75{fill:url(#g64)}.s76{fill:url(#g65)}.s77{fill:#819aec}.s78{fill:url(#g66)}.s79{fill:url(#g67)}.s80{fill:url(#g68)}.s81{fill:url(#g69)}.s82{fill:url(#g70)}.s83{fill:url(#g71)}.s84{fill:url(#g72)}.s85{fill:url(#g73)}.s86{fill:url(#g74)}.s87{fill:url(#g75)}.s88{fill:url(#g76)}.s89{fill:url(#g77)}.s90{fill:url(#g78)}.s91{fill:url(#g79)}.s92{fill:#4e78ff}.s93{fill:url(#g80)}.s94{fill:url(#g81)}.s95{fill:url(#g82)}.s96{fill:url(#g83)}.s97{fill:url(#g84)}.s98{fill:url(#g85)}.s99{fill:url(#g86)}.s100{opacity: .8;fill:#ffffff}.s101{opacity: .5;fill:#ffffff}.s102{fill:url(#g87)}.s103{fill:#1e0b4b}.s104{fill:url(#g88)}.s105{fill:url(#g89)}.s106{fill:url(#g90)}.s107{fill:url(#g91)}.s108{fill:url(#g92)}.s109{fill:url(#g93)}.s110{fill:url(#g94)}.s111{fill:url(#g95)}.s112{fill:url(#g96)}.s113{fill:#afc2ff}.s114{fill:url(#g97)}.s115{fill:#8ba6ff}.s116{fill:#5879e4}.s117{fill:url(#g98)}</style><g clip-path="url(#cp1)"><path class="s0" d="m517.3 384c0 4.8-3.9 8.7-8.7 8.7h-471c-4.8 0-8.7-3.9-8.7-8.7l-4-270.7c0-4.8 5.7-14.2 16-13.5l460.4-11.9c6-0.1 11.8 2.2 16.1 6.4c4.2 4.3 6.6 10.1 6.4 16.1z" /><path class="s1" d="m508.7 375.6c0 4.6-3.7 8.3-8.2 8.3h-451.6c-4.5 0-8.2-3.7-8.2-8.3l-3.7-245.7c0.4-14.8 13.4-20.1 21.3-19.8l441.2-11.8c4.2-0.2 8.3 1.5 11.3 4.4c3 3 4.6 7.1 4.5 11.3z" /><path class="s2" d="m45.6 258.4c-0.4 0-0.8-0.3-0.8-0.7l-0.3-19.9c0-0.5 0.4-0.8 0.8-0.8c0.4 0 0.7 0.3 0.7 0.7l0.3 20c0 0.4-0.3 0.7-0.7 0.7z" /><path class="s2" d="m44.9 209.6c-0.5 0-0.8-0.3-0.8-0.8l-1.1-76.3c0-5.1 1.6-9.2 4.7-12.2c5.6-5.3 14.4-5.1 14.8-5.1l140.9-3.7c0.4 0 0.7 0.3 0.7 0.7c0 0.4-0.3 0.7-0.7 0.8l-141 3.7c-0.4 0-8.5-0.2-13.7 4.7c-2.8 2.7-4.2 6.4-4.2 11.1l1.1 76.3c0 0.4-0.3 0.8-0.7 0.8z" /><path class="s3" d="m60.6 362c0.5-20.3 0.3-200.2-0.9-215.7c-1.2-15.5 23-18.5 60.2-20.2c37.1-1.8 350.5-8.7 358.6-9.3c18.1-1.5 21.9 25.6 20.1 84.5c-1.4 44.2-3.7 117-4.7 150.5c-0.3 10-8.5 17.9-18.4 17.9c-75.4 0.2-364.5 1.1-383.7 1.6c-22.2 0.7-31.4-1.3-31.2-9.3z" /><path class="s4" d="m543.7 415.2h-531.6c-6.6 0-11.9-5.4-11.9-11.9c0-6.6 5.3-11.9 11.9-11.9h531.6c6.5 0 11.9 5.3 11.9 11.9c0 6.5-5.4 11.9-11.9 11.9z" /><path class="s5" d="m260.7 433.7q-0.2 0-0.4 0c-1.9-0.2-3.3-2-3-3.9l21.9-191.1c0.2-1.9 2-3.3 3.9-3.1c1.9 0.2 3.3 2 3.1 3.9l-22 191.1c-0.2 1.8-1.7 3.1-3.5 3.1z" /><path class="s6" d="m381.5 433.7c-1.6 0-3.1-1.1-3.5-2.7l-42.8-191.1c-0.4-1.9 0.8-3.8 2.6-4.2c1.9-0.4 3.8 0.8 4.2 2.6l42.9 191.2c0.4 1.8-0.8 3.7-2.7 4.1q-0.4 0.1-0.7 0.1z" /><path class="s7" d="m309.1 433.7c-1.9 0-3.5-1.5-3.5-3.5v-94.3c0-1.9 1.6-3.5 3.5-3.5c1.9 0 3.5 1.6 3.5 3.5v94.3c0 2-1.6 3.5-3.5 3.5z" /><path class="s8" d="m245.1 211l116.2-2.6c3.1-0.1 5.8 2.1 6.2 5.2l24.6 154.5c0.6 3.7-2.2 7-5.9 7.1l-128.5 3.2c-3.3 0-6.1-2.5-6.3-5.7l-12.3-155c-0.3-3.5 2.4-6.6 6-6.7z" /><path class="s9" d="m249.8 215.3l107.8-2.5c3.1-0.1 5.7 2.2 6.2 5.2l23.2 145.8c0.6 3.7-2.2 7.1-5.9 7.2l-119.4 2.9c-3.3 0.1-6-2.4-6.3-5.7l-11.6-146.2c-0.3-3.6 2.5-6.6 6-6.7z" /><path fill-rule="evenodd" class="s10" d="m307.9 262.9c-0.3 0-0.6-0.1-0.8-0.3c-0.2-0.3-0.3-0.8-0.1-1.1c0.1-0.2 9.7-18.4 18.2-34.4c0.2-0.4 0.8-0.6 1.3-0.4c10.1 5.4 17.4 14.8 20.1 25.9q0.1 0.4-0.1 0.8q-0.2 0.3-0.6 0.4l-37.8 9.1q-0.1 0-0.2 0zm18.5-34c-6.7 12.7-14 26.6-16.7 31.6l34.8-8.4c-2.7-9.8-9.2-18.2-18.1-23.2z" /><path fill-rule="evenodd" class="s10" d="m297.7 309.7q-3.7 0-7.5-0.8c-21.6-4.1-35.8-25-31.6-46.6c2-10.4 7.9-19.5 16.7-25.4c8.8-6 19.4-8.2 29.9-6.2c3.9 0.7 7.6 2 11.1 3.9q0.3 0.2 0.5 0.6q0.1 0.3-0.1 0.7c-6.9 12.9-14.5 27.4-17.1 32.5l35.6-8.6c0.6-0.2 1.1 0.2 1.2 0.7c1.4 5.5 1.5 11.2 0.4 16.8c-3.6 19.1-20.4 32.4-39.1 32.4zm-0.1-77.8c-7.5 0-14.8 2.3-21.2 6.6c-8.4 5.7-14 14.3-15.9 24.2c-4 20.5 9.5 40.4 30.1 44.3c20.5 3.9 40.4-9.6 44.3-30.1c1-5 0.9-10.1-0.2-15l-36.8 8.9c-0.4 0.1-0.8-0.1-1-0.4c-0.2-0.3-0.3-0.7-0.1-1c0.1-0.2 9.4-17.8 17.7-33.5c-3.1-1.6-6.3-2.7-9.7-3.3q-3.6-0.7-7.2-0.7z" /><path class="s10" d="m297.7 302.2q-3 0-6.1-0.6c-17.5-3.4-29-20.3-25.7-37.9c1.6-8.4 6.5-15.8 13.6-20.6c7.2-4.9 15.8-6.7 24.3-5.1q1.9 0.4 3.7 1c0.1 0 0.2 0.2 0.2 0.3c-0.1 0.1-0.2 0.2-0.4 0.2q-1.8-0.6-3.6-1c-8.4-1.6-16.9 0.2-23.9 5c-7.1 4.7-11.8 12-13.4 20.3c-3.3 17.3 8 34 25.3 37.3c17.3 3.3 34-8.1 37.3-25.3c0.4-2.3 0.6-4.6 0.5-6.9c0-0.1 0.1-0.2 0.3-0.2c0.1 0 0.2 0.1 0.2 0.2c0.1 2.3-0.1 4.7-0.6 7c-2.9 15.5-16.5 26.3-31.7 26.3z" /><path class="s10" d="m306.3 242.9q0 0 0 0q-0.7-0.3-1.4-0.4c-0.2-0.1-0.2-0.2-0.2-0.3c0-0.2 0.2-0.2 0.3-0.2q0.7 0.2 1.4 0.4c0.1 0 0.2 0.2 0.2 0.3q-0.1 0.2-0.3 0.2z" /><path class="s10" d="m297.7 298.6q-1 0-2-0.1c-0.1 0-0.2-0.1-0.2-0.2c0-0.2 0.1-0.3 0.2-0.3q1.5 0.1 2.9 0.1c0.1 0 0.2 0.1 0.2 0.2c0 0.2-0.1 0.3-0.2 0.3q-0.4 0-0.9 0zm3.8-0.3c-0.2 0-0.3 0-0.3-0.2c0-0.1 0.1-0.2 0.2-0.2q1.4-0.2 2.8-0.6c0.2 0 0.3 0.1 0.3 0.2c0.1 0.1 0 0.3-0.1 0.3q-1.5 0.3-2.9 0.5q0 0 0 0zm-8.6-0.1q-0.1 0-0.1 0q-0.3-0.1-0.5-0.1q-1.2-0.2-2.3-0.6c-0.1 0-0.2-0.1-0.2-0.3c0.1-0.1 0.2-0.2 0.3-0.1q1.1 0.3 2.3 0.5q0.2 0 0.5 0.1c0.1 0 0.2 0.1 0.2 0.3c0 0.1-0.1 0.2-0.2 0.2zm14.2-1.2q-0.2 0-0.3-0.2c0-0.1 0.1-0.2 0.2-0.3q1.3-0.4 2.6-1c0.1-0.1 0.3 0 0.3 0.1c0.1 0.1 0 0.2-0.1 0.3q-1.3 0.6-2.7 1.1q0 0 0 0zm-19.8-0.4q0 0-0.1 0q-1.3-0.5-2.6-1.2c-0.1 0-0.2-0.2-0.1-0.3c0-0.1 0.2-0.2 0.3-0.1q1.3 0.7 2.6 1.2c0.1 0 0.2 0.2 0.1 0.3q0 0.1-0.2 0.1zm25-2q-0.2 0-0.2-0.1c-0.1-0.2-0.1-0.3 0-0.4q1.3-0.7 2.4-1.6c0.1 0 0.3 0 0.4 0.1c0 0.1 0 0.3-0.1 0.3q-1.2 0.9-2.4 1.6q-0.1 0.1-0.1 0.1zm-30.1-0.6q-0.1 0-0.1 0q-1.2-0.8-2.4-1.7c-0.1-0.1-0.1-0.2 0-0.3c0.1-0.2 0.2-0.2 0.3-0.1q1.1 0.9 2.3 1.7c0.1 0.1 0.2 0.2 0.1 0.3q-0.1 0.1-0.2 0.1zm34.7-2.8q-0.1 0-0.2-0.1c-0.1-0.1-0.1-0.3 0-0.4q1.1-0.9 2-2c0.1-0.1 0.3-0.1 0.4 0c0.1 0.1 0.1 0.2 0 0.3q-1 1.1-2 2.1q-0.1 0.1-0.2 0.1zm-39.2-0.8q-0.1 0-0.2 0q-1-1-1.9-2.2c-0.1-0.1-0.1-0.2 0-0.3c0.1-0.1 0.3-0.1 0.4 0q0.9 1.1 1.9 2.1c0.1 0.1 0.1 0.3 0 0.4q-0.1 0-0.2 0zm43-3.5q0 0-0.1-0.1c-0.1 0-0.1-0.2-0.1-0.3q0.9-1.2 1.6-2.4c0.1-0.1 0.2-0.1 0.3-0.1c0.1 0.1 0.2 0.2 0.1 0.4q-0.7 1.2-1.6 2.4q-0.1 0.1-0.2 0.1zm-46.7-0.9q-0.1 0-0.2-0.1q-0.8-1.2-1.5-2.5c0-0.1 0-0.2 0.1-0.3c0.2-0.1 0.3 0 0.4 0.1q0.6 1.3 1.4 2.4c0.1 0.2 0.1 0.3 0 0.4q-0.1 0-0.2 0zm49.6-4.1q0 0-0.1 0c-0.1-0.1-0.1-0.2-0.1-0.3q0.6-1.3 1.1-2.7c0-0.1 0.1-0.2 0.3-0.1c0.1 0 0.2 0.2 0.1 0.3q-0.4 1.4-1 2.7q-0.1 0.1-0.3 0.1zm-52.3-0.9q-0.1 0-0.2-0.2q-0.6-1.3-1-2.7c0-0.2 0.1-0.3 0.2-0.3c0.1-0.1 0.2 0 0.3 0.1q0.4 1.4 0.9 2.7c0.1 0.1 0 0.3-0.1 0.3q0 0.1-0.1 0.1zm54.2-4.5q0 0-0.1 0c-0.1-0.1-0.2-0.2-0.2-0.3q0.2-0.5 0.3-1.1q0.1-0.8 0.2-1.7c0.1-0.2 0.2-0.3 0.3-0.2c0.1 0 0.2 0.1 0.2 0.2q-0.1 0.9-0.3 1.8q-0.1 0.6-0.2 1.1c0 0.1-0.1 0.2-0.2 0.2zm-55.8-1c-0.2 0-0.3-0.1-0.3-0.2q-0.3-1.5-0.4-2.9c0-0.2 0.1-0.3 0.2-0.3c0.2 0 0.3 0.1 0.3 0.2q0.1 1.5 0.4 2.9c0 0.1-0.1 0.2-0.2 0.3q0 0 0 0zm-0.5-5.8h-0.1c-0.1 0-0.2-0.1-0.2-0.2q0-1.5 0.2-2.9c0-0.1 0.1-0.2 0.3-0.2c0.1 0 0.2 0.1 0.2 0.2q-0.2 1.5-0.2 2.9c0 0.1-0.1 0.2-0.2 0.2zm0.6-5.7q0 0-0.1 0c-0.1 0-0.2-0.1-0.1-0.3q0.3-1.4 0.7-2.8c0.1-0.1 0.2-0.2 0.3-0.1c0.2 0 0.2 0.1 0.2 0.3q-0.5 1.3-0.8 2.7c0 0.1-0.1 0.2-0.2 0.2zm1.8-5.5q-0.1 0-0.1 0c-0.2 0-0.2-0.2-0.2-0.3q0.6-1.3 1.3-2.6c0.1-0.1 0.3-0.1 0.4-0.1c0.1 0.1 0.1 0.2 0.1 0.4q-0.7 1.2-1.3 2.5q-0.1 0.1-0.2 0.1zm2.8-5q-0.1 0.1-0.1 0c-0.1-0.1-0.2-0.2-0.1-0.3q0.8-1.2 1.8-2.3c0.1-0.1 0.2-0.1 0.3 0c0.1 0.1 0.2 0.2 0.1 0.3q-1 1.1-1.8 2.2q-0.1 0.1-0.2 0.1zm3.8-4.3q-0.1 0-0.2-0.1c-0.1-0.1-0.1-0.2 0-0.3q1.1-1 2.2-1.9c0.1-0.1 0.3 0 0.4 0.1c0.1 0.1 0 0.2-0.1 0.3q-1.1 0.9-2.1 1.9q-0.1 0-0.2 0zm4.6-3.5q-0.2 0-0.2-0.1c-0.1-0.1-0.1-0.2 0-0.3q1.3-0.8 2.6-1.4c0.1-0.1 0.2 0 0.3 0.1c0.1 0.1 0 0.3-0.1 0.3q-1.3 0.7-2.5 1.4q-0.1 0-0.1 0zm5.1-2.5q-0.1 0-0.2-0.1c0-0.1 0-0.3 0.2-0.3q1.3-0.5 2.7-0.9c0.2 0 0.3 0.1 0.3 0.2c0.1 0.1 0 0.3-0.2 0.3q-1.3 0.3-2.7 0.8q0 0-0.1 0zm14.2-1.3q0 0 0 0q-1.4-0.3-2.9-0.3c-0.1 0-0.2-0.2-0.2-0.3c0-0.1 0.1-0.2 0.3-0.2q1.4 0.1 2.9 0.3c0.1 0 0.2 0.1 0.2 0.3c-0.1 0.1-0.2 0.2-0.3 0.2zm-8.6-0.1c-0.1 0-0.2-0.1-0.2-0.2c-0.1-0.1 0-0.2 0.2-0.3q1.4-0.2 2.9-0.2c0.1 0 0.2 0.1 0.2 0.2c0 0.1-0.1 0.2-0.2 0.3q-1.4 0-2.9 0.2q0 0 0 0z" /><path class="s10" d="m326.2 270.7c-0.1 0-0.2-0.1-0.2-0.2q0-0.7 0-1.5c0-0.1 0.1-0.2 0.2-0.2c0.1 0 0.2 0.1 0.3 0.2q0 0.8 0 1.5c-0.1 0.1-0.2 0.2-0.3 0.2z" /><path class="s10" d="m297.7 282q-0.6 0-1.3-0.1c-6.7-0.7-11.5-6.7-10.8-13.4c0.3-3.2 1.9-6.1 4.4-8.2c2.5-2 5.7-2.9 9-2.6q0.7 0.1 1.4 0.2c0.1 0.1 0.2 0.2 0.2 0.3c-0.1 0.2-0.2 0.2-0.3 0.2q-0.7-0.1-1.4-0.2c-3.1-0.3-6.2 0.6-8.6 2.5c-2.4 2-3.9 4.8-4.2 7.9c-0.7 6.4 4 12.2 10.4 12.8c3.1 0.4 6.1-0.5 8.5-2.5c2.5-2 4-4.8 4.3-7.9q0.1-1.2 0-2.5c0-0.1 0.1-0.2 0.2-0.3c0.2 0 0.3 0.1 0.3 0.3q0.1 1.3 0 2.6c-0.3 3.2-1.9 6.1-4.4 8.2c-2.2 1.8-4.9 2.7-7.7 2.7z" /><path class="s10" d="m311.8 258.7q0 0-0.1 0c-0.1-0.1-0.2-0.2-0.1-0.3c0.1-0.4 12.5-22 15-26.3q0-0.1 0.1-0.2q0.1 0 0.2 0.1c0.1 0 8.1 5 12.3 12.7c0.1 0.1 0.1 0.2 0 0.3c-0.2 0.1-0.3 0-0.4-0.1c-3.8-6.9-10.7-11.5-11.9-12.4c-5.2 8.9-14.6 25.5-14.9 26q0 0.2-0.2 0.2z" /><path fill-rule="evenodd" class="s10" d="m273.6 362.7h-5.9c-0.7 0-1.3-0.6-1.3-1.4v-17.6c0-0.7 0.6-1.3 1.3-1.3h5.9c0.7 0 1.3 0.6 1.3 1.3v17.6c0 0.8-0.6 1.4-1.3 1.4zm-4.6-2.7h3.3v-15h-3.3z" /><path fill-rule="evenodd" class="s10" d="m285.2 362.7h-8.1c-0.7 0-1.3-0.6-1.3-1.4v-29.1c0-0.7 0.6-1.3 1.3-1.3h8.1c0.7 0 1.3 0.6 1.3 1.3v29.1c0 0.8-0.6 1.4-1.3 1.4zm-6.8-2.7h5.5v-26.5h-5.5z" /><path fill-rule="evenodd" class="s10" d="m300.4 362.7h-11.2c-0.7 0-1.3-0.6-1.3-1.4v-35.2c0-0.8 0.6-1.4 1.3-1.4h11.2c0.7 0 1.3 0.6 1.3 1.4v35.2c0 0.8-0.6 1.4-1.3 1.4zm-9.9-2.7h8.6v-32.6h-8.6z" /><path fill-rule="evenodd" class="s10" d="m320.6 362.7h-13.4c-0.7 0-1.3-0.6-1.3-1.4v-42.7c0-0.7 0.6-1.3 1.3-1.3h13.4c0.8 0 1.4 0.6 1.4 1.3v42.7c0 0.8-0.6 1.4-1.4 1.4zm-12-2.7h10.7v-40h-10.7z" /><path class="s11" d="m344.2 432.9q0-0.1 0.1-0.3c1.4-5.7 8.6-9.3 8.6-9.3l2.9 0.2c1.6 5.1 1.4 8.2 1.1 9.6q0 0 0 0.1c-2.4 0.2-7.2 0.3-12.7-0.3z" /><path class="s12" d="m356.9 433.2c-0.1 0.4-0.5 0.8-0.9 0.9c-3.4 0.7-8.7 0.1-10.9-0.2c-0.5 0-0.9-0.5-0.9-1c5.5 0.6 10.3 0.5 12.7 0.3z" /><path class="s13" d="m313.1 250.7l-18-6.8l1.4-3.1l18.8 6.8c0.4 2.8-2.2 3.1-2.2 3.1z" /><path class="s14" d="m296.5 240.8c0.6 1.7-1.4 3.1-1.4 3.1l-3.4-2.5q0.3-0.7 0.3-1.3z" /><path class="s15" d="m292 240.1q0 0.6-0.3 1.3l-2.5-1.7z" /><path class="s16" d="m368.2 331.1c1.7 1.9 4.3 3.5 6.2 4.6c-2.8 3.3-6.5 6.7-11.3 10l-1.4 3.1l-4.5-5.3c0 0 8-4 11-12.4z" /><path class="s17" d="m356.9 419.3l-1.2 5.8c-0.1 0.4-0.4 0.7-0.8 0.8c-0.5 0-1.2 0-1.9-0.1c-0.6-0.1-1.1-0.7-0.9-1.4l0.8-5.1z" /><path class="s18" d="m331.9 433.1c3.1-0.1 4.8-0.4 5.6-0.8q0 0.5 0 1c0 0.3-0.3 0.6-0.6 0.6l-17.3-0.1c-0.6 0-0.9-0.6-0.6-1.2c2.2 0.2 8 0.7 12.9 0.5z" /><path class="s19" d="m319 432.6q0 0 0-0.1c1.6-2.1 5.4-6.4 13.1-8.2l3.7-0.1c0 0 1.7 2.8 1.7 8.1c-0.8 0.4-2.5 0.7-5.6 0.8c-4.9 0.2-10.7-0.3-12.9-0.5z" /><path class="s20" d="m336.5 418.6c0 0.3-0.5 4.4-0.7 6.1c-0.1 0.3-0.4 0.6-0.7 0.7c-0.6 0.1-1.7 0.1-2.5-0.1c-0.5-0.1-0.9-0.5-0.9-1.1v-6.5z" /><path class="s21" d="m358.9 342.4c0 0 4 6.5 4 8c0.2 26.5-4.9 63.3-5.8 69.5c-0.1 0.6-0.5 1-1.1 1c-1.4 0.2-2.6 0.1-3.3 0.1c-0.5-0.1-0.8-0.5-0.8-1c0.9-19-1.8-55.7-1.8-55.7c-4.1 6.7-11.2 47.9-12.5 55.2c-0.1 0.7-0.7 1.2-1.4 1.3c-1.4 0-3-0.3-4.2-0.5c-0.7-0.2-1.3-0.8-1.3-1.6c-0.1-42.5 8.8-76.3 8.8-76.3z" /><path class="s22" d="m310.4 269.6c3.9 7.2 10.4 14.7 20.9 16.6c9.7 1.9 27.2 4.1 34.2 5c2.2 0.3 4.1 1.3 5.5 3c5.5 6.3 17.6 23.8 3.4 41.5c-1.9-1.1-4.5-2.7-6.2-4.6c1.6-4.4 1.7-10.1-1.6-17.1q-0.2 0.9-0.4 1.7c-4.6 14.4-4.8 26.4-4.8 29.2c0 0.4-0.3 0.7-0.6 0.9c-6 2.4-17.5 0.9-21.4 0.4c-0.7-0.2-1.2-0.8-1.1-1.5c1.9-13.8-7.9-36.5-10.5-42.2c-0.3-0.8-1-1.5-1.8-1.8c-14.8-6.7-21.2-17-23.8-26.2c2.3-3 5.8-4.3 8.2-4.9z" /><path class="s23" d="m302.2 274.5c-3.1-11.2-0.7-20.9-0.7-20.9h3.4c0 0 1.1 7.9 5.5 16c-2.4 0.6-5.9 1.9-8.2 4.9z" /><path class="s24" d="m302.2 255.3l-3.1-8.3c-0.3-0.7-0.3-1.4-0.1-2.1l0.8-2.7c0 0 5.7-0.4 7.4 3.1c1.6 3.4-3.5 10-3.5 10z" /><path class="s25" d="m355.2 278l1.1 11.8c0 0-6.6 2-11.4-1.4l3.4-10.8z" /><path class="s26" d="m357.3 270.3l-4.1 8.1c-1.5 3.1-5.1 4.5-8.4 3.2l-1.7-0.7c-1.9-0.7-2.8-3-1.8-4.8c2.3-4.4 6.1-11.5 6.2-11.6c2.6-2.5 9.8 5.8 9.8 5.8z" /><path class="s27" d="m358.8 272.6c1.4 2.2-0.1 3.5-1 4c-0.3 0.2-0.6 0.2-0.9 0.1c-0.9-0.2-2.7-0.6-3.7 0.4q-0.7-0.4-1-1.2c-0.4-0.8-0.5-1.7-0.6-2.5l1.3-2.2c0.2-0.3 0.2-0.7 0.1-1c-0.4-1-1.3-2.8-3-3c-2.3-0.3-5.9-2-5.1-4.4c0.7-2.5 3.5-5.4 6.7-3.6c1.8 1 1.9 2.4 1.7 3.5c-0.1 0.7 0.3 1.2 1 1.4c0.3 0 0.5 0.2 0.6 0.5c0.2 0.5 0.7 0.7 1.3 0.7c1.2-0.2 3 0 4 1.9c1 2-0.1 3.1-1 3.8c-0.6 0.3-0.7 1.1-0.4 1.6z" /><path class="s28" d="m351.7 279.4c0 0 1.5-4.2 3.3-4c1.8 0.1 3.3 1.9 1 4c-2.8 2.5-4.3 0-4.3 0z" /><path class="s29" d="m366.6 312.7c2.3-6.4 1.5-14.3 1.4-14.3l0.7-0.1c0 0.1 0.9 8-1.5 14.7z" /><path class="s30" d="m350.3 363.4c-0.1 0-0.2-0.2-0.2-0.4c0.8-3.1 6.4-6.3 6.6-6.4c0.2-0.1 0.4 0 0.5 0.1c0.1 0.2 0 0.4-0.1 0.5c-0.1 0-5.6 3.1-6.4 6c0 0.1-0.1 0.2-0.3 0.2q0 0-0.1 0z" /><path class="s31" d="m12.3 185.2l181.1-0.8c1.7 0 3.2 1.4 3.1 3.1l-0.3 63.4c-0.1 1.8-1.5 3.2-3.2 3.1c-16-0.5-179.7-2.6-182.9-2.4c-3 0.1-1.4-50-0.9-63.4c0.1-1.7 1.4-3 3.1-3z" /><path fill-rule="evenodd" class="s2" d="m193.1 251.6h-0.1c-10.1-0.3-107.6-1.5-154.4-2.1c-14.1-0.1-24.1-0.3-26.7-0.3h-0.3l-0.1-0.3c-1.1-6.3-1.1-27.2 0.1-60.6c0-0.4 0.3-0.7 0.7-0.7l181.1-0.8q0.3 0 0.6 0.2q0.2 0.2 0.2 0.5l-0.4 63.4c0 0.4-0.3 0.7-0.7 0.7zm0-0.7l0.3-63.4l-181.1 0.8c-1.1 32.8-1.2 53.6-0.1 60.2c3 0 12.8 0.1 26.4 0.3c46.8 0.6 144.2 1.8 154.5 2.1z" /><path class="s32" d="m21.3 198.5h69.4c0.7 0 1.3 1.4 1.3 3.1c0 1.7-0.6 3.1-1.3 3.1h-69.4c-0.7 0-1.3-1.4-1.3-3.1c0-1.7 0.6-3.1 1.3-3.1z" /><path class="s33" d="m21.3 209h69.4c0.7 0 1.3 1.4 1.3 3.2c0 1.7-0.6 3.1-1.3 3.1h-69.4c-0.7 0-1.3-1.4-1.3-3.1c0-1.8 0.6-3.2 1.3-3.2z" /><path class="s34" d="m21.3 219.6h69.4c0.7 0 1.3 1.4 1.3 3.1c0 1.8-0.6 3.1-1.3 3.1h-69.4c-0.7 0-1.3-1.3-1.3-3.1c0-1.7 0.6-3.1 1.3-3.1z" /><path class="s35" d="m21.3 230.2h69.4c0.7 0 1.3 1.4 1.3 3.1c0 1.7-0.6 3.1-1.3 3.1h-69.4c-0.7 0-1.3-1.4-1.3-3.1c0-1.7 0.6-3.1 1.3-3.1z" /><path class="s36" d="m121.3 206.5c-1.5 6.5-8 10.5-14.5 9c-6.5-1.5-10.5-8-9-14.5c1.5-6.5 8-10.5 14.5-9c6.5 1.5 10.5 8 9 14.5z" /><path class="s37" d="m148.1 212.3c-4.7 4.7-12.4 4.7-17.1 0c-4.7-4.7-4.7-12.4 0-17.1c4.7-4.7 12.4-4.7 17.1 0c4.7 4.7 4.7 12.4 0 17.1z" /><path class="s38" d="m169.5 216.2c-6.6 0-12-5.4-12-12c0-6.7 5.4-12.1 12-12.1c6.7 0 12.1 5.4 12.1 12.1c0 6.6-5.4 12-12.1 12z" /><path class="s39" d="m118.5 200.4c0.5 1.2 0.8 2.4 0.8 3.8c0 5.3-4.4 9.7-9.8 9.7c-5.3 0-9.7-4.4-9.7-9.7c0-5.4 4.4-9.8 9.7-9.8q0.2 0 0.4 0v2q-0.2 0-0.4 0c-4.2 0-7.7 3.5-7.7 7.8c0 4.2 3.5 7.7 7.7 7.7c4.3 0 7.8-3.5 7.8-7.7q0-1.6-0.6-3z" /><path class="s39" d="m144.5 212.4c-1.5 0.9-3.2 1.5-5.1 1.5c-5.4 0-9.7-4.4-9.7-9.7c0-5.4 4.3-9.8 9.7-9.8q0.2 0 0.4 0v2q-0.2 0-0.4 0c-4.3 0-7.7 3.5-7.7 7.8c0 4.2 3.4 7.7 7.7 7.7c1.5 0 2.9-0.4 4.1-1.2z" /><path class="s39" d="m177.6 209.7c-1.8 2.5-4.7 4.2-8 4.2c-5.4 0-9.7-4.4-9.7-9.7c0-5.4 4.3-9.8 9.7-9.8q0.2 0 0.4 0v2q-0.2 0-0.4 0c-4.3 0-7.8 3.5-7.8 7.8c0 4.2 3.5 7.7 7.8 7.7c2.7 0 5-1.3 6.4-3.4z" /><g style="opacity: .6"><path class="s40" d="m121.6 223.2c0 1.2-1 2.2-2.2 2.2h-19.7c-1.2 0-2.2-1-2.2-2.2c0-1.3 1-2.3 2.2-2.3h19.7c1.2 0 2.2 1 2.2 2.3z" /><path class="s41" d="m151.6 223.2c0 1.2-1 2.2-2.2 2.2h-19.7c-1.2 0-2.2-1-2.2-2.2c0-1.3 1-2.3 2.2-2.3h19.7c1.2 0 2.2 1 2.2 2.3z" /><path class="s42" d="m157.5 223.2c0-1.3 1-2.3 2.2-2.3h19.7c1.2 0 2.2 1 2.2 2.3c0 1.2-1 2.2-2.2 2.2h-19.7c-1.2 0-2.2-1-2.2-2.2z" /><path class="s43" d="m97.5 234.6c0-3.7 3-6.7 6.6-6.7h10.8c3.7 0 6.7 3 6.7 6.7v4.3c0 3.6-3 6.6-6.7 6.6h-10.8c-3.6 0-6.6-3-6.6-6.6z" /><path class="s44" d="m127.5 234.6c0-3.7 3-6.7 6.6-6.7h10.8c3.7 0 6.7 3 6.7 6.7v4.3c0 3.6-3 6.6-6.7 6.6h-10.8c-3.6 0-6.6-3-6.6-6.6z" /><path class="s45" d="m157.5 234.6c0-3.7 3-6.7 6.6-6.7h10.8c3.7 0 6.7 3 6.7 6.7v4.3c0 3.6-3 6.6-6.7 6.6h-10.8c-3.6 0-6.6-3-6.6-6.6z" /></g><path class="s46" d="m501.9 396.9h2.9v30.8h-2.9z" /><path class="s46" d="m515.8 428.3h-24.9c0-1 0.8-1.8 1.9-1.8h21.2c1 0 1.8 0.8 1.8 1.8z" /><path class="s46" d="m488.2 394.5c0-2.5 2-4.4 4.4-4.4h22.5c2.4 0 4.4 1.9 4.4 4.4c0 2.5-2 4.4-4.4 4.4h-22.5c-2.4 0-4.4-1.9-4.4-4.4z" /><path class="s47" d="m492.5 389.4l-10.2 0.5c0 0 3.6 3.8 3.4 9.3l0.2 12.4c0 1.5 1 2.8 2.4 3.2l1.8 0.6l-4.2 11.5h-6.4l2.5-2.3l1.3-6.2c0.2-0.9 0.1-1.8-0.3-2.5c-7.8-14.3-10.1-28.9-10.7-33.4c-0.1-0.9 0.3-1.7 1.1-2.2c4.7-3.2 9-3.9 9-3.9z" /><path class="s48" d="m480.2 425.9c0 0 3.1 1 4.8-0.1c1.7-1.1 3.3-11 3.3-11c2.8-0.2 3.2 0.7 3.2 0.7c0 4.3-4.8 12.7-4.8 12.7c-3.4 1.6-10.3 0.6-9.7-0.2c0.8-1.1 3.2-2.1 3.2-2.1z" /><path class="s49" d="m491.3 390.1c-0.1-0.1-11.1-1.4-11.1-1.4c0 0 0.4 3.4-0.7 8c-1.1 4.5-17.2 24.4-17.2 24.4l1.7 5.4q-7.9 2.7-15.4 0.9l10.4-6.3c0 0 9.8-33.3 15.8-39.3l11-3.8z" /><path class="s50" d="m515.8 370.6c0 0 6.3 9.4 6.9 13.7c0.5 4.3-1.8 6-8.4 6.3c-6.6 0.3-24.3 0.3-24.3 0.3l-15.1-12.9c0 0 11-3.9 13.9-5c2.8-1.1 27-2.4 27-2.4z" /><path class="s51" d="m463.3 424.7c0 0 1.8 1.7 0.6 3.7c0 0-14.4 2.5-18.3 1.4c0 0 0.8-1.9 5.2-4l-0.3 0.3c-0.4 0.3-0.2 0.9 0.3 0.9c2.9-0.2 8.9-0.7 12.5-2.3z" /><path class="s52" d="m498.8 369.4c0 0-7.4-7-11-11.6c-2-2.5-2.6-5.8-1.7-8.9c1.7-5.6 4.6-11.3 4.9-12.2c0.4-1.4 8.6-1.3 8.6-1.3c0 0 16.3 10.5 22.6 28.3l-7.1 2.3c0 0-4.3-7.2-8.5-11.7c0 0 7.3 9.6 7.5 13.5z" /><path class="s53" d="m495.6 327.9l3.6 7.6c-2.1 1.5-6.6 1.2-6.8 1.1c-0.2-0.2-2.3-7.3-2.4-7.6z" /><path class="s54" d="m498.9 326.5c-3.9 3.6-7.6 3.7-10.1 3.3c-2.5-0.3-4.5-2.9-1.8-8.5c2.6-5.7 6.5-7.3 6.5-7.3c5.1-1.9 9.3 8.9 5.4 12.5z" /><path class="s55" d="m496.3 323.5c0 0 2.9-8.2-4.4-8.3l-1.7 1.2c0 0-2.7-4.6 1.7-6.7c4.4-2.2 10.9-0.3 12.8 5.6c1.9 5.9 0.8 9.8-2.3 12.6c-3.1 2.8-4.4-0.4-4.4-0.4c0 0 1.7-2.6 1-4.1c-0.7-1.4-2.3 0.3-2.3 0.3z" /><path class="s56" d="m497.1 324.4c0 0 1.5-4.2 3.4-2.5c2 1.7-1.6 3.9-3 4.6z" /><path class="s57" d="m483.8 369.9l5.4-5.2l7.5 3.2c0 0 7.4 1.1 11.6 0l4.3-1.2l9.6-3l1.5 4.3c0.4 1.1 0 2.3-0.9 3c-0.8 0.5-1.8 1.2-2.4 1.5c-1.3 0.5-31.3-0.4-31.3-0.4z" /><path class="s58" d="m504.1 316.3c-0.9-1-0.3-2.6 1-2.8c4.3-0.7 10.8 0 13.5 9.1c3.1 10.3 5.1 15.5 7.2 16.4c1.3 0.6 1.4 2.4 0.1 3c-1 0.5-2.4 0.6-4.5 0.2c-15.7-3.5-11.8-20.3-17.3-25.9z" /><path class="s59" d="m504.2 372.4q0 0-0.1 0l-31.3-0.1c-0.8 0-1.4-0.6-1.4-1.4c0-0.7 0.6-1.4 1.4-1.4l31.4 0.1c0.7 0 1.4 0.6 1.4 1.4c0 0.7-0.6 1.3-1.4 1.4z" /><path class="s60" d="m444.6 343.9h26.1c2 0 3.7 1.1 4.5 2.9l12.1 25.6h-32.4c-1.3 0-2.4-0.8-2.8-1.9l-9.4-23.7c-0.5-1.4 0.5-2.9 1.9-2.9z" /><path class="s61" d="m423.3 434.1q-0.2 0-0.4-0.1c-0.6-0.2-0.9-0.9-0.6-1.5l24-57.3c0.3-0.6 0.9-0.8 1.5-0.6c0.6 0.3 0.9 1 0.6 1.6l-24 57.2c-0.2 0.5-0.6 0.7-1.1 0.7z" /><path class="s61" d="m450.4 434.1c-0.4 0-0.8-0.2-1-0.7l-24.1-57.2c-0.3-0.6 0-1.3 0.6-1.6c0.6-0.2 1.3 0 1.5 0.6l24.1 57.3c0.2 0.6 0 1.3-0.6 1.5q-0.2 0.1-0.5 0.1z" /><path class="s61" d="m518.1 434.1q-0.2 0-0.5-0.1c-0.5-0.2-0.8-0.9-0.6-1.5l24.1-57.3c0.3-0.6 0.9-0.8 1.5-0.6c0.6 0.3 0.9 1 0.6 1.6l-24.1 57.2c-0.1 0.5-0.6 0.7-1 0.7z" /><path class="s61" d="m545.2 434.1c-0.4 0-0.9-0.2-1.1-0.7l-24-57.2c-0.3-0.6 0-1.3 0.6-1.6c0.6-0.2 1.2 0 1.5 0.6l24.1 57.3c0.2 0.6-0.1 1.3-0.6 1.5q-0.3 0.1-0.5 0.1z" /><path class="s62" d="m547.3 376.9c-0.1 0.6-0.7 1.1-1.4 1.1h-128.1c-0.7 0-1.4-0.4-1.8-1.1l-1.4-2.8c-0.2-0.5-0.2-1 0.1-1.4c0.3-0.4 0.8-0.6 1.3-0.6h130.8c0.3 0 0.7 0.1 1 0.4c0.2 0.3 0.3 0.7 0.2 1z" /><path class="s63" d="m65.7 422.8c8.3 0.8 13.4 4.6 15.5 6.6c0.5 0.5 0.2 1.4-0.5 1.5c-5.1 0.7-13 0.1-16.5-0.3c-1-0.1-1.8-0.9-1.7-1.9c0.1-2.4 0.5-4.4 0.5-4.4z" /><path class="s64" d="m65.9 417.9l1.3 4.5c0.3 1-0.3 2.1-1.3 2.4c-0.5 0.1-1 0.2-1.4 0.2c-0.7 0.1-1.3-0.3-1.5-0.9l-1.8-4.3z" /><path class="s65" d="m31 427.8c0 0 3.6 2.9 4.9 6.7c0.4 1.1-0.4 2.2-1.5 2.2h-7.3c-1.1 0-1.9-1-1.7-2.1c0.5-2.6 1.8-6.8 5.6-6.8z" /><path class="s66" d="m32.1 423.4l-0.1 5.2c0 0.3-0.3 0.6-0.6 0.5q-1-0.1-2.6 0.5c-0.4 0.1-0.8-0.1-0.9-0.4c-0.6-2.1-1.3-5.3-1.3-5.3z" /><path class="s67" d="m45.5 352.7l21.5 65.7c0 0-4.1 2.7-6.1 2.6l-25.6-52.8c0 0-4.5 32.5-2.3 55.9l-7.3 0.5c0 0-11.9-59.7-2.9-80.1z" /><path class="s68" d="m35.5 367.6q-0.1 0-0.1 0c-0.1 0-0.2-0.1-0.2-0.2l0.9-6.7c0-0.1 0.1-0.2 0.2-0.1c0.1 0 0.2 0.1 0.2 0.2l-0.8 6.6c-0.1 0.1-0.1 0.2-0.2 0.2z" /><path class="s69" d="m63.2 300.5l7.3 36.6l-8.6 2.3l-2.7-12.5l-7 26.8c-0.2 0.8-1 1.3-1.8 1.2l-29-5c-0.7-0.1-1.2-0.8-1-1.5c4.5-21.4 14.1-39.5 14.1-39.5c-2.5-12.5 15-14 15-14c12.7 0.2 13.7 5.6 13.7 5.6z" /><path class="s70" d="m59.3 325.7q0 0 0 0c-0.2 0-0.2-0.2-0.2-0.3l2.4-11.1c0-0.1 0.1-0.2 0.3-0.2c0.1 0.1 0.2 0.2 0.1 0.3l-2.4 11.1c0 0.1-0.1 0.2-0.2 0.2z" /><path class="s71" d="m63.6 362.6h-16.9l-4.8-22c1.2 0.1 5 0.3 7.6-1l2.1 18.7c0.1 0.4 0.5 0.7 0.9 0.6l2-0.5c1.1-0.3 2.1-0.1 3 0.4z" /><path class="s72" d="m85.1 317l-11.3 21.7c-1.8 3.5-6.3 4.5-9.5 2.3l-2.4-1.6l20.8-25.5c0.7-1.6 2.1-3.6 4.5-4.8c4.1-2.1 7-3.4 7-3.4c0 0 0.5 2.4-1.6 3.2c-2.1 0.8-2 1.9-2 1.9l9.2 3.8c1 0.3 1.7 1.1 2 2.1l0.5 1.7c-5.8 0.7-11.5 0.3-17.2-1.4z" /><path class="s73" d="m60.7 291.9l-2.7 8.6c-3.5 1.3-8.2-2.5-8.2-2.5l5.3-15c3.5-1.6 5.6 8.9 5.6 8.9z" /><path class="s74" d="m71.2 277.6c0 0.3-5.2 14.7-5.2 14.7l-8.2-3.2l2.9-14.3c0 0 10.5-1 10.5 2.8z" /><path class="s75" d="m62.1 278.3l-2.1 7.4q0 0.2 0 0.3c0 0.6 0.1 2.7 2.3 2.4c1.9-0.2 3.7-0.5 4.8 0.1c0.5 0.2 0.7 0.8 0.5 1.3c-0.4 1.3-1.5 4.3-2.9 6.7c-0.3 0.4-0.9 0.6-1.4 0.4c-1.5-0.7-4.7-2.3-7-4.1c-0.3-0.3-0.4-0.7-0.4-1.1c0.4-1.9 1.5-7.7 1.5-9.3c0.1-1.6-1.7-2.8-2.5-3.2c-0.2-0.2-0.4-0.4-0.5-0.7c-0.2-1-0.4-3.3 2.5-3.8c0.6-0.1 1-0.6 0.9-1.2c-0.3-1.2-0.2-3 2.1-3.7c2.3-0.6 3.7 0.8 4.5 1.8c0.3 0.5 0.9 0.6 1.3 0.4c0.3-0.1 0.6-0.1 1 0.2c0.5 0.4 1.2 0.2 1.5-0.3c0.7-1 2-2 4-1.3c3.7 1.2 3.5 5.5 2.2 7.8c-1.4 2.3-5.3 0.8-7.1-0.8c-1.5-1.1-3.6-0.4-4.6 0c-0.3 0.1-0.5 0.3-0.6 0.7z" /><path class="s76" d="m53.6 281.8c-0.1-3.2 2.4-3.4 3.8-2.1c1.5 1.3-0.7 5.4-0.7 5.4c0 0-3 0.7-3.1-3.3z" /><path class="s70" d="m43.6 340.9c-1.2 0-2-0.1-2.1-0.1h-0.2l-6.3-29.6c-0.1-0.1 0-0.2 0.1-0.3c0.1 0 0.3 0.1 0.3 0.2l6.3 29.3c0.9 0.1 6 0.4 8.6-1.5l-5.5-25.7l1.2-2.2c0-0.1 0.2-0.1 0.3-0.1c0.1 0.1 0.1 0.2 0 0.3l-1 2.1l5.5 25.8l-0.1 0.1c-1.9 1.4-5 1.7-7.1 1.7z" /><path class="s77" d="m51.8 439.2q-0.2 0-0.5-0.1c-0.6-0.3-0.9-1.1-0.6-1.8l26.2-66.6c0.3-0.7 1-1 1.6-0.7c0.7 0.3 1 1.1 0.7 1.8l-26.2 66.6c-0.2 0.5-0.7 0.8-1.2 0.8z" /><path class="s77" d="m81.4 439.2c-0.5 0-1-0.3-1.2-0.8l-26.2-66.6c-0.3-0.7 0-1.5 0.6-1.8c0.7-0.3 1.4 0 1.7 0.7l26.2 66.6c0.3 0.7 0 1.5-0.6 1.8q-0.3 0.1-0.5 0.1z" /><path class="s77" d="m163.5 439.2q-0.3 0-0.5-0.1c-0.7-0.3-0.9-1.1-0.7-1.8l26.3-66.6c0.2-0.7 1-1 1.6-0.7c0.6 0.3 0.9 1.1 0.7 1.8l-26.3 66.6c-0.2 0.5-0.6 0.8-1.1 0.8z" /><path class="s77" d="m193 439.2c-0.5 0-0.9-0.3-1.1-0.8l-26.3-66.6c-0.2-0.7 0.1-1.5 0.7-1.8c0.6-0.3 1.4 0 1.6 0.7l26.3 66.6c0.3 0.7 0 1.5-0.7 1.8q-0.2 0.1-0.5 0.1z" /><path class="s77" d="m145.9 394.3h3.1v33.6h-3.1z" /><path class="s77" d="m161 428.5h-27.1v-0.1c0-1.1 0.8-1.9 1.8-1.9h23.3c1.1 0 2 0.9 2 2z" /><path class="s77" d="m130.9 391.7c0-2.7 2.2-4.9 4.8-4.9h24.5c2.7 0 4.8 2.2 4.8 4.9c0 2.6-2.1 4.8-4.8 4.8h-24.5c-2.6 0-4.8-2.2-4.8-4.8z" /><path class="s78" d="m135.6 386.1l-11.1 0.5c0 0 3.9 4.2 3.7 10.2l0.2 13.5c0 1.6 1.1 3 2.6 3.5l2 0.6l-4.6 12.6h-7l2.7-2.5l1.5-6.8c0.2-0.9 0-1.9-0.4-2.7c-8.4-15.6-11-31.5-11.6-36.4c-0.1-1 0.3-1.9 1.1-2.4c5.2-3.5 9.8-4.2 9.8-4.2z" /><path class="s79" d="m122.2 425.9c0 0 3.4 1.1 5.2-0.1c1.9-1.2 3.6-12 3.6-12c3.1-0.2 3.5 0.7 3.5 0.7c0 4.7-5.2 13.8-5.2 13.8c-3.8 1.9-11.3 0.8-10.6-0.1c0.9-1.2 3.5-2.3 3.5-2.3z" /><path class="s80" d="m134.2 386.8c0-0.1-12-1.4-12-1.4c0 0 0.4 3.6-0.8 8.6c-1.2 5-18.8 26.7-18.8 26.7l1.9 5.8q-8.6 3-16.8 1l11.4-6.8c0 0 10.7-36.4 17.2-42.9l12-4.1z" /><path class="s81" d="m161 365.7c0 0 6.9 10.2 7.5 14.9c0.5 4.6-1.9 6.5-9.1 6.9c-7.3 0.3-26.5 0.3-26.5 0.3l-16.5-14.1c0 0 12-4.3 15.1-5.5c3.1-1.2 29.5-2.5 29.5-2.5z" /><path class="s82" d="m103.8 424.5c0 0 2 2 0.6 4.1c0 0-15.7 2.8-19.9 1.5c0 0 0.9-2 5.7-4.3l-0.4 0.3c-0.4 0.3-0.2 1 0.4 1c3.1-0.2 9.7-0.8 13.6-2.6z" /><path class="s83" d="m147.1 308.2c1 0.3 4.8 1.6 4.3 4c-0.1 0.4 0.3 0.6 0.6 0.6c1.6-0.5 5.1-1 7.4 1.7c1.9 2.5 0.5 4.8-0.7 6.1c-0.3 0.3-0.1 0.8 0.3 0.7c3-0.4 9.5-0.4 10.5 5.6c1 5.6-2.9 7.2-5.3 7.7c-0.3 0-0.4 0.6-0.1 0.8c1.2 0.7 2.5 2.2 2 5.2c-0.9 4.7-10.1 4.4-11.2 4.3q-0.1 0-0.2-0.1l-14.8-8.4q-0.1-0.1-0.2-0.3l-3-17.2q0-0.3 0.1-0.4l9.9-10.2c0.1-0.1 0.2-0.2 0.4-0.1z" /><path class="s84" d="m142.4 364.3c0 0-8-7.6-12-12.7c-2.1-2.7-2.8-6.3-1.8-9.6c1.8-6.1 5-12.4 5.3-13.4c0.5-1.5 9.5-1.4 9.5-1.4c0 0 17.6 11.5 24.6 30.9l-7.8 2.5c0 0-4.6-7.8-9.2-12.7c0 0 7.9 10.4 8.2 14.7z" /><path class="s85" d="m139 319.1l3.9 8.3c-2.3 1.5-7.3 1.3-7.4 1.1c-0.2-0.1-2.6-7.9-2.7-8.2z" /><path class="s86" d="m142.6 317.6c-4.3 3.9-8.4 4-11.1 3.6c-2.7-0.4-4.8-3.2-1.9-9.4c2.9-6.1 7.1-7.9 7.1-7.9c5.5-2.1 10.1 9.7 5.9 13.7z" /><path class="s87" d="m139.7 314.3c0 0 3.2-9-4.8-9.1l-1.8 1.3c0 0-2.9-4.9 1.8-7.3c4.8-2.4 10.4-0.4 12.5 6c2 6.5 2.3 10.8-1 13.9c-3.4 3-4.8-0.5-4.8-0.5c0 0 1.8-2.8 1.1-4.4c-0.8-1.5-2.5 0.3-2.5 0.3z" /><path class="s88" d="m139.9 315.6c0 0 1.6-4.6 3.8-2.8c2.1 1.9-1.8 4.3-3.3 5.1z" /><path class="s89" d="m126.1 364.9l5.9-5.7l8.1 3.4c0 0 8.1 1.3 12.8 0l4.6-1.2l10.5-3.3l1.6 4.7c0.5 1.2 0 2.5-1 3.2c-0.9 0.6-2 1.4-2.6 1.7c-1.4 0.6-34.1-0.5-34.1-0.5z" /><path class="s90" d="m148.4 367.6q-0.1 0-0.1 0l-34.2-0.1c-0.8 0-1.5-0.7-1.5-1.5c0-0.9 0.7-1.5 1.5-1.5h34.2c0.8 0 1.5 0.7 1.5 1.5c0 0.9-0.6 1.5-1.4 1.6z" /><path class="s91" d="m83.4 336.5h28.5c2.1 0 4 1.3 4.9 3.2l13.1 27.8h-35.3c-1.4 0-2.6-0.8-3.1-2l-10.2-25.8c-0.6-1.5 0.5-3.2 2.1-3.2z" /><path class="s2" d="m79.9 366.5h-33.7v-3.5h33.7c-0.8 0-0.8 3.5 0 3.5z" /><path class="s61" d="m80.5 366.5c0.2 0 0.4 0.1 0.4 0.3v0.1c0 0.2-0.2 0.4-0.4 0.4h-36.3c-0.7 0-1.3-0.7-1.3-1.4v-2.2c0-0.8 0.6-1.5 1.4-1.5h36.2c0.2 0 0.4 0.2 0.4 0.4v0.1c0 0.1-0.2 0.3-0.4 0.3h-33.9c-0.2 0-0.4 0.2-0.4 0.3v2.8c0 0.2 0.2 0.4 0.4 0.4z" /><path class="s62" d="m195.3 372.5c-0.2 0.7-0.9 1.2-1.7 1.2h-150.6c-1 0-1.8-0.5-2.2-1.2l-1.6-3.1c-0.3-0.5-0.2-1 0.1-1.5c0.3-0.4 0.9-0.7 1.5-0.7h153.8c0.5 0 0.9 0.2 1.2 0.5c0.3 0.3 0.4 0.7 0.3 1.1z" /><g style="opacity: .5"><path fill-rule="evenodd" class="s62" d="m215.9 77.3q-0.3-0.1-0.6-0.3l-6-5.9c-0.6-0.5-0.7-1.4-0.4-2.1l2.7-5.7c-1.6-2.6-2.8-5.4-3.6-8.3l-6.1-2c-0.7-0.2-1.2-0.9-1.2-1.7l-0.1-8.4c0-0.8 0.4-1.5 1.2-1.8l6-2.1c0.7-3 1.8-5.8 3.3-8.4l-2.9-5.7c-0.4-0.7-0.2-1.5 0.3-2.1l5.9-6c0.5-0.6 1.3-0.7 2-0.4l5.8 2.7c2.6-1.6 5.4-2.8 8.3-3.6l2-6.1c0.2-0.7 0.9-1.2 1.6-1.2l8.5-0.1c0.8 0 1.5 0.4 1.7 1.2l2.2 6c2.9 0.7 5.7 1.8 8.4 3.3l5.7-2.9c0.6-0.4 1.5-0.2 2 0.3l6.1 5.9c0.6 0.5 0.7 1.3 0.4 2l-2.7 5.8c1.6 2.6 2.8 5.4 3.6 8.3l6 2c0.8 0.2 1.3 0.9 1.3 1.6l0.1 8.5c0 0.8-0.5 1.5-1.2 1.7l-6 2.2c-0.7 2.9-1.8 5.7-3.3 8.4l2.9 5.7c0.3 0.6 0.2 1.5-0.3 2l-5.9 6.1c-0.5 0.6-1.4 0.7-2.1 0.4l-5.7-2.7q-3.9 2.4-8.3 3.6l-2 6c-0.2 0.8-0.9 1.3-1.7 1.3l-8.4 0.1c-0.8 0-1.5-0.5-1.8-1.2l-2.1-6q-4.4-1-8.4-3.3l-5.7 2.9c-0.5 0.2-1 0.2-1.5 0zm-4.6-7.6l5.4 5.2l6.5-3.3l0.6 0.4c2.7 1.6 5.7 2.8 8.9 3.5l0.6 0.1l2.5 6.8l7.5-0.1l2.3-6.9l0.6-0.1c3.1-0.8 6.1-2.1 8.8-3.8l0.6-0.4l6.6 3.1l5.2-5.4l-3.3-6.5l0.4-0.6c1.6-2.8 2.8-5.8 3.5-8.9l0.1-0.6l6.8-2.5l-0.1-7.6l-6.9-2.2l-0.1-0.7c-0.8-3.1-2.1-6-3.8-8.7l-0.4-0.6l3.1-6.6l-5.4-5.2l-6.5 3.3l-0.6-0.4c-2.8-1.6-5.8-2.8-8.9-3.5l-0.6-0.1l-2.5-6.9l-7.6 0.2l-2.2 6.9l-0.7 0.1c-3.1 0.8-6 2.1-8.7 3.8l-0.6 0.4l-6.6-3.1l-5.2 5.4l3.3 6.5l-0.4 0.6c-1.6 2.7-2.8 5.7-3.5 8.9l-0.1 0.6l-6.9 2.5l0.2 7.5l6.9 2.3l0.1 0.6c0.8 3.1 2.1 6.1 3.8 8.8l0.4 0.6zm19.1-3.4c-7.6-3.2-13.1-10.7-13.2-19.6c-0.1-5.7 2.1-11.2 6.1-15.4c4-4.1 9.4-6.4 15.2-6.5c11.9-0.2 21.8 9.3 22 21.2q0 2.4-0.5 4.6c-0.1 0.7-0.7 1.1-1.4 1c-0.7-0.1-1.1-0.8-1-1.4q0.4-2.1 0.4-4.1c-0.2-10.6-8.9-19-19.5-18.9c-5.1 0.1-9.9 2.2-13.4 5.9c-3.6 3.6-5.5 8.5-5.4 13.6c0.1 10.6 8.9 19 19.4 18.9c3.5-0.1 6.9-1.1 9.8-2.9c0.6-0.4 1.4-0.2 1.7 0.4c0.4 0.6 0.2 1.3-0.4 1.7c-3.3 2-7.1 3.2-11 3.2c-3.1 0.1-6.1-0.5-8.8-1.7z" /><path fill-rule="evenodd" class="s62" d="m235.8 54.2c-2.4-1-4.2-3.1-4.9-5.5c-0.5-2.2-0.2-4.4 0.9-6.4c1.1-1.9 2.9-3.3 5-3.9c1.8-0.4 3.7-0.3 5.4 0.4c2.4 1 4.2 3 4.8 5.5c0.6 2.2 0.3 4.4-0.8 6.3c-1.1 2-2.9 3.3-5 3.9c-1.9 0.5-3.7 0.4-5.4-0.3zm5.8-13.9c-1.4-0.6-2.9-0.7-4.4-0.3c-1.7 0.5-3.1 1.6-4 3.2c-0.9 1.5-1.1 3.3-0.7 5c0.6 2 2 3.6 3.9 4.5c1.4 0.5 2.9 0.6 4.3 0.2c1.8-0.4 3.2-1.5 4.1-3.1c0.9-1.5 1.1-3.3 0.6-5.1c-0.5-2-1.9-3.6-3.8-4.4z" /><path class="s62" d="m264.3 84.2q0 0-0.1-0.1c0 0 0-0.2 0.1-0.2q0.4-0.3 0.8-0.6c0.1-0.1 0.2-0.1 0.3 0c0.1 0.1 0 0.2 0 0.3q-0.5 0.3-0.9 0.6q-0.1 0.1-0.2 0z" /><path class="s62" d="m221.3 88.5q-0.2-0.1-0.4-0.2c-0.1-0.1-0.2-0.2-0.1-0.3c0-0.1 0.2-0.1 0.3-0.1q0.2 0.1 0.4 0.2q0.7 0.3 1.5 0.6c0.1 0 0.1 0.1 0.1 0.2c-0.1 0.1-0.2 0.2-0.3 0.2q-0.7-0.3-1.5-0.6zm-2.3-1.1q0 0 0 0q-0.9-0.5-1.8-0.9c-0.1-0.1-0.2-0.2-0.1-0.3c0-0.1 0.2-0.2 0.3-0.1q0.9 0.5 1.8 0.9c0.1 0.1 0.1 0.2 0.1 0.3c-0.1 0.1-0.2 0.2-0.3 0.1zm5.8 2.3c-0.1 0-0.2-0.1-0.2-0.2c0.1-0.1 0.2-0.2 0.3-0.1q1 0.3 2 0.6c0.1 0 0.1 0.1 0.1 0.2c0 0.1-0.1 0.2-0.2 0.2q-1-0.3-2-0.6q0-0.1 0-0.1zm-9.4-4.3q0 0 0 0q-0.9-0.5-1.8-1.1c-0.1-0.1-0.1-0.2 0-0.3c0-0.1 0.1-0.1 0.2 0q0.9 0.5 1.8 1.1c0.1 0 0.1 0.1 0 0.2c0 0.1-0.1 0.2-0.2 0.1zm13.3 5.5c0-0.1-0.1-0.2-0.1-0.3c0-0.1 0.2-0.2 0.3-0.1q1 0.2 2 0.4c0.1 0 0.2 0.1 0.1 0.2c0 0.1-0.1 0.2-0.2 0.2q-1-0.2-2-0.4q0 0-0.1 0zm-16.7-7.8q-0.1 0-0.1 0q-0.8-0.6-1.6-1.3c-0.1 0-0.1-0.2-0.1-0.3c0.1 0 0.2-0.1 0.3 0q0.8 0.7 1.7 1.3c0 0 0.1 0.2 0 0.3q-0.1 0.1-0.2 0zm20.8 8.5q-0.1-0.1-0.1-0.2c0-0.1 0.1-0.2 0.2-0.2q1 0.1 2.1 0.2c0.1 0.1 0.2 0.2 0.1 0.3c0 0.1-0.1 0.2-0.2 0.1q-1 0-2-0.2q-0.1 0-0.1 0zm-24.1-11.1q0 0 0 0q-0.8-0.7-1.5-1.4c-0.1-0.1-0.1-0.2 0-0.3c0-0.1 0.2-0.1 0.3 0q0.7 0.7 1.5 1.4c0 0.1 0.1 0.2 0 0.3q-0.1 0.1-0.3 0zm28.2 11.5q-0.1-0.1-0.1-0.2c0-0.1 0.1-0.2 0.2-0.2q1 0 2.1 0c0.1 0 0.2 0.1 0.2 0.2c0 0.1-0.1 0.2-0.2 0.2q-1.1 0-2.1 0q0 0-0.1 0zm-31.1-14.4q-0.1 0-0.1 0q-0.7-0.8-1.4-1.6c0 0 0-0.2 0.1-0.2c0-0.1 0.2-0.1 0.2 0q0.7 0.8 1.4 1.5c0.1 0.1 0.1 0.2 0 0.3q-0.1 0.1-0.2 0zm35.3 14.4q-0.1-0.1-0.2-0.2c0-0.1 0.1-0.2 0.2-0.2q1.1-0.1 2.1-0.2c0.1 0 0.2 0.1 0.2 0.2c0 0.1-0.1 0.2-0.2 0.2q-1 0.1-2 0.2q-0.1 0-0.1 0zm-38-17.5q0 0-0.1-0.1q-0.6-0.8-1.2-1.6c-0.1-0.1-0.1-0.3 0-0.3c0.1-0.1 0.3-0.1 0.3 0q0.6 0.9 1.2 1.7c0.1 0.1 0.1 0.2 0 0.3q-0.1 0-0.2 0zm42.1 17.1q-0.1-0.1-0.1-0.2c-0.1-0.1 0-0.2 0.1-0.2q1-0.2 2.1-0.4c0.1 0 0.2 0.1 0.2 0.2c0 0.1-0.1 0.2-0.2 0.2q-1 0.2-2 0.4q-0.1 0-0.1 0zm-44.5-20.5q0 0-0.1-0.1q-0.5-0.8-1.1-1.7c0-0.1 0-0.3 0.1-0.3c0.1-0.1 0.2 0 0.3 0.1q0.5 0.9 1.1 1.7c0 0.1 0 0.2-0.1 0.3q-0.1 0.1-0.2 0zm48.5 19.7q0 0-0.1-0.1c0-0.1 0.1-0.3 0.2-0.3q0.7-0.2 1.4-0.3q0.3-0.1 0.6-0.2c0.1 0 0.2 0 0.2 0.1c0.1 0.2 0 0.3-0.1 0.3q-0.3 0.1-0.6 0.1q-0.7 0.2-1.4 0.4q-0.1 0-0.2 0zm-50.5-23.3q-0.1 0-0.2 0q-0.4-1-0.9-1.9c0-0.1 0-0.2 0.1-0.3c0.1 0 0.3 0 0.3 0.1q0.4 1 0.9 1.9c0.1 0.1 0 0.2-0.1 0.2q-0.1 0.1-0.1 0zm54.5 22.2q-0.1-0.1-0.1-0.1c0-0.2 0-0.3 0.1-0.3q1-0.3 2-0.7c0.1 0 0.2 0 0.2 0.1c0.1 0.1 0 0.2-0.1 0.3q-0.9 0.4-1.9 0.7q-0.1 0-0.2 0zm-56.3-25.9q-0.1 0-0.1-0.1q-0.4-1-0.7-2c-0.1-0.1 0-0.2 0.1-0.2c0.1-0.1 0.2 0 0.3 0.1q0.3 1 0.7 1.9c0 0.1 0 0.3-0.1 0.3q-0.1 0-0.2 0zm60.2 24.4q-0.1 0-0.1-0.1c-0.1-0.1 0-0.2 0.1-0.3q0.9-0.4 1.8-0.8c0.1-0.1 0.3-0.1 0.3 0.1c0.1 0.1 0 0.2-0.1 0.2q-0.9 0.5-1.9 0.9q0 0-0.1 0zm-61.6-28.3q0 0-0.1-0.1q-0.2-0.7-0.4-1.5q-0.1-0.2-0.1-0.5c-0.1-0.1 0-0.3 0.1-0.3c0.1 0 0.2 0.1 0.3 0.2q0 0.2 0.1 0.5q0.2 0.7 0.4 1.4c0 0.2 0 0.3-0.1 0.3q-0.1 0-0.2 0zm65.3 26.5q-0.1-0.1-0.1-0.1c-0.1-0.1 0-0.2 0.1-0.3q0.9-0.5 1.8-1c0-0.1 0.2-0.1 0.2 0c0.1 0.1 0.1 0.3 0 0.3q-0.9 0.6-1.8 1.1q-0.1 0-0.2 0zm-66.3-30.5q-0.1-0.1-0.1-0.2q-0.2-1-0.4-2c0-0.1 0.1-0.2 0.2-0.2c0.1-0.1 0.2 0 0.2 0.1q0.2 1.1 0.4 2.1c0 0.1-0.1 0.2-0.2 0.2q0 0-0.1 0zm-0.6-4.1q-0.2 0-0.2-0.2q-0.1-1-0.2-2c0-0.1 0.1-0.2 0.2-0.2c0.1-0.1 0.2 0 0.2 0.1q0.1 1.1 0.2 2.1c0.1 0.1 0 0.2-0.1 0.2q-0.1 0-0.1 0zm-0.3-4.1q-0.1-0.1-0.2-0.2q0-1 0-2.1c0-0.1 0.1-0.2 0.3-0.2c0.1 0 0.2 0.1 0.2 0.2q-0.1 1.1 0 2.1c0 0.1-0.1 0.2-0.2 0.2q-0.1 0-0.1 0zm0.1-4.2q-0.2 0-0.2-0.2q0.1-1 0.2-2c0-0.1 0.1-0.2 0.3-0.2c0.1 0 0.2 0.1 0.1 0.2q-0.1 1-0.2 2.1c0 0.1-0.1 0.2-0.2 0.2q0 0 0-0.1zm0.4-4.1q-0.1 0-0.1-0.2q0.2-1 0.4-2c0-0.1 0.1-0.2 0.2-0.2c0.1 0 0.2 0.1 0.2 0.3q-0.2 1-0.4 2c0 0.1-0.1 0.2-0.2 0.2q0-0.1-0.1-0.1z" /><path class="s62" d="m195 35.4c-0.1-0.1-0.2-0.2-0.1-0.3q0.1-0.5 0.2-1c0.1-0.1 0.2-0.1 0.3-0.1c0.1 0 0.2 0.1 0.1 0.3q-0.1 0.4-0.2 0.9c-0.1 0.1-0.2 0.2-0.3 0.2q0 0 0 0z" /><path class="s62" d="m215.9 7.6q-0.1 0-0.1-0.1c-0.1-0.1-0.1-0.2 0-0.2q0.5-0.3 0.9-0.6c0.1 0 0.2 0 0.3 0.1c0.1 0.1 0 0.2-0.1 0.3q-0.4 0.3-0.9 0.5q-0.1 0.1-0.1 0z" /><path class="s62" d="m282.8 58c-0.1 0-0.2-0.1-0.1-0.2q0.2-1 0.4-2c0.1-0.1 0.2-0.2 0.3-0.2c0.1 0.1 0.2 0.2 0.1 0.3q-0.2 1-0.4 2c-0.1 0.1-0.2 0.2-0.3 0.1q0 0 0 0zm0.8-4q-0.1 0-0.1-0.2q0.2-1 0.3-2c0-0.1 0.1-0.2 0.2-0.2c0.1 0 0.2 0.1 0.2 0.3q-0.1 1-0.3 2c0 0.1-0.1 0.2-0.2 0.1q0 0-0.1 0zm0.5-4q-0.1-0.1-0.1-0.2q0.1-1 0.1-2c0-0.1 0.1-0.2 0.2-0.2c0.1 0 0.2 0.1 0.2 0.2q0 1-0.1 2c0 0.1-0.1 0.2-0.2 0.2q-0.1 0-0.1 0zm0.1-4.1q-0.1 0-0.1-0.2q0-1-0.1-2c0-0.1 0.1-0.2 0.2-0.2c0.1 0 0.2 0.1 0.2 0.2q0.1 1 0.1 2c0 0.1-0.1 0.2-0.2 0.2q0 0-0.1 0zm-0.2-4q-0.1-0.1-0.1-0.2q-0.2-1-0.3-2c0-0.1 0-0.2 0.2-0.2c0.1-0.1 0.2 0 0.2 0.1q0.2 1 0.3 2c0 0.2-0.1 0.3-0.2 0.3q-0.1 0-0.1 0zm-0.6-4.1q-0.1 0-0.2-0.1q-0.2-1-0.4-2c0-0.1 0-0.2 0.1-0.2c0.2-0.1 0.3 0 0.3 0.1q0.2 1 0.4 2c0.1 0.1 0 0.2-0.1 0.3q-0.1 0-0.1-0.1zm-1-3.9q-0.1-0.1-0.1-0.1q-0.3-1-0.6-2c-0.1-0.1 0-0.2 0.1-0.2c0.1-0.1 0.2 0 0.2 0.1q0.4 1 0.7 1.9c0 0.1-0.1 0.3-0.2 0.3q0 0-0.1 0zm-63.9-27.7q0-0.1-0.1-0.1c0-0.1 0-0.3 0.1-0.3q0.9-0.5 1.9-0.9c0.1 0 0.2 0 0.2 0.1c0.1 0.1 0 0.2-0.1 0.3q-0.9 0.4-1.8 0.9q-0.1 0-0.2 0zm62.6 23.8q-0.1 0-0.1-0.1q-0.4-0.9-0.8-1.8c-0.1-0.1 0-0.3 0.1-0.3c0.1-0.1 0.2 0 0.2 0.1q0.5 0.9 0.8 1.9c0.1 0.1 0 0.2-0.1 0.2q-0.1 0.1-0.1 0zm-58.8-25.5q-0.1 0-0.2-0.1c0-0.1 0.1-0.2 0.2-0.3q0.9-0.3 1.9-0.7c0.1 0 0.2 0 0.2 0.1c0.1 0.2 0 0.3-0.1 0.3q-0.9 0.3-1.9 0.7q-0.1 0-0.1 0zm57.1 21.8q-0.1 0-0.1-0.1q-0.4-0.9-0.9-1.8c-0.1-0.1-0.1-0.2 0-0.2c0.1-0.1 0.3-0.1 0.3 0q0.5 0.9 1 1.8c0 0.1 0 0.3-0.1 0.3q-0.1 0.1-0.2 0zm-53.3-23.1q-0.1-0.1-0.1-0.1c0-0.2 0-0.3 0.1-0.3q0.5-0.1 1-0.3q0.5-0.1 1-0.2c0.1-0.1 0.2 0 0.3 0.1c0 0.1-0.1 0.2-0.2 0.3q-0.5 0.1-1 0.2q-0.5 0.1-1 0.3q0 0-0.1 0zm51.3 19.6q0-0.1-0.1-0.1q-0.5-0.9-1.1-1.7c0-0.1 0-0.2 0.1-0.3c0.1-0.1 0.2 0 0.3 0.1q0.5 0.8 1.1 1.7c0 0.1 0 0.2-0.1 0.3q-0.1 0-0.2 0zm-47.3-20.6q-0.1 0-0.2-0.1c0-0.1 0.1-0.3 0.2-0.3q1-0.2 2-0.3c0.1-0.1 0.2 0 0.2 0.1c0.1 0.1 0 0.3-0.1 0.3q-1 0.1-2 0.3q-0.1 0-0.1 0zm45 17.2q0 0-0.1 0q-0.6-0.9-1.2-1.6c-0.1-0.1-0.1-0.3 0-0.3c0.1-0.1 0.2-0.1 0.3 0q0.7 0.8 1.3 1.6c0 0.1 0 0.2-0.1 0.3q-0.1 0.1-0.2 0zm-41-17.8q-0.1-0.1-0.1-0.2c-0.1-0.1 0-0.2 0.1-0.2q1.1-0.1 2.1-0.2c0.1 0 0.2 0.1 0.2 0.2c0 0.1-0.1 0.2-0.2 0.2q-1 0.1-2 0.2q-0.1 0-0.1 0zm38.4 14.7q0 0 0-0.1q-0.7-0.7-1.4-1.4c-0.1-0.1-0.1-0.3 0-0.3c0.1-0.1 0.2-0.1 0.3 0q0.7 0.7 1.4 1.5c0.1 0 0 0.2 0 0.2q-0.1 0.1-0.3 0.1zm-34.4-15q-0.1 0-0.1-0.1c0-0.2 0.1-0.3 0.2-0.3q1 0 2.1 0.1c0.1 0 0.2 0.1 0.2 0.2c0 0.1-0.1 0.2-0.2 0.2q-1.1-0.1-2.1 0q0 0-0.1-0.1zm31.6 12.1q-0.1 0-0.1 0q-0.7-0.7-1.5-1.4c-0.1-0.1-0.1-0.2 0-0.3c0.1-0.1 0.2-0.1 0.3 0q0.7 0.7 1.5 1.4c0.1 0 0.1 0.2 0 0.2q-0.1 0.1-0.2 0.1zm-27.5-11.9q-0.1-0.1-0.1-0.3c0-0.1 0.1-0.1 0.2-0.1q1 0 2 0.2c0.2 0 0.2 0.1 0.2 0.2c0 0.1-0.1 0.2-0.2 0.2q-1-0.2-2-0.2q-0.1 0-0.1 0zm24.4 9.3q-0.1 0-0.1-0.1q-0.8-0.6-1.6-1.2c-0.1 0-0.1-0.1-0.1-0.2c0.1-0.1 0.2-0.2 0.3-0.1q0.9 0.6 1.7 1.2c0.1 0.1 0.1 0.2 0 0.3q-0.1 0.1-0.2 0.1zm-20.4-8.9q-0.1 0-0.1-0.2c0-0.1 0.2-0.2 0.3-0.2q1 0.2 2 0.4c0.1 0 0.2 0.2 0.1 0.3c0 0.1-0.1 0.1-0.2 0.1q-1-0.2-2-0.4q0 0-0.1 0zm17 6.5q0 0 0 0q-0.8-0.5-1.7-1c-0.1-0.1-0.2-0.2-0.1-0.3c0.1-0.1 0.2-0.1 0.3-0.1q0.9 0.5 1.7 1.1c0.1 0 0.2 0.2 0.1 0.3c-0.1 0-0.2 0.1-0.3 0zm-13-5.6c-0.1-0.1-0.1-0.2-0.1-0.3c0-0.1 0.2-0.1 0.3-0.1q1 0.2 1.9 0.5c0.1 0.1 0.2 0.2 0.2 0.3c-0.1 0.1-0.2 0.2-0.3 0.1q-1-0.3-1.9-0.5q-0.1 0-0.1 0zm9.5 3.6q0 0 0 0q-0.9-0.5-1.8-0.9c-0.1 0-0.2-0.2-0.1-0.3c0-0.1 0.2-0.1 0.3-0.1q0.9 0.5 1.8 0.9c0.1 0.1 0.1 0.2 0.1 0.3c-0.1 0.1-0.2 0.1-0.3 0.1zm-5.6-2.4c-0.1-0.1-0.1-0.2-0.1-0.3c0-0.1 0.2-0.1 0.3-0.1q0.9 0.3 1.9 0.7c0.1 0.1 0.1 0.2 0.1 0.3c-0.1 0.1-0.2 0.1-0.3 0.1q-0.9-0.4-1.9-0.7z" /><path class="s62" d="m281.9 61c-0.1-0.1-0.1-0.2-0.1-0.3q0.2-0.5 0.3-1c0-0.1 0.2-0.1 0.3-0.1c0.1 0 0.1 0.2 0.1 0.3q-0.1 0.5-0.3 0.9c0 0.2-0.2 0.2-0.3 0.2q0 0 0 0z" /></g><g style="opacity: .5"><path fill-rule="evenodd" class="s62" d="m157.6 86.1q-0.2 0-0.4-0.2l-2.7-2.7c-0.4-0.3-0.5-0.8-0.3-1.2l1.2-2.5q-1-1.7-1.5-3.5l-2.6-0.9c-0.5-0.1-0.8-0.5-0.8-1l-0.1-3.8c0-0.5 0.3-0.9 0.8-1.1l2.5-0.9q0.5-1.9 1.5-3.6l-1.3-2.5c-0.2-0.4-0.1-0.9 0.2-1.2l2.7-2.8c0.3-0.3 0.8-0.4 1.2-0.2l2.5 1.2q1.7-1 3.6-1.6l0.8-2.6c0.2-0.4 0.6-0.7 1-0.7l3.9-0.1c0.4 0 0.9 0.3 1 0.7l1 2.6q1.8 0.5 3.6 1.4l2.4-1.2c0.4-0.2 0.9-0.2 1.3 0.2l2.7 2.6c0.3 0.4 0.4 0.9 0.2 1.3l-1.1 2.5q1 1.6 1.5 3.5l2.6 0.9c0.5 0.1 0.8 0.5 0.8 1v3.8c0 0.5-0.2 0.9-0.7 1.1l-2.6 0.9q-0.4 1.9-1.4 3.6l1.3 2.5c0.2 0.4 0.1 0.9-0.2 1.2l-2.7 2.8c-0.3 0.3-0.8 0.4-1.2 0.2l-2.5-1.2q-1.7 1-3.6 1.6l-0.8 2.6c-0.2 0.4-0.6 0.7-1.1 0.7l-3.8 0.1c-0.5 0-0.9-0.3-1-0.7l-1-2.6q-1.9-0.5-3.6-1.4l-2.4 1.2c-0.3 0.2-0.7 0.2-0.9 0zm-1.7-3.8l2.2 2.2l2.9-1.5l0.4 0.2q1.8 1.1 3.9 1.6l0.5 0.1l1.1 3h3l1-3.1l0.5-0.1q2.1-0.5 3.9-1.7l0.3-0.2l3 1.3l2.1-2.2l-1.5-2.9l0.3-0.3q1.1-1.9 1.5-4l0.1-0.4l3.1-1.1l-0.1-3.1l-3-1l-0.2-0.4q-0.5-2.1-1.6-3.9l-0.3-0.4l1.4-3l-2.2-2.1l-2.9 1.5l-0.4-0.2q-1.8-1.1-3.9-1.6l-0.5-0.1l-1.1-3.1l-3 0.1l-1 3.1l-0.5 0.1q-2.1 0.5-3.9 1.7l-0.4 0.2l-2.9-1.4l-2.1 2.2l1.4 2.9l-0.2 0.4q-1.1 1.9-1.6 4l-0.1 0.4l-3 1.1v3.1l3.1 1l0.1 0.4q0.6 2.1 1.7 3.9l0.3 0.4zm8.2-1.2q-1.7-0.7-3.1-2.1c-1.9-1.8-3-4.4-3-7c-0.1-2.7 0.9-5.3 2.8-7.2c1.9-2 4.4-3 7.1-3.1c5.6-0.1 10.1 4.4 10.2 9.9q0 1.1-0.2 2.2c0 0.4-0.5 0.7-0.9 0.6c-0.5-0.1-0.8-0.5-0.7-1q0.2-0.8 0.2-1.7c-0.1-4.7-3.9-8.4-8.6-8.3c-2.2 0-4.3 0.9-5.9 2.5c-1.6 1.6-2.4 3.8-2.4 6c0.1 2.3 1 4.4 2.6 6c1.6 1.5 3.7 2.4 6 2.3c1.5 0 3-0.4 4.3-1.2c0.4-0.3 0.9-0.2 1.1 0.2c0.3 0.4 0.2 0.9-0.2 1.2c-1.6 0.9-3.4 1.4-5.2 1.5c-1.4 0-2.8-0.3-4.1-0.8z" /><path fill-rule="evenodd" class="s62" d="m166.5 75.8c-1.2-0.5-2.1-1.5-2.4-2.8c-0.6-2.3 0.7-4.6 2.9-5.2c1-0.2 1.9-0.2 2.8 0.2c1.2 0.5 2.1 1.5 2.4 2.8c0.3 1.1 0.2 2.2-0.4 3.2c-0.6 1-1.5 1.7-2.6 2c-0.9 0.2-1.8 0.2-2.7-0.2zm2.6-6.3q-0.8-0.3-1.6-0.1c-1.4 0.4-2.2 1.8-1.9 3.2c0.3 0.7 0.8 1.4 1.5 1.7q0.9 0.3 1.7 0.1c0.7-0.2 1.2-0.6 1.6-1.2c0.3-0.6 0.4-1.3 0.2-2c-0.2-0.8-0.7-1.4-1.5-1.7z" /><path class="s62" d="m179.1 89.4q0 0-0.1-0.1c0 0 0-0.2 0.1-0.2q0.4-0.3 0.8-0.6c0.1-0.1 0.3 0 0.3 0c0.1 0.1 0.1 0.3 0 0.3q-0.4 0.3-0.9 0.6q-0.1 0.1-0.2 0z" /><path class="s62" d="m160.1 91q-0.6-0.2-1.2-0.5c-0.1 0-0.1-0.2-0.1-0.3c0.1-0.1 0.2-0.1 0.3-0.1q0.9 0.5 1.9 0.9c0.1 0 0.2 0.1 0.1 0.2c0 0.1-0.1 0.2-0.2 0.2q-0.4-0.2-0.8-0.4zm2.8 1c-0.1 0-0.2-0.1-0.1-0.2c0-0.2 0.1-0.2 0.2-0.2q1 0.3 2.1 0.4c0.1 0 0.2 0.1 0.1 0.3c0 0.1-0.1 0.1-0.2 0.1q-1-0.1-2.1-0.4q0 0 0 0zm-5.8-2.5q0 0 0 0q-0.9-0.6-1.8-1.3c-0.1 0-0.1-0.2 0-0.2c0.1-0.1 0.2-0.2 0.3-0.1q0.8 0.7 1.7 1.2c0.1 0.1 0.1 0.2 0 0.3c0 0.1-0.1 0.1-0.2 0.1zm10 3.1q-0.2 0-0.2-0.2c0-0.1 0.1-0.2 0.3-0.2q1 0.1 2 0c0.2 0 0.3 0.1 0.3 0.2c0 0.1-0.1 0.2-0.2 0.2q-1.1 0.1-2.2 0q0 0 0 0zm-13.3-5.7q-0.1 0-0.1-0.1q-0.8-0.7-1.4-1.5c-0.1-0.1-0.1-0.2 0-0.3c0.1-0.1 0.2-0.1 0.3 0q0.6 0.8 1.4 1.5c0.1 0.1 0.1 0.3 0 0.3q-0.1 0.1-0.2 0.1zm17.5 5.5q-0.1 0-0.1-0.2c-0.1-0.1 0-0.2 0.1-0.2q1.1-0.2 2.1-0.4c0.1-0.1 0.2 0 0.2 0.1c0 0.1 0 0.2-0.1 0.3q-1.1 0.2-2.1 0.4q-0.1 0-0.1 0zm-20.2-8.7q-0.1-0.1-0.1-0.1q-0.6-0.9-1.1-1.8c-0.1-0.1-0.1-0.3 0-0.3c0.1-0.1 0.3 0 0.3 0.1q0.5 0.9 1.1 1.8c0.1 0.1 0 0.2-0.1 0.2q0 0.1-0.1 0.1zm24.3 7.6q-0.1 0-0.2-0.1c0-0.1 0.1-0.2 0.2-0.3q0.9-0.3 1.9-0.8c0.1-0.1 0.2 0 0.2 0.1c0.1 0.1 0.1 0.2 0 0.3q-1 0.4-2 0.8q-0.1 0-0.1 0zm-26.3-11.4q-0.1 0-0.2-0.1q-0.4-0.9-0.7-2c0-0.1 0.1-0.2 0.2-0.2c0.1-0.1 0.2 0 0.2 0.1q0.3 1 0.7 2c0.1 0.1 0 0.2-0.1 0.3q-0.1 0-0.1-0.1zm-1.3-4q-0.1 0-0.1-0.1q-0.2-1.1-0.3-2.2c0-0.1 0.1-0.2 0.2-0.2c0.1 0 0.2 0.1 0.2 0.2q0.1 1 0.3 2.1c0 0.1 0 0.2-0.1 0.2q-0.1 0-0.2 0zm-0.3-4.2q-0.1-0.1-0.1-0.2q0-1.1 0.1-2.1c0-0.1 0.1-0.2 0.2-0.2c0.1 0 0.2 0.1 0.2 0.2q-0.1 1.1-0.1 2.1c0 0.1-0.1 0.2-0.2 0.2q-0.1 0-0.1 0z" /><path class="s62" d="m148 67.5c-0.1 0-0.1-0.1-0.1-0.2q0.1-0.5 0.2-1c0.1-0.1 0.2-0.2 0.3-0.2c0.1 0.1 0.2 0.2 0.1 0.3q-0.1 0.5-0.2 1c0 0.1-0.2 0.1-0.3 0.1q0 0 0 0z" /><path class="s62" d="m157.6 54.4q-0.1-0.1-0.1-0.1c-0.1-0.1 0-0.2 0.1-0.3q0.4-0.3 0.9-0.5c0.1-0.1 0.2 0 0.3 0.1c0 0.1 0 0.2-0.1 0.3q-0.5 0.2-0.9 0.4q-0.1 0.1-0.2 0.1z" /><path class="s62" d="m188.3 75.5q-0.1 0-0.1-0.2q0.2-1 0.3-2c0-0.1 0.1-0.2 0.2-0.2c0.1 0 0.2 0.1 0.2 0.2q-0.1 1.1-0.3 2.1c0 0.1-0.1 0.2-0.2 0.2q0 0-0.1-0.1zm0.3-4.1q-0.1-0.1-0.1-0.2q0-1-0.2-2c0-0.1 0.1-0.2 0.2-0.3c0.1 0 0.2 0.1 0.2 0.2q0.2 1.1 0.2 2.1c0 0.1-0.1 0.2-0.2 0.2q0 0-0.1 0zm-0.5-4.1q-0.1-0.1-0.2-0.2q0-0.2-0.1-0.5q-0.2-0.7-0.4-1.4c-0.1-0.1 0-0.3 0.1-0.3c0.1 0 0.2 0 0.2 0.1q0.3 0.7 0.5 1.5q0.1 0.3 0.1 0.5c0.1 0.2 0 0.3-0.1 0.3q-0.1 0-0.1 0zm-27.7-14.3q-0.1 0-0.1-0.1c-0.1-0.1 0-0.2 0.1-0.3q1-0.4 2-0.7c0.1 0 0.2 0.1 0.2 0.2c0.1 0.1 0 0.2-0.1 0.2q-1 0.3-2 0.7q0 0-0.1 0zm26.3 10.4q-0.1-0.1-0.1-0.1q-0.4-1-1-1.9c0 0 0-0.2 0.1-0.2c0.1-0.1 0.2-0.1 0.3 0q0.5 0.9 1 1.9c0 0.1 0 0.2-0.1 0.3q-0.1 0-0.2 0zm-22.3-11.6q-0.1 0-0.1-0.1c-0.1-0.1 0-0.2 0.1-0.2q1.1-0.2 2.1-0.3c0.1 0 0.2 0.1 0.2 0.2c0 0.1-0.1 0.2-0.2 0.2q-1 0.1-2 0.3q-0.1 0-0.1-0.1zm20.2 8q-0.1 0-0.1-0.1q-0.6-0.8-1.3-1.5c-0.1-0.1-0.1-0.3 0-0.3c0.1-0.1 0.2-0.1 0.3 0q0.7 0.8 1.3 1.6c0.1 0.1 0.1 0.2 0 0.3q-0.1 0-0.2 0zm-16.1-8.3q-0.1 0-0.1-0.2c0-0.1 0.1-0.2 0.2-0.2q1 0 2.1 0.2c0.1 0 0.2 0.1 0.2 0.2c0 0.1-0.1 0.2-0.3 0.2q-1-0.2-2-0.2q-0.1 0-0.1 0zm13.3 5.2q-0.1 0-0.1 0q-0.8-0.7-1.6-1.3c-0.1-0.1-0.1-0.2 0-0.3c0-0.1 0.2-0.1 0.2 0q0.9 0.6 1.7 1.3c0.1 0.1 0.1 0.2 0 0.3q-0.1 0.1-0.2 0zm-9.2-4.7c-0.1 0-0.1-0.1-0.1-0.2c0-0.1 0.1-0.2 0.3-0.2q1 0.3 2 0.6c0.1 0 0.1 0.2 0.1 0.3c0 0.1-0.1 0.1-0.3 0.1q-0.9-0.3-1.9-0.6q-0.1 0-0.1 0zm5.8 2.3q0 0 0 0q-0.9-0.5-1.8-1c-0.1 0-0.2-0.1-0.1-0.2c0-0.1 0.1-0.2 0.2-0.1q1 0.4 1.9 0.9c0.1 0.1 0.1 0.2 0.1 0.3c-0.1 0.1-0.2 0.1-0.3 0.1z" /><path class="s62" d="m187.6 78.6c-0.1-0.1-0.2-0.2-0.1-0.3q0.1-0.5 0.3-1c0-0.1 0.1-0.1 0.2-0.1c0.1 0 0.2 0.1 0.2 0.3q-0.2 0.5-0.3 0.9c-0.1 0.1-0.2 0.2-0.3 0.2q0 0 0 0z" /></g><path class="s92" d="m305.8 175.8c1 0.4 1.6 1 1.7 1.6c0 0.6-0.6 1.3-1.7 1.9c1 0.4 1.6 1 1.7 1.6c0.1 1-1.5 2-4.1 2.9q0.1 1.1 0.1 2.4c-0.1 3.7-4.8 7.6-10.2 7.6c-5.4 0-9.6-2.9-9.9-6.5q0-1.2 0-2.2c-2.1-0.4-3.3-1.2-3.4-2c0-0.7 0.6-1.4 1.7-2c-1-0.4-1.6-0.9-1.7-1.5c0-0.7 0.6-1.3 1.7-2c-1-0.4-1.6-0.9-1.7-1.5c0-0.7 0.6-1.3 1.7-2c-1-0.4-1.6-0.9-1.7-1.5c-0.2-2 5.9-4.1 13.5-4.7c7.5-0.6 13.8 0.5 14 2.5c0 0.6-0.6 1.3-1.7 1.9c1 0.5 1.6 1 1.7 1.6c0 0.6-0.6 1.3-1.7 1.9z" /><path class="s93" d="m289.9 185.9c-2.2 0-4.3-0.2-6-0.5c-0.1 0-0.1-0.1-0.1-0.2c0-0.1 0.1-0.2 0.2-0.1c2.7 0.5 6.2 0.6 10 0.3c3.1-0.3 6-0.8 8.4-1.5c0.1 0 0.2 0 0.3 0.1c0 0.1-0.1 0.2-0.2 0.3c-2.4 0.7-5.3 1.2-8.4 1.4q-2.2 0.2-4.2 0.2z" /><path class="s94" d="m290 182.4c-2.9 0-5.6-0.3-7.4-0.8c-0.1 0-0.2-0.1-0.1-0.2c0-0.1 0.1-0.2 0.2-0.1c2.6 0.7 6.9 0.9 11.3 0.6c4.4-0.4 8.6-1.3 11-2.4c0.1-0.1 0.2 0 0.3 0.1c0 0.1 0 0.2-0.1 0.2c-2.5 1.2-6.7 2.1-11.1 2.4q-2.1 0.2-4.1 0.2z" /><path class="s95" d="m289.9 178.9c-3.1 0-5.9-0.3-7.7-0.9c-0.1 0-0.2-0.1-0.2-0.2c0.1-0.1 0.2-0.2 0.3-0.2c2.6 0.9 7 1.2 11.7 0.8c4.4-0.4 8.6-1.3 11-2.4c0.1 0 0.2 0 0.3 0.1c0 0.1 0 0.2-0.1 0.2c-2.5 1.2-6.7 2.1-11.1 2.5q-2.2 0.1-4.2 0.1z" /><path class="s96" d="m290 175.4c-2.5 0-4.8-0.2-6.6-0.6c-0.1 0-0.2-0.1-0.1-0.2c0-0.1 0.1-0.1 0.2-0.1c2.7 0.6 6.5 0.7 10.5 0.4c4.4-0.3 8.5-1.2 11-2.4c0.1 0 0.2 0 0.2 0.1c0.1 0.1 0 0.2-0.1 0.3c-2.5 1.1-6.6 2-11 2.4q-2.2 0.1-4.1 0.1z" /><path class="s97" d="m274.9 156.3c-0.9-3.3-2.5-6.3-4.6-9c-4.5-5.7-11.9-17.3-12.8-33.1c-1.3-23 19.1-34.5 37.7-32.9c18.6 1.5 37 15.4 35 36.8c-1.3 13.1-8.7 23.1-14.1 28.9c-3.5 3.6-6 8.1-7.3 12.9c-1.7 6-5.6 13.4-14.9 13.8c-12.1 0.6-17.1-10.6-19-17.4z" /><path class="s98" d="m297 169.1l6.5-42.3c0.1-0.9 0.5-1.5 0.9-1.3c0.4 0.1 0.6 0.9 0.5 1.8q0 0.1 0 0.1l-7.4 41.9c-0.1 0.4-0.2 0.6-0.4 0.5c-0.1-0.1-0.2-0.4-0.1-0.7z" /><path class="s99" d="m290 170.1c-0.1 0.1-0.3-0.1-0.3-0.4l-7.4-42q0 0 0 0c-0.2-0.9 0-1.7 0.4-1.9c0.4-0.1 0.9 0.4 1 1.3l6.5 42.4c0 0.3 0 0.6-0.2 0.6z" /><path class="s100" d="m303.2 123.9l-4.3 2c-0.3 0.1-0.7 0-0.9-0.2q0-0.1 0-0.1l-1.2-2.6l-3.2 5.1c-0.2 0.3-0.6 0.4-0.9 0.2q-0.2-0.1-0.3-0.2l-3.3-7.4l-3.7 4.1c-0.2 0.2-0.6 0.3-0.8 0.1c-0.3-0.2-0.4-0.5-0.2-0.7l4.2-5.8c0.3-0.4 0.9-0.5 1.3-0.2q0.4 0.1 0.5 0.4l2.7 7.8l3-5.5c0.2-0.3 0.7-0.5 1.1-0.3q0.4 0.1 0.5 0.4l1.2 3.6l3.7-1.7c0.3-0.1 0.7 0 0.8 0.2c0.2 0.3 0.1 0.6-0.2 0.8z" /><path class="s101" d="m316.2 141.5q-0.3 0-0.5-0.2c-0.4-0.2-0.5-0.8-0.2-1.1q1.7-2.3 3-4.6c0.3-0.4 0.8-0.6 1.2-0.3c0.4 0.2 0.5 0.7 0.3 1.1q-1.4 2.4-3.1 4.8c-0.2 0.2-0.4 0.3-0.7 0.3z" /><path class="s101" d="m321.6 132.3q-0.2 0-0.4 0c-0.4-0.2-0.6-0.7-0.4-1.2c6.8-15.8 0.9-29.1 0.9-29.2c-0.2-0.4 0-1 0.4-1.1c0.4-0.2 0.9-0.1 1.1 0.4c0.3 0.5 6.3 14.1-0.9 30.6c-0.1 0.3-0.4 0.5-0.7 0.5z" /><path class="s102" d="m149.2 161.7c-0.4 0-0.7-0.3-0.7-0.7c0-0.4 0.3-0.8 0.7-0.8q1.1 0 2.2-0.1c0.4 0 0.8 0.3 0.8 0.7c0.1 0.4-0.3 0.8-0.7 0.8q-1.1 0.1-2.2 0.1zm-5.3-0.2q0 0-0.1 0q-1.1-0.1-2.2-0.2c-0.4-0.1-0.7-0.5-0.7-0.9c0.1-0.4 0.5-0.7 0.9-0.6q1.1 0.1 2.2 0.2c0.4 0.1 0.7 0.4 0.7 0.9c-0.1 0.3-0.4 0.6-0.8 0.6zm12.7-0.5c-0.4 0-0.7-0.2-0.7-0.6c-0.1-0.4 0.2-0.8 0.6-0.9q1.1-0.1 2.2-0.4c0.4-0.1 0.8 0.2 0.8 0.6c0.1 0.4-0.1 0.8-0.5 0.9q-1.2 0.2-2.3 0.4q0 0-0.1 0zm-20-0.8q-0.1 0-0.2-0.1q-1.1-0.3-2.2-0.7c-0.4-0.1-0.6-0.5-0.5-0.9c0.2-0.4 0.6-0.6 1-0.5q1 0.4 2.1 0.7c0.4 0.1 0.6 0.5 0.5 0.9c-0.1 0.3-0.4 0.6-0.7 0.6zm27.3-0.8c-0.3 0-0.6-0.2-0.7-0.6c-0.1-0.4 0.1-0.8 0.5-0.9q1.1-0.3 2.1-0.6c0.4-0.2 0.9 0.1 1 0.5c0.1 0.4-0.1 0.8-0.5 0.9q-1.1 0.3-2.2 0.6q-0.1 0.1-0.2 0.1zm-34.3-1.9q-0.2 0-0.3-0.1q-1.1-0.5-2.1-1.1c-0.3-0.2-0.5-0.6-0.3-1c0.2-0.3 0.7-0.5 1.1-0.3q0.9 0.6 1.9 1c0.4 0.2 0.5 0.7 0.4 1c-0.2 0.3-0.4 0.5-0.7 0.5zm41.4-0.5c-0.3 0-0.6-0.2-0.7-0.5c-0.1-0.4 0.1-0.8 0.5-0.9q1-0.4 2-0.9c0.4-0.1 0.8 0.1 1 0.5c0.2 0.3 0 0.8-0.4 0.9q-1.1 0.5-2.1 0.9q-0.1 0-0.3 0zm6.9-2.9c-0.3 0-0.5-0.2-0.7-0.4c-0.1-0.4 0-0.9 0.4-1q1-0.5 2-1c0.4-0.2 0.9 0 1 0.4c0.2 0.3 0.1 0.8-0.3 1q-1.1 0.5-2.1 0.9q-0.1 0.1-0.3 0.1zm-54.8-0.4q-0.2 0-0.4-0.1q-0.9-0.7-1.8-1.4c-0.4-0.2-0.4-0.7-0.2-1c0.2-0.3 0.7-0.4 1-0.2q0.9 0.7 1.9 1.3c0.3 0.3 0.4 0.7 0.2 1.1c-0.2 0.2-0.4 0.3-0.7 0.3zm61.6-2.8c-0.3 0-0.6-0.2-0.7-0.5c-0.2-0.4 0-0.8 0.4-1q1-0.5 2-0.9c0.4-0.2 0.8 0 1 0.4c0.2 0.4 0 0.8-0.4 1q-1 0.4-2 0.9q-0.2 0.1-0.3 0.1zm74.6-1.7q-0.2 0-0.4-0.1c0 0-0.7-0.4-2-1c-0.3-0.2-0.5-0.6-0.3-1c0.2-0.4 0.6-0.5 1-0.4c1.3 0.7 2 1.1 2 1.1c0.4 0.2 0.5 0.7 0.3 1c-0.1 0.3-0.4 0.4-0.6 0.4zm-142.1-0.1q-0.3 0-0.5-0.2q-0.8-0.7-1.7-1.5c-0.3-0.2-0.3-0.7 0-1c0.2-0.3 0.7-0.4 1-0.1q0.8 0.8 1.7 1.5c0.3 0.3 0.3 0.7 0.1 1q-0.3 0.3-0.6 0.3zm74.4-1.2c-0.3 0-0.6-0.2-0.7-0.5c-0.2-0.3 0-0.8 0.4-0.9q1.1-0.4 2.1-0.8c0.4-0.1 0.8 0.1 1 0.4c0.1 0.4-0.1 0.9-0.5 1q-1 0.4-2.1 0.8q-0.1 0-0.2 0zm60.8-1.8q-0.1 0-0.2 0q-1-0.4-2.1-0.8c-0.4-0.1-0.6-0.5-0.5-0.9c0.1-0.4 0.5-0.6 0.9-0.5q1.2 0.4 2.2 0.8c0.4 0.1 0.6 0.5 0.4 0.9c-0.1 0.3-0.4 0.5-0.7 0.5zm-53.7-0.6c-0.4 0-0.7-0.2-0.8-0.5c-0.1-0.4 0.1-0.9 0.5-1q1.1-0.3 2.2-0.6c0.4-0.1 0.8 0.1 0.9 0.5c0.1 0.4-0.1 0.8-0.5 0.9q-1 0.3-2.1 0.7q-0.1 0-0.2 0zm-87-1.5q-0.3 0-0.5-0.2q-0.8-0.8-1.6-1.6c-0.3-0.3-0.3-0.8 0-1c0.3-0.3 0.8-0.3 1 0q0.8 0.8 1.6 1.5c0.3 0.3 0.3 0.8 0 1.1q-0.2 0.2-0.5 0.2zm133.6-0.1q-0.1 0-0.2 0q-1.1-0.3-2.2-0.5c-0.4-0.1-0.6-0.5-0.6-0.9c0.1-0.4 0.5-0.7 0.9-0.6q1.2 0.3 2.2 0.5c0.4 0.1 0.7 0.5 0.6 0.9c-0.1 0.4-0.4 0.6-0.7 0.6zm-39.4-0.3c-0.3 0-0.7-0.2-0.7-0.6c-0.1-0.4 0.1-0.8 0.5-0.9q1.2-0.2 2.3-0.5c0.4 0 0.8 0.2 0.8 0.6c0.1 0.4-0.1 0.8-0.6 0.9q-1 0.2-2.1 0.5q-0.1 0-0.2 0zm32-1.2q0 0-0.1 0q-1.1-0.2-2.2-0.3c-0.4-0.1-0.7-0.4-0.7-0.9c0.1-0.4 0.5-0.7 0.9-0.6q1.1 0.1 2.2 0.3c0.4 0.1 0.7 0.5 0.7 0.9c-0.1 0.3-0.4 0.6-0.8 0.6zm-24.6-0.1c-0.4 0-0.7-0.3-0.8-0.7c0-0.4 0.3-0.8 0.7-0.8q1.1-0.2 2.2-0.3c0.4-0.1 0.8 0.2 0.9 0.7c0 0.4-0.3 0.7-0.7 0.8q-1.1 0.1-2.2 0.3q-0.1 0-0.1 0zm17.2-0.7q-0.1 0-0.1 0q-1.1-0.1-2.2-0.1c-0.4 0-0.7-0.4-0.7-0.8c0-0.4 0.3-0.7 0.8-0.7q1.1 0 2.2 0.1c0.4 0 0.7 0.4 0.7 0.8c0 0.4-0.3 0.7-0.7 0.7zm-9.8 0c-0.4 0-0.7-0.4-0.7-0.8c0-0.4 0.3-0.7 0.7-0.7q1.1-0.1 2.3-0.1c0.4-0.1 0.7 0.3 0.7 0.7c0 0.4-0.3 0.8-0.7 0.8q-1.1 0-2.2 0.1q0 0-0.1 0zm-114.2-2.9q-0.3 0-0.6-0.3q-0.7-0.8-1.5-1.6c-0.3-0.3-0.3-0.8 0-1.1c0.3-0.3 0.8-0.2 1.1 0.1q0.7 0.8 1.5 1.6c0.3 0.3 0.3 0.8 0 1.1q-0.2 0.2-0.5 0.2zm-5.1-5.5q-0.3 0-0.6-0.3l-1.5-1.6c-0.3-0.3-0.3-0.8 0-1.1c0.3-0.2 0.8-0.2 1.1 0.1l1.5 1.6c0.3 0.3 0.3 0.8 0 1.1q-0.2 0.2-0.5 0.2z" /><path class="s62" d="m116.1 147.4c-25.6 25.6-67 25.6-92.6 0c-25.6-25.6-25.6-66.9 0-92.5c25.6-25.6 67-25.6 92.6 0c25.5 25.6 25.5 66.9 0 92.5z" /><path class="s103" d="m109.3 140.6c-21.9 21.9-57.2 21.9-79 0c-21.8-21.8-21.8-57.1 0-78.9c21.8-21.9 57.1-21.9 79 0c21.8 21.8 21.8 57.1 0 78.9z" /><path fill-rule="evenodd" class="s104" d="m69.8 159.8c-32.4 0-58.7-26.3-58.7-58.7c0-32.3 26.3-58.6 58.7-58.6c32.3 0 58.6 26.3 58.6 58.6c0 32.4-26.3 58.7-58.6 58.7zm0-111.7c-29.3 0-53.1 23.8-53.1 53c0 29.3 23.8 53.1 53.1 53.1c29.2 0 53-23.8 53-53.1c0-29.2-23.8-53-53-53z" /><path class="s39" d="m93.9 125.2c-13.4 13.3-34.9 13.3-48.2 0c-13.3-13.3-13.3-34.8 0-48.1c13.3-13.3 34.8-13.3 48.2 0c13.3 13.3 13.3 34.8 0 48.1z" /><path fill-rule="evenodd" class="s105" d="m69.8 138c-20.3 0-36.9-16.5-36.9-36.9c0-20.3 16.6-36.8 36.9-36.8c20.3 0 36.8 16.5 36.8 36.8c0 20.4-16.5 36.9-36.8 36.9zm0-68.1c-17.3 0-31.3 14-31.3 31.2c0 17.3 14 31.3 31.3 31.3c17.2 0 31.2-14 31.2-31.3c0-17.2-14-31.2-31.2-31.2z" /><path class="s106" d="m82.3 105.3c-2.3 6.9-9.8 10.7-16.7 8.4c-6.9-2.3-10.6-9.8-8.3-16.7c2.3-6.9 9.7-10.7 16.7-8.4c6.9 2.3 10.6 9.8 8.3 16.7z" /><path fill-rule="evenodd" class="s107" d="m69.8 117.1c-8.8 0-16-7.1-16-16c0-8.8 7.2-15.9 16-15.9c8.8 0 16 7.1 16 15.9c0 8.9-7.2 16-16 16zm0-26.3c-5.8 0-10.4 4.6-10.4 10.3c0 5.8 4.6 10.4 10.4 10.4c5.7 0 10.4-4.6 10.4-10.4c0-5.7-4.7-10.3-10.4-10.3z" /><path class="s108" d="m84.1 90.2l-1.8-1.8l66.8-66.8l1.8 1.8z" /><path class="s109" d="m83.6 84.1c1-1 5.8 3.8 4.7 4.8l-17.6 13.9c-0.7 0.5-1.5-0.3-1-1z" /><path class="s39" d="m150.8 23.4l9 0.9l-12.3 12.3c-4.1 4.1-9.7 6.1-15.4 5.5z" /><path class="s39" d="m130.4 40.4c-0.6-5.7 1.4-11.4 5.4-15.4l12.4-12.3l0.9 9z" /><path class="s110" d="m484.2 337.4q0 0-0.1 0h-0.4c-0.4-0.1-0.7-0.5-0.6-0.9c0-0.4 0.4-0.7 0.8-0.6h0.4c0.4 0.1 0.7 0.5 0.7 0.9c-0.1 0.4-0.4 0.6-0.8 0.6zm-5.5-1.2q-0.1 0-0.2 0q-1.1-0.4-2.2-0.8c-0.4-0.1-0.6-0.5-0.4-0.9c0.1-0.4 0.6-0.6 0.9-0.5q1.1 0.4 2.1 0.7c0.4 0.2 0.7 0.6 0.5 1c-0.1 0.3-0.4 0.5-0.7 0.5zm-6.9-2.8q-0.2 0-0.4-0.1q-1-0.5-2-1.1c-0.3-0.2-0.4-0.6-0.2-1c0.2-0.4 0.6-0.5 1-0.3q1 0.6 1.9 1.1c0.4 0.2 0.5 0.6 0.4 1c-0.2 0.2-0.4 0.4-0.7 0.4zm-6.4-3.9q-0.2 0-0.4-0.1q-1-0.7-1.9-1.4c-0.3-0.3-0.4-0.7-0.1-1.1c0.2-0.3 0.7-0.3 1-0.1q0.9 0.7 1.8 1.3c0.4 0.3 0.4 0.7 0.2 1.1c-0.1 0.2-0.4 0.3-0.6 0.3zm-5.8-4.7q-0.3 0-0.5-0.2q-0.9-0.8-1.7-1.6c-0.3-0.3-0.2-0.8 0-1.1c0.3-0.3 0.8-0.3 1.1 0q0.8 0.8 1.6 1.6c0.3 0.2 0.3 0.7 0 1q-0.2 0.3-0.5 0.3zm-5.1-5.5c-0.3 0-0.5-0.1-0.6-0.3q-0.8-0.9-1.4-1.8c-0.3-0.3-0.2-0.8 0.1-1c0.4-0.3 0.8-0.2 1.1 0.1q0.6 0.9 1.3 1.8c0.3 0.3 0.3 0.8-0.1 1q-0.2 0.2-0.4 0.2zm-4.4-6.1c-0.2 0-0.5-0.2-0.6-0.4q-0.6-0.9-1.2-1.9c-0.2-0.4-0.1-0.8 0.3-1c0.4-0.3 0.8-0.1 1 0.2q0.6 1 1.2 1.9c0.2 0.4 0.1 0.8-0.3 1.1q-0.2 0.1-0.4 0.1zm-3.6-6.5c-0.3 0-0.6-0.2-0.7-0.4q-0.5-1-1-2.1c-0.2-0.3-0.1-0.8 0.3-1c0.4-0.1 0.8 0 1 0.4q0.5 1 1 2c0.2 0.3 0.1 0.8-0.3 1q-0.2 0.1-0.3 0.1zm-3.3-6.8c-0.3 0-0.5-0.2-0.6-0.4q-0.5-1.1-0.9-2.1c-0.2-0.4 0-0.8 0.4-1c0.3-0.2 0.8 0 0.9 0.4q0.5 1 0.9 2.1c0.2 0.3 0 0.8-0.4 0.9q-0.1 0.1-0.3 0.1zm-2.8-6.9c-0.3 0-0.6-0.2-0.7-0.5q-0.4-1.1-0.8-2.1c-0.1-0.4 0.1-0.9 0.5-1c0.4-0.1 0.8 0.1 0.9 0.4q0.4 1.1 0.8 2.1c0.2 0.4 0 0.9-0.4 1q-0.2 0.1-0.3 0.1zm-2.5-7.1c-0.3 0-0.6-0.2-0.7-0.5q-0.4-1.1-0.7-2.2c-0.1-0.4 0.1-0.8 0.5-0.9c0.4-0.1 0.8 0.1 0.9 0.5q0.4 1 0.7 2.1c0.1 0.4-0.1 0.8-0.5 1q-0.1 0-0.2 0zm-2.3-7.1c-0.3 0-0.6-0.3-0.7-0.6q-0.3-1.1-0.6-2.1c-0.1-0.4 0.1-0.9 0.5-1c0.4-0.1 0.8 0.1 0.9 0.5q0.3 1.1 0.7 2.2c0.1 0.4-0.2 0.8-0.5 0.9q-0.2 0.1-0.3 0.1zm-2.1-7.2c-0.3 0-0.6-0.3-0.7-0.6l-0.6-2.2c-0.1-0.3 0.1-0.8 0.5-0.9c0.4-0.1 0.8 0.1 0.9 0.5l0.6 2.2c0.2 0.4-0.1 0.8-0.5 0.9q-0.1 0.1-0.2 0.1zm-2-7.3c-0.3 0-0.6-0.2-0.7-0.5l-0.6-2.2c-0.2-0.4 0.1-0.8 0.5-0.9c0.4-0.1 0.8 0.1 0.9 0.5l0.6 2.2c0.1 0.4-0.1 0.8-0.5 0.9q-0.1 0-0.2 0zm-2.1-7.2c-0.3 0-0.6-0.2-0.7-0.5q-0.3-1.1-0.6-2.2c-0.1-0.4 0.1-0.8 0.5-0.9c0.4-0.1 0.8 0.1 0.9 0.5q0.4 1.1 0.7 2.2c0.1 0.4-0.1 0.8-0.5 0.9q-0.2 0-0.3 0zm-2.1-7.2c-0.3 0-0.6-0.2-0.7-0.5q-0.3-1-0.7-2.1c-0.1-0.4 0.1-0.8 0.5-1c0.4-0.1 0.8 0.1 1 0.5q0.3 1.1 0.6 2.2c0.2 0.4-0.1 0.8-0.5 0.9q-0.1 0.1-0.2 0zm-2.3-7.1c-0.3 0-0.6-0.2-0.7-0.5q-0.4-1-0.7-2.1c-0.2-0.4 0-0.8 0.4-1c0.4-0.1 0.8 0.1 1 0.5q0.4 1.1 0.7 2.1c0.2 0.4-0.1 0.8-0.5 1q-0.1 0-0.2 0zm-2.6-7c-0.3 0-0.5-0.2-0.7-0.5q-0.4-1-0.8-2.1c-0.1-0.4 0.1-0.8 0.4-0.9c0.4-0.2 0.9 0 1 0.4q0.4 1 0.8 2.1c0.2 0.3 0 0.8-0.4 0.9q-0.1 0.1-0.3 0.1zm-2.9-6.9c-0.2 0-0.5-0.2-0.6-0.5q-0.5-1-1-2c-0.2-0.4 0-0.8 0.4-1c0.4-0.2 0.8 0 1 0.4q0.5 1 0.9 2c0.2 0.4 0 0.8-0.3 1q-0.2 0.1-0.4 0.1zm-3.3-6.7c-0.2 0-0.5-0.2-0.6-0.4q-0.5-1-1.1-2c-0.2-0.4-0.1-0.8 0.3-1c0.4-0.2 0.8-0.1 1 0.3q0.6 1 1.1 2c0.2 0.3 0.1 0.8-0.3 1q-0.2 0.1-0.4 0.1zm-3.7-6.5c-0.3 0-0.5-0.1-0.7-0.4q-0.6-0.9-1.2-1.8c-0.2-0.4-0.1-0.8 0.2-1.1c0.4-0.2 0.8-0.1 1 0.2q0.7 1 1.3 1.9c0.2 0.4 0.1 0.8-0.2 1.1q-0.2 0.1-0.4 0.1zm-4.3-6.1c-0.3 0-0.5-0.1-0.6-0.3q-0.7-0.9-1.4-1.8c-0.3-0.3-0.2-0.8 0.1-1c0.3-0.3 0.8-0.3 1.1 0.1q0.7 0.8 1.4 1.7c0.2 0.4 0.1 0.8-0.2 1.1q-0.2 0.2-0.4 0.2zm-4.8-5.8q-0.4 0-0.6-0.2q-0.8-0.8-1.5-1.6c-0.3-0.3-0.3-0.8 0-1.1c0.3-0.3 0.8-0.3 1.1 0q0.7 0.8 1.5 1.7c0.3 0.3 0.3 0.7 0 1q-0.3 0.2-0.5 0.2zm-5.3-5.3q-0.3 0-0.5-0.2q-0.9-0.7-1.7-1.5c-0.3-0.2-0.3-0.7-0.1-1c0.3-0.3 0.8-0.4 1.1-0.1q0.8 0.7 1.7 1.5c0.3 0.3 0.3 0.8 0 1.1q-0.2 0.2-0.5 0.2zm-5.7-4.8q-0.3 0-0.5-0.2q-0.9-0.7-1.8-1.3c-0.3-0.3-0.4-0.7-0.1-1.1c0.2-0.3 0.7-0.4 1-0.1q0.9 0.6 1.8 1.3c0.3 0.3 0.4 0.8 0.1 1.1c-0.1 0.2-0.3 0.3-0.5 0.3zm-6.2-4.4q-0.2 0-0.4-0.1q-0.9-0.6-1.8-1.2c-0.4-0.2-0.5-0.7-0.3-1c0.2-0.4 0.7-0.5 1-0.3q1 0.6 2 1.3c0.3 0.2 0.4 0.7 0.2 1c-0.2 0.2-0.4 0.3-0.7 0.3zm-6.4-3.8q-0.2 0-0.3-0.1q-1-0.5-2-1c-0.4-0.2-0.5-0.7-0.3-1c0.1-0.4 0.6-0.5 1-0.3q1 0.5 2 1c0.3 0.2 0.5 0.7 0.3 1c-0.2 0.3-0.4 0.4-0.7 0.4zm-6.7-3.3q-0.2 0-0.3 0q-1-0.5-2.1-0.9c-0.4-0.2-0.5-0.6-0.4-1c0.2-0.4 0.6-0.6 1-0.4q1 0.4 2.1 0.9c0.4 0.2 0.5 0.6 0.4 1c-0.2 0.3-0.4 0.4-0.7 0.4zm-7-2.7q-0.1 0-0.2-0.1q-1.1-0.3-2.2-0.7c-0.4-0.1-0.6-0.5-0.4-0.9c0.1-0.4 0.5-0.6 0.9-0.5q1.1 0.4 2.2 0.7c0.3 0.2 0.5 0.6 0.4 1c-0.1 0.3-0.4 0.5-0.7 0.5zm-7.2-2.2q-0.1 0-0.2 0q-1-0.3-2.1-0.5c-0.4-0.1-0.7-0.5-0.6-0.9c0.1-0.5 0.5-0.7 0.9-0.6q1.1 0.3 2.2 0.5c0.4 0.1 0.7 0.6 0.6 1c-0.1 0.3-0.4 0.5-0.8 0.5zm-7.3-1.6q-0.1 0-0.1 0q-1.1-0.2-2.2-0.4c-0.4 0-0.7-0.4-0.7-0.8c0.1-0.4 0.5-0.7 0.9-0.6q1.1 0.1 2.2 0.3c0.4 0.1 0.7 0.5 0.6 0.9c0 0.4-0.3 0.6-0.7 0.6zm-7.4-1q-0.1 0-0.1 0q-1.1-0.1-2.2-0.2c-0.4 0-0.7-0.4-0.7-0.8c0-0.4 0.4-0.7 0.8-0.7q1.1 0.1 2.3 0.2c0.4 0 0.7 0.4 0.6 0.8c0 0.4-0.3 0.7-0.7 0.7zm-17.2-0.1c-0.4 0-0.7-0.3-0.8-0.7c0-0.4 0.3-0.8 0.7-0.8q1.1-0.1 2.3-0.2c0.4 0 0.7 0.3 0.8 0.7c0 0.5-0.3 0.8-0.7 0.8q-1.2 0.1-2.3 0.2q0 0 0 0zm9.7-0.3q-0.8 0-1.6 0h-0.6c-0.5 0-0.8-0.4-0.8-0.8c0-0.4 0.3-0.7 0.7-0.7h0.7q0.8 0 1.6 0c0.4 0 0.8 0.3 0.8 0.7c-0.1 0.4-0.4 0.8-0.8 0.8z" /><path class="s111" d="m171.7 327.5c-0.4 0-0.7-0.3-0.8-0.6c0-0.4 0.2-0.8 0.7-0.9q1-0.1 2-0.5c0.4-0.1 0.8 0.1 1 0.5c0.1 0.4-0.1 0.8-0.5 0.9q-1.2 0.4-2.3 0.6q-0.1 0-0.1 0zm6.8-2.8c-0.2 0-0.4-0.1-0.6-0.4c-0.2-0.3-0.1-0.8 0.2-1q0.9-0.6 1.8-1.3c0.3-0.3 0.8-0.2 1 0.1c0.3 0.3 0.2 0.8-0.1 1.1q-0.9 0.7-1.8 1.3q-0.2 0.2-0.5 0.2zm5.6-5q-0.3 0-0.5-0.2c-0.3-0.3-0.4-0.7-0.1-1.1q0.7-0.8 1.4-1.7c0.3-0.3 0.7-0.4 1.1-0.1c0.3 0.3 0.4 0.7 0.1 1.1q-0.7 0.9-1.5 1.7q-0.2 0.3-0.5 0.3zm4.4-6.1q-0.2 0-0.4-0.1c-0.4-0.2-0.5-0.7-0.3-1q0.6-0.9 1.1-1.9c0.2-0.4 0.7-0.5 1.1-0.3c0.3 0.2 0.5 0.6 0.2 1q-0.5 1-1.1 2c-0.1 0.2-0.4 0.3-0.6 0.3zm3.5-6.6q-0.2 0-0.4-0.1c-0.3-0.1-0.5-0.6-0.3-1q0.4-0.9 0.9-2c0.1-0.4 0.6-0.6 1-0.4c0.3 0.2 0.5 0.6 0.4 1q-0.5 1.1-1 2.1c-0.1 0.2-0.4 0.4-0.6 0.4zm2.8-6.9q-0.2 0-0.3-0.1c-0.4-0.1-0.6-0.5-0.4-0.9q0.3-1.1 0.7-2.1c0.1-0.4 0.6-0.6 0.9-0.5c0.4 0.1 0.6 0.5 0.5 0.9q-0.3 1.1-0.7 2.2c-0.1 0.3-0.4 0.5-0.7 0.5zm2.3-7.2q-0.1 0-0.2 0c-0.4-0.1-0.7-0.5-0.6-0.9q0.3-1.1 0.6-2.2c0.1-0.4 0.5-0.6 0.9-0.5c0.4 0.1 0.7 0.5 0.6 0.9q-0.3 1.1-0.6 2.2c-0.1 0.3-0.4 0.5-0.7 0.5zm1.8-7.2q-0.1 0-0.2 0c-0.4-0.1-0.6-0.5-0.5-0.9q0.2-1.1 0.5-2.2c0.1-0.4 0.5-0.7 0.9-0.6c0.4 0.1 0.6 0.5 0.5 0.9q-0.2 1.1-0.5 2.2c0 0.3-0.3 0.6-0.7 0.6zm1.5-7.4q0 0-0.1 0c-0.4 0-0.7-0.4-0.6-0.8q0.2-1.1 0.4-2.2c0-0.5 0.4-0.7 0.8-0.7c0.5 0.1 0.7 0.5 0.7 0.9q-0.2 1.1-0.4 2.2c-0.1 0.4-0.4 0.6-0.8 0.6zm1.2-7.3q0 0-0.1-0.1c-0.4 0-0.7-0.4-0.6-0.8q0.2-1.1 0.3-2.2c0.1-0.4 0.4-0.7 0.9-0.7c0.4 0.1 0.7 0.5 0.6 0.9q-0.2 1.1-0.3 2.2c-0.1 0.4-0.4 0.7-0.8 0.7zm1-7.5q0 0-0.1 0c-0.4 0-0.7-0.4-0.6-0.8q0.1-1.1 0.2-2.2c0-0.4 0.4-0.8 0.8-0.7c0.4 0 0.7 0.4 0.7 0.8q-0.1 1.2-0.3 2.3c0 0.3-0.3 0.6-0.7 0.6zm0.8-7.4q-0.1 0-0.1 0c-0.4-0.1-0.7-0.4-0.7-0.8v-0.3q0.1-1 0.2-2c0.1-0.4 0.4-0.7 0.8-0.7c0.5 0.1 0.8 0.5 0.7 0.9q-0.1 1-0.2 2v0.2c0 0.4-0.4 0.7-0.7 0.7zm0.9-7.5q-0.1 0-0.1 0c-0.5 0-0.7-0.4-0.7-0.8q0.2-1.2 0.4-2.3c0.1-0.4 0.5-0.6 0.9-0.6c0.4 0.1 0.7 0.5 0.6 0.9q-0.2 1.1-0.4 2.2c0 0.4-0.4 0.6-0.7 0.6zm1.5-7.3q0 0-0.1 0c-0.4-0.1-0.7-0.5-0.6-0.9q0.3-1.1 0.6-2.2c0.1-0.4 0.6-0.6 1-0.5c0.3 0.1 0.6 0.5 0.5 0.9q-0.3 1.1-0.6 2.2c-0.1 0.3-0.4 0.5-0.8 0.5zm2.3-7.1q-0.2 0-0.3-0.1c-0.4-0.1-0.6-0.5-0.4-0.9q0.4-1.1 0.8-2.1c0.1-0.4 0.6-0.6 1-0.5c0.3 0.2 0.5 0.6 0.4 1q-0.4 1-0.8 2.1c-0.1 0.3-0.4 0.5-0.7 0.5zm2.9-6.9q-0.2 0-0.3-0.1c-0.4-0.2-0.6-0.6-0.4-1q0.5-1 1-2c0.2-0.4 0.7-0.5 1-0.3c0.4 0.1 0.5 0.6 0.3 1q-0.5 0.9-0.9 2c-0.2 0.2-0.4 0.4-0.7 0.4zm3.5-6.6q-0.2 0-0.4-0.1c-0.3-0.2-0.4-0.7-0.2-1q0.6-1 1.2-2c0.2-0.3 0.7-0.4 1-0.2c0.4 0.2 0.5 0.7 0.3 1.1q-0.6 0.9-1.2 1.8c-0.2 0.3-0.4 0.4-0.7 0.4zm4.2-6.2q-0.2 0-0.4-0.2c-0.4-0.2-0.4-0.7-0.2-1q0.7-0.9 1.4-1.8c0.3-0.3 0.7-0.4 1.1-0.1c0.3 0.2 0.3 0.7 0.1 1q-0.7 0.9-1.4 1.8c-0.1 0.2-0.3 0.3-0.6 0.3zm4.8-5.8q-0.3 0-0.5-0.2c-0.3-0.3-0.3-0.7-0.1-1q0.8-0.9 1.6-1.7c0.3-0.3 0.7-0.3 1 0c0.3 0.3 0.3 0.7 0.1 1q-0.8 0.8-1.6 1.7q-0.2 0.2-0.5 0.2zm5.3-5.3q-0.4 0-0.6-0.3c-0.3-0.3-0.3-0.7 0.1-1q0.8-0.8 1.6-1.5c0.3-0.3 0.8-0.3 1.1 0c0.3 0.3 0.2 0.8-0.1 1.1q-0.8 0.7-1.6 1.5q-0.3 0.2-0.5 0.2zm5.7-4.9c-0.2 0-0.5-0.1-0.6-0.2c-0.3-0.4-0.2-0.8 0.1-1.1q0.9-0.7 1.8-1.4c0.4-0.2 0.8-0.1 1.1 0.2c0.2 0.3 0.2 0.8-0.2 1q-0.9 0.7-1.8 1.4q-0.2 0.1-0.4 0.1zm6.1-4.3c-0.3 0-0.5-0.1-0.6-0.4c-0.3-0.3-0.2-0.8 0.2-1q0.9-0.6 1.9-1.2c0.3-0.2 0.8-0.1 1 0.2c0.2 0.4 0.1 0.8-0.2 1.1q-1 0.5-1.9 1.2q-0.2 0.1-0.4 0.1zm6.4-3.9c-0.3 0-0.5-0.1-0.6-0.4c-0.2-0.3-0.1-0.8 0.3-1q1-0.5 2-1.1c0.3-0.1 0.8 0 1 0.4c0.2 0.3 0 0.8-0.4 1q-0.9 0.5-1.9 1q-0.2 0.1-0.4 0.1zm6.7-3.3c-0.3 0-0.5-0.2-0.7-0.5c-0.1-0.4 0-0.8 0.4-1q1.1-0.5 2.1-0.9c0.4-0.1 0.8 0 1 0.4c0.1 0.4 0 0.8-0.4 1q-1 0.4-2.1 0.9q-0.1 0.1-0.3 0.1zm7-2.8c-0.3 0-0.6-0.2-0.7-0.5c-0.1-0.4 0.1-0.8 0.5-1c1.3-0.5 2.1-0.7 2.2-0.7c0.4-0.1 0.8 0.1 0.9 0.5c0.1 0.4-0.1 0.8-0.5 1c0 0-0.8 0.2-2.2 0.6q-0.1 0.1-0.2 0.1z" /><path class="s112" d="m322 152.3c-0.3 0-0.5-0.1-0.6-0.3c-0.3-0.4-0.2-0.8 0.1-1.1c0 0 0.7-0.5 1.9-1.3c0.4-0.2 0.8-0.1 1.1 0.2c0.2 0.4 0.1 0.9-0.3 1.1c-1.2 0.7-1.8 1.2-1.8 1.2q-0.2 0.2-0.4 0.2zm6.4-3.9c-0.3 0-0.6-0.2-0.7-0.4c-0.2-0.4 0-0.8 0.3-1q1-0.5 2-1.1c0.4-0.2 0.9 0 1 0.4c0.2 0.3 0.1 0.8-0.3 1q-1.1 0.5-2 1q-0.1 0.1-0.3 0.1zm6.8-3.2c-0.3 0-0.6-0.2-0.7-0.5c-0.2-0.4 0-0.8 0.4-1q1-0.4 2.1-0.8c0.4-0.1 0.8 0.1 0.9 0.4c0.2 0.4 0 0.9-0.4 1q-1.1 0.4-2.1 0.8q-0.1 0.1-0.2 0.1zm75.8-0.8q-1.2 0-2.3-0.1c-0.4 0-0.7-0.3-0.7-0.8c0-0.4 0.3-0.7 0.8-0.7q1.1 0.1 2.2 0.1c0.4 0 0.7 0.3 0.7 0.8c0 0.4-0.3 0.7-0.7 0.7zm5.2-0.2c-0.4 0-0.7-0.3-0.7-0.7c-0.1-0.4 0.2-0.7 0.6-0.8q1.2-0.1 2.2-0.2c0.5-0.1 0.8 0.2 0.9 0.6c0 0.4-0.2 0.8-0.7 0.9q-1.1 0.1-2.2 0.2q-0.1 0-0.1 0zm-12.7-0.3q0 0-0.1 0q-1.1-0.2-2.2-0.4c-0.4 0-0.7-0.4-0.7-0.8c0.1-0.4 0.5-0.7 0.9-0.6q1.1 0.1 2.2 0.3c0.4 0 0.7 0.4 0.6 0.8c0 0.4-0.3 0.7-0.7 0.7zm20.1-0.9c-0.3 0-0.7-0.2-0.7-0.6c-0.1-0.4 0.1-0.8 0.5-0.9q1.1-0.2 2.1-0.6c0.4-0.1 0.8 0.1 1 0.5c0.1 0.4-0.1 0.8-0.5 1q-1.1 0.3-2.2 0.6q-0.1 0-0.2 0zm-81.4-0.4c-0.3 0-0.6-0.2-0.7-0.5c-0.1-0.4 0.1-0.8 0.5-0.9q1-0.4 2.1-0.7c0.4-0.1 0.9 0.1 1 0.5c0.1 0.4-0.1 0.8-0.5 1q-1.1 0.3-2.2 0.6q-0.1 0-0.2 0zm53.9 0q-0.1 0-0.1 0q-1.1-0.3-2.2-0.5c-0.4-0.1-0.7-0.5-0.6-0.9c0.1-0.4 0.5-0.7 0.9-0.6q1.1 0.3 2.2 0.5c0.4 0.1 0.6 0.5 0.6 0.9c-0.1 0.4-0.4 0.6-0.8 0.6zm-7.3-1.8q0 0-0.1 0q-1.1-0.2-2.2-0.4c-0.4-0.1-0.7-0.5-0.6-0.9c0.1-0.4 0.5-0.7 0.9-0.6q1.1 0.2 2.2 0.5c0.4 0 0.7 0.4 0.6 0.9c-0.1 0.3-0.4 0.5-0.8 0.5zm-39.4-0.1c-0.3 0-0.6-0.3-0.7-0.6c-0.1-0.4 0.2-0.8 0.6-0.9q1.1-0.2 2.2-0.5c0.4 0 0.8 0.2 0.9 0.6c0.1 0.4-0.2 0.8-0.6 0.9q-1.1 0.2-2.2 0.5q-0.1 0-0.2 0zm81.2-0.2c-0.3 0-0.5-0.2-0.6-0.4c-0.2-0.4-0.1-0.9 0.3-1q1-0.5 2-1c0.3-0.2 0.8-0.1 1 0.2c0.2 0.4 0 0.9-0.3 1.1q-1 0.5-2 1q-0.2 0.1-0.4 0.1zm-49.1-1q-0.1 0-0.1 0q-1.2-0.2-2.3-0.3c-0.4-0.1-0.7-0.4-0.6-0.8c0-0.4 0.4-0.7 0.8-0.7q1.1 0.1 2.3 0.3c0.4 0.1 0.7 0.4 0.6 0.8c0 0.4-0.4 0.7-0.7 0.7zm-24.7-0.1c-0.4 0-0.7-0.3-0.7-0.7c-0.1-0.4 0.2-0.8 0.6-0.8q1.1-0.2 2.3-0.3c0.4 0 0.7 0.3 0.8 0.7c0 0.4-0.3 0.7-0.7 0.8q-1.1 0.1-2.2 0.3q0 0-0.1 0zm17.2-0.7q0 0 0 0q-1.2 0-2.3-0.1c-0.4 0-0.7-0.3-0.7-0.7c0-0.5 0.4-0.8 0.8-0.8q1.1 0.1 2.3 0.1c0.4 0.1 0.7 0.4 0.7 0.8c-0.1 0.4-0.4 0.7-0.8 0.7zm-9.7 0c-0.4 0-0.8-0.3-0.8-0.7c0-0.4 0.3-0.8 0.7-0.8q1.2-0.1 2.3-0.1c0.4 0 0.8 0.3 0.8 0.7c0 0.4-0.3 0.8-0.8 0.8q-1.1 0-2.2 0.1q0 0 0 0zm72.7-2.1c-0.2 0-0.5-0.1-0.6-0.3c-0.3-0.3-0.2-0.8 0.1-1.1q0.9-0.6 1.7-1.4c0.3-0.3 0.8-0.2 1.1 0.1c0.2 0.3 0.2 0.8-0.1 1q-0.8 0.8-1.8 1.5q-0.2 0.2-0.4 0.2zm5.3-5.3q-0.2 0-0.4-0.1c-0.4-0.3-0.4-0.8-0.1-1.1q0.7-0.8 1.3-1.7c0.2-0.4 0.7-0.4 1.1-0.2c0.3 0.2 0.4 0.7 0.1 1.1q-0.7 0.9-1.4 1.8c-0.1 0.2-0.3 0.2-0.6 0.2zm4.2-6.2q-0.2 0-0.4-0.1c-0.3-0.2-0.5-0.6-0.3-1q0.5-1 1-2c0.1-0.4 0.6-0.5 1-0.3c0.3 0.1 0.5 0.6 0.3 0.9q-0.4 1.1-1 2.1c-0.1 0.3-0.4 0.4-0.6 0.4zm2.8-6.9q-0.1 0-0.2-0.1c-0.4-0.1-0.6-0.5-0.5-0.9q0.3-1.1 0.5-2.1c0.1-0.4 0.5-0.7 0.9-0.6c0.4 0.1 0.7 0.5 0.6 0.9q-0.3 1.1-0.6 2.2c-0.1 0.4-0.4 0.6-0.7 0.6z" /><path class="s113" d="m576.2 170.2l-96.3-8.5c-3.9-0.3-6.9-3.6-6.9-7.5l-0.4-65c0-4.4 3.8-7.9 8.2-7.6l102.5 7.1c4.3 0.3 7.4 4.1 7.1 8.3l-5.9 66.3c-0.4 4.2-4.1 7.3-8.3 6.9z" /><path class="s114" d="m483.2 90.9l97.1 5.3c2.6 0.1 4.6 2.4 4.4 5.1l-5.3 59.9c-0.2 2.6-2.6 4.5-5.2 4.3l-92.3-9.2c-2.4-0.2-4.3-2.3-4.2-4.7l0.6-56.1c0-2.7 2.3-4.8 4.9-4.6z" /><path class="s61" d="m522.1 144.5l52.2 3.1c0.6 0 1 0.5 0.9 1v0.8c-0.1 0.6-0.5 0.9-1.1 0.9l-52.2-3.9c-0.5 0-0.9-0.5-0.8-1c0-0.5 0.5-0.9 1-0.9z" /><path class="s61" d="m521.7 148.9l52.1 4.6c0.6 0.1 1 0.5 0.9 1v0.4c-0.1 0.5-0.5 0.9-1.1 0.9l-52.1-4.7c-0.5 0-0.9-0.5-0.9-1l0.1-0.4c0-0.5 0.5-0.9 1-0.8z" /><path class="s61" d="m537.1 155l36.4 2.6c0.5 0 0.9 0.5 0.8 1v0.8c-0.1 0.5-0.5 0.9-1.1 0.8l-36.3-3.2c-0.5 0-0.9-0.5-0.8-1v-0.2c0-0.5 0.5-0.9 1-0.8z" /><path class="s115" d="m568.2 147l-113.7-2.3c-4.6-0.1-8.4-3.6-8.7-8.2l-5.6-76.2c-0.4-5.2 3.7-9.6 8.9-9.6l120.9 0.2c5 0 9 4.1 8.9 9.1l-1.6 78.3c-0.1 4.9-4.2 8.8-9.1 8.7z" /><path class="s2" d="m452.7 61.4l114.3-1.6c3.1 0 5.6 2.5 5.6 5.7l-1.5 70.7c0 3.1-2.6 5.5-5.7 5.4l-109-3.3c-2.9-0.1-5.2-2.4-5.4-5.2l-3.7-65.9c-0.2-3.1 2.3-5.8 5.4-5.8z" /><path class="s61" d="m502.6 121.2l61.5-0.6c0.7 0 1.2 0.5 1.2 1.1l-0.1 1c0 0.6-0.5 1.1-1.1 1.1l-61.5-0.4c-0.7 0-1.2-0.5-1.1-1.1c0-0.6 0.5-1.1 1.1-1.1z" /><path class="s61" d="m502.5 126.3l61.5 1.3c0.6 0 1.1 0.5 1.1 1.1v0.5c0 0.6-0.5 1.1-1.1 1.1l-61.6-1.3c-0.6 0-1.1-0.5-1.1-1.1v-0.5c0.1-0.6 0.6-1.1 1.2-1.1z" /><path class="s61" d="m521 132.2l42.9 0.2c0.6 0 1.1 0.5 1.1 1.2v0.8c0 0.7-0.5 1.1-1.1 1.1l-42.9-0.8c-0.6 0-1.1-0.6-1.1-1.2v-0.2c0-0.6 0.5-1.1 1.1-1.1z" /><path class="s116" d="m550.8 132.1h-126.1c-5.1 0-9.4-3.9-9.8-9l-8-84.3c-0.5-5.7 3.9-10.7 9.7-10.8l134-2.6c5.6-0.1 10.1 4.4 10.1 9.9v86.9c0 5.5-4.4 9.9-9.9 9.9z" /><path class="s117" d="m420.9 39.7l126.6-4.3c3.5-0.1 6.4 2.7 6.4 6.1v78.5c0 3.4-2.8 6.2-6.2 6.2l-121-1.3c-3.2 0-5.8-2.5-6.1-5.7l-5.6-72.9c-0.3-3.5 2.4-6.5 5.9-6.6z" /><path class="s61" d="m479.6 45.7l68.2-2.1c0.7 0 1.3 0.6 1.3 1.3v1.1c0 0.6-0.5 1.2-1.2 1.2l-68.3 0.9c-0.6 0-1.2-0.5-1.2-1.2c0-0.7 0.5-1.2 1.2-1.2z" /><path class="s61" d="m478.4 52.9c0-0.9 0.6-1.5 1.5-1.5h67.7c0.9 0 1.5 0.6 1.5 1.5c0 0.8-0.6 1.4-1.5 1.4h-67.7c-0.9 0-1.5-0.6-1.5-1.4z" /><path class="s61" d="m461.7 114c-0.3 0-0.5-0.3-0.5-0.6v-1.6c0-0.3 0.2-0.6 0.5-0.6c0.3 0 0.6 0.3 0.6 0.6v1.6c0 0.3-0.3 0.6-0.6 0.6zm0-5.6c-0.3 0-0.6-0.2-0.6-0.5v-1.7c0-0.3 0.3-0.6 0.6-0.6c0.3 0 0.6 0.3 0.6 0.6v1.7c0 0.3-0.3 0.5-0.6 0.5zm0-5.5c-0.3 0-0.6-0.3-0.6-0.6v-1.7c0-0.3 0.3-0.5 0.6-0.5c0.3 0 0.5 0.2 0.5 0.5v1.7c0.1 0.3-0.2 0.6-0.5 0.6zm0-5.6c-0.3 0-0.6-0.3-0.6-0.6v-1.6c0-0.3 0.3-0.6 0.6-0.6c0.3 0 0.5 0.3 0.5 0.6v1.6c0 0.3-0.2 0.6-0.5 0.6z" /><path class="s61" d="m489.7 112.4c-0.3 0-0.6-0.2-0.6-0.6v-1.6c0-0.3 0.3-0.6 0.6-0.6c0.3 0 0.5 0.3 0.5 0.6v1.6c0 0.4-0.2 0.6-0.5 0.6zm0-5.6c-0.3 0-0.6-0.2-0.6-0.5v-1.7c0-0.3 0.3-0.5 0.6-0.5c0.3 0 0.5 0.2 0.5 0.5v1.7c0 0.3-0.2 0.5-0.5 0.5zm0-5.5c-0.3 0-0.6-0.3-0.6-0.6v-1.7c0-0.3 0.3-0.5 0.6-0.5c0.3 0 0.5 0.2 0.5 0.5v1.7c0 0.3-0.2 0.6-0.5 0.6zm0-5.6c-0.3 0-0.6-0.2-0.6-0.6v-1.6c0-0.3 0.3-0.6 0.6-0.6c0.3 0 0.5 0.3 0.5 0.6v1.6c0 0.4-0.2 0.6-0.5 0.6zm0-5.6c-0.3 0-0.6-0.2-0.6-0.5v-1.7c0-0.3 0.3-0.6 0.6-0.6c0.3 0 0.5 0.3 0.5 0.6v1.7c0 0.3-0.2 0.5-0.5 0.5z" /><path class="s61" d="m511 117c-0.3 0-0.5-0.2-0.5-0.5l-0.1-1c0-0.3 0.3-0.6 0.6-0.6c0.3 0 0.5 0.2 0.5 0.5l0.1 1c0 0.3-0.3 0.6-0.6 0.6zm-0.1-4.9c-0.3 0-0.6-0.2-0.6-0.5v-1.7c0-0.3 0.2-0.6 0.5-0.6c0.3 0 0.6 0.3 0.6 0.6v1.6c0.1 0.3-0.2 0.6-0.5 0.6zm-0.2-5.6c-0.3 0-0.5-0.2-0.5-0.5l-0.1-1.7c0-0.3 0.3-0.5 0.6-0.5c0.3 0 0.5 0.2 0.5 0.5l0.1 1.7c0 0.3-0.2 0.5-0.6 0.5zm-0.1-5.5c-0.3 0-0.6-0.3-0.6-0.6v-1.6c0-0.3 0.2-0.6 0.5-0.6c0.3 0 0.6 0.2 0.6 0.5v1.7c0 0.3-0.2 0.6-0.5 0.6zm-0.2-5.6c-0.3 0-0.5-0.2-0.5-0.5l-0.1-1.7c0-0.3 0.2-0.6 0.5-0.6c0.4 0 0.6 0.3 0.6 0.6l0.1 1.6c0 0.4-0.3 0.6-0.6 0.6zm-0.1-5.5c-0.3 0-0.6-0.3-0.6-0.6v-1.7c-0.1-0.3 0.2-0.5 0.5-0.5c0.3-0.1 0.6 0.2 0.6 0.5v1.7c0 0.3-0.2 0.5-0.5 0.6zm-0.2-5.6c-0.3 0-0.5-0.3-0.5-0.6l-0.1-1.6c0-0.3 0.2-0.6 0.5-0.6c0.4 0 0.6 0.2 0.6 0.5l0.1 1.7c0 0.3-0.3 0.6-0.6 0.6z" /><path class="s61" d="m531.3 113.9c-0.3 0-0.6-0.3-0.6-0.6v-1.6c0-0.3 0.3-0.6 0.6-0.6c0.3 0 0.6 0.3 0.6 0.6v1.6c0 0.3-0.3 0.6-0.6 0.6zm0-5.6c-0.3 0-0.6-0.2-0.6-0.5v-1.7c0-0.3 0.3-0.6 0.6-0.6c0.3 0 0.6 0.3 0.6 0.6v1.7c0 0.3-0.3 0.5-0.6 0.5zm0-5.5c-0.3 0-0.6-0.3-0.6-0.6v-1.7c0-0.3 0.3-0.5 0.6-0.5c0.3 0 0.6 0.2 0.6 0.5v1.7c0 0.3-0.3 0.6-0.6 0.6zm0-5.6c-0.3 0-0.6-0.3-0.6-0.6v-1.6c0-0.3 0.3-0.6 0.6-0.6c0.3 0 0.6 0.3 0.6 0.6v1.6c0 0.3-0.3 0.6-0.6 0.6zm0-5.6c-0.3 0-0.6-0.2-0.6-0.5v-1.7c0-0.3 0.3-0.6 0.6-0.6c0.3 0 0.6 0.3 0.6 0.6v1.7c0 0.3-0.3 0.5-0.6 0.5zm0-5.6c-0.3 0-0.6-0.2-0.6-0.5v-1.7c0-0.3 0.3-0.5 0.6-0.5c0.3 0 0.6 0.2 0.6 0.5v1.7c0 0.3-0.3 0.5-0.6 0.5zm0-5.5c-0.3 0-0.6-0.3-0.6-0.6v-1.6c0-0.4 0.3-0.6 0.6-0.6c0.3 0 0.6 0.2 0.6 0.6v1.6c0 0.3-0.3 0.6-0.6 0.6zm0-5.6c-0.3 0-0.6-0.2-0.6-0.5v-1.7c0-0.3 0.3-0.6 0.6-0.6c0.3 0 0.6 0.3 0.6 0.6v1.7c0 0.3-0.3 0.5-0.6 0.5zm0-5.6c-0.3 0-0.6-0.2-0.6-0.5v-1.7c0-0.3 0.3-0.5 0.6-0.5c0.3 0 0.6 0.2 0.6 0.5v1.7c0 0.3-0.3 0.5-0.6 0.5z" /><path class="s61" d="m431.8 120.5c-0.4 0-0.8-0.4-0.9-0.8l-5.7-67.4c0-0.5 0.3-0.9 0.8-0.9c0.5 0 0.9 0.3 0.9 0.7l5.7 67.5c0.1 0.4-0.3 0.8-0.7 0.9q-0.1 0-0.1 0z" /><path class="s61" d="m423.3 53.4l2.6-3.1l3.1 2.6l0.2 2.4l-3.1-2.6l-2.6 3.1z" /><path class="s61" d="m544.9 117.3h-117.5c-0.4 0-0.8-0.4-0.8-0.8c0-0.5 0.4-0.9 0.8-0.9h117.5c0.5 0 0.8 0.4 0.8 0.9c0 0.4-0.3 0.8-0.8 0.8z" /><path class="s61" d="m541.6 119.3l2.8-2.8l-2.8-2.9h2.4l2.8 2.9l-2.8 2.8z" /><path class="s61" d="m436.7 97.9c-0.4 0-0.8-0.3-0.9-0.7c0-0.5 0.3-0.9 0.8-0.9c0.6-0.1 62.1-8.6 95.7-33.4c0.4-0.3 0.9-0.2 1.2 0.2c0.3 0.4 0.2 0.9-0.2 1.2c-34 25-95.9 33.5-96.5 33.6q-0.1 0-0.1 0z" /><path class="s61" d="m533.1 68q0 0-0.1 0c-0.4 0-0.8-0.4-0.7-0.9l0.2-3.2l-4.6-0.3c-0.5 0-0.8-0.4-0.8-0.9c0-0.5 0.4-0.8 0.9-0.8l5.5 0.3q0.3 0.1 0.6 0.3q0.2 0.3 0.2 0.6l-0.4 4.2c0 0.4-0.4 0.7-0.8 0.7z" /><path class="s46" d="m374 37q-0.7 0.5-1.5 0.9q-0.7 0.4-1.5 0.8c-0.3 0.1-0.6 0-0.7-0.2c-0.2-0.3 0-0.6 0.2-0.7q0.8-0.4 1.5-0.8q0.8-0.4 1.5-0.9c0.2-0.1 0.6 0 0.7 0.2c0.2 0.3 0.1 0.6-0.2 0.7z" /><path class="s46" d="m367.9 40.2l-3.2 1.3c-0.3 0.1-0.6 0-0.7-0.3c-0.1-0.2 0-0.5 0.3-0.7l3.1-1.3h0.1c0.2-0.1 0.5 0 0.6 0.3c0.1 0.2 0 0.6-0.2 0.7z" /><path class="s46" d="m361.4 42.7l-3.3 1c-0.2 0.1-0.5 0-0.6-0.3c-0.1-0.3 0-0.6 0.3-0.6l3.3-1.1c0.3-0.1 0.6 0.1 0.7 0.3c0 0.3-0.1 0.6-0.4 0.7z" /><path class="s46" d="m354.8 44.6q-1.7 0.5-3.4 0.8c-0.3 0-0.5-0.1-0.6-0.4c0-0.3 0.1-0.6 0.4-0.6q1.7-0.4 3.4-0.8c0.2 0 0.5 0.1 0.6 0.4c0 0.3-0.1 0.6-0.4 0.6z" /><path class="s46" d="m348 45.9q-1.7 0.3-3.4 0.4c-0.3 0.1-0.6-0.2-0.6-0.4c0-0.3 0.2-0.6 0.5-0.6q1.7-0.1 3.4-0.4c0.2 0 0.5 0.2 0.5 0.5c0.1 0.2-0.1 0.5-0.4 0.5z" /><path class="s46" d="m341.1 46.5q-1.7 0.1-3.4 0c-0.3 0-0.5-0.3-0.5-0.5c0-0.3 0.2-0.5 0.5-0.5q1.7 0 3.4 0c0.3 0 0.5 0.2 0.5 0.5c0 0.3-0.2 0.5-0.5 0.5z" /><path class="s46" d="m334.2 46.2q-1.7-0.2-3.4-0.5c-0.3 0-0.5-0.3-0.4-0.5c0-0.3 0.3-0.5 0.5-0.5q1.7 0.3 3.4 0.5c0.3 0.1 0.5 0.3 0.5 0.6c-0.1 0.3-0.3 0.5-0.6 0.4z" /><path class="s46" d="m327.4 45l-1.7-0.5c-0.6-0.1-1.1-0.3-1.6-0.5c-0.3-0.1-0.5-0.3-0.4-0.6c0.1-0.3 0.4-0.4 0.6-0.3h0.1c0.5 0.1 1 0.3 1.6 0.5l1.6 0.4c0.3 0.1 0.5 0.4 0.4 0.7c-0.1 0.2-0.4 0.4-0.6 0.3z" /><path class="s46" d="m320.8 42.8l-3.2-1.3c-0.2-0.1-0.4-0.3-0.3-0.6c0.1-0.3 0.4-0.4 0.7-0.3l3.2 1.3c0.2 0.1 0.4 0.4 0.3 0.7c-0.1 0.2-0.4 0.3-0.7 0.2z" /><path class="s46" d="m314.5 40.1l-3.1-1.5c-0.3-0.1-0.4-0.4-0.3-0.6c0.2-0.3 0.5-0.4 0.7-0.3l3.1 1.5c0.2 0.2 0.3 0.5 0.2 0.7c-0.1 0.3-0.4 0.4-0.6 0.2z" /><path class="s46" d="m308.3 37l-3-1.8c-0.2-0.1-0.3-0.4-0.1-0.6c0.1-0.3 0.4-0.3 0.6-0.2h0.1l2.9 1.7v0.1c0.3 0.1 0.3 0.4 0.2 0.6c-0.1 0.3-0.4 0.3-0.7 0.2z" /><path class="s46" d="m302.5 33.3q-1.5-1-2.8-2.1c-0.2-0.1-0.2-0.4-0.1-0.7c0.2-0.2 0.5-0.2 0.7 0q1.3 1.1 2.7 2c0.2 0.2 0.3 0.5 0.1 0.7c-0.1 0.2-0.4 0.3-0.6 0.1z" /><path class="s46" d="m297.1 28.9q-1.2-1.2-2.3-2.6c-0.2-0.2-0.1-0.5 0.1-0.7c0.2-0.2 0.5-0.1 0.7 0.1q1 1.3 2.2 2.5c0.2 0.2 0.2 0.5 0 0.7c-0.2 0.2-0.5 0.2-0.7 0z" /><path class="s46" d="m293 23.3c-0.5-1.1-0.9-2.2-1.1-3.4c0-0.3 0.2-0.5 0.4-0.6c0.3 0 0.5 0.2 0.6 0.4c0.1 1.1 0.5 2.2 0.9 3.2c0.1 0.2 0 0.5-0.2 0.6c-0.2 0.1-0.5 0-0.6-0.2z" /><path class="s46" d="m292.1 16.3q0.1-0.5 0.2-0.9c0.1-0.3 0.2-0.6 0.3-0.9q0.5-0.8 1.2-1.4c0.2-0.2 0.5-0.2 0.7 0c0.2 0.2 0.1 0.5 0 0.7q-0.6 0.5-1 1.2c-0.1 0.2-0.2 0.4-0.3 0.7q-0.1 0.4-0.2 0.8c-0.1 0.3-0.3 0.4-0.6 0.4c-0.2-0.1-0.4-0.4-0.3-0.6z" /><path class="s46" d="m296.9 11.2q1.6-0.6 3.4-0.8c0.3-0.1 0.5 0.1 0.5 0.4c0.1 0.2-0.1 0.5-0.4 0.5q-1.6 0.2-3.2 0.8c-0.2 0.1-0.5 0-0.6-0.2c-0.1-0.3 0-0.6 0.3-0.7z" /><path class="s46" d="m303.9 10.4q0.9 0.1 1.7 0.5q0.5 0.1 0.9 0.4c0.2 0.2 0.5 0.4 0.7 0.6c0.2 0.2 0.2 0.5 0 0.7c-0.2 0.1-0.5 0.2-0.6 0q-0.3-0.3-0.6-0.5q-0.4-0.2-0.7-0.4q-0.8-0.3-1.6-0.4c-0.2 0-0.4-0.3-0.4-0.5c0.1-0.3 0.3-0.5 0.6-0.4z" /><path class="s46" d="m309.1 15c0.3 1.2 0.3 2.4 0.1 3.6c-0.1 0.3-0.3 0.4-0.5 0.4c-0.3 0-0.5-0.3-0.4-0.5c0.1-1.1 0.1-2.2-0.1-3.2c-0.1-0.3 0-0.5 0.3-0.6c0.2-0.1 0.5 0.1 0.6 0.3z" /><path class="s46" d="m308.2 22q-0.6 1.6-1.5 3.2c-0.1 0.2-0.4 0.3-0.6 0.1c-0.3-0.1-0.3-0.4-0.2-0.6q0.8-1.5 1.4-3c0.1-0.3 0.4-0.4 0.7-0.3c0.2 0.1 0.3 0.4 0.2 0.6z" /><path class="s46" d="m304.7 28.1q-1 1.3-2.3 2.6c-0.1 0.2-0.4 0.2-0.6 0c-0.2-0.2-0.2-0.5 0-0.7q1.2-1.2 2.2-2.5c0.2-0.2 0.5-0.3 0.7-0.1c0.2 0.2 0.2 0.5 0 0.7z" /><path class="s46" d="m299.9 33q-1.4 1.1-2.8 2.1c-0.2 0.1-0.5 0-0.7-0.2c-0.1-0.2-0.1-0.5 0.2-0.6q1.4-0.9 2.7-2c0.2-0.2 0.5-0.1 0.6 0.1c0.2 0.2 0.2 0.4 0 0.6z" /><path class="s46" d="m294.1 36.9q-1.5 0.8-3.1 1.6c-0.2 0.1-0.5 0-0.6-0.3c-0.1-0.2 0-0.5 0.2-0.6q1.6-0.7 3.1-1.5c0.2-0.2 0.5-0.1 0.6 0.1c0.1 0.3 0 0.5-0.2 0.7z" /><path class="s46" d="m287.9 39.9l-1.6 0.6q-0.8 0.3-1.7 0.6c-0.2 0.1-0.5-0.1-0.5-0.3c-0.1-0.2 0-0.5 0.2-0.6q0.8-0.3 1.6-0.6l1.6-0.6c0.3-0.1 0.5 0 0.6 0.3c0.1 0.2 0 0.5-0.2 0.6z" /><path class="s46" d="m281.3 42.1q-1.6 0.5-3.3 0.9c-0.2 0.1-0.5-0.1-0.5-0.3c-0.1-0.3 0.1-0.5 0.3-0.6q1.7-0.4 3.3-0.8c0.2-0.1 0.5 0 0.5 0.3c0.1 0.2 0 0.5-0.3 0.5z" /><path class="s46" d="m274.6 43.7l-3.4 0.5c-0.2 0.1-0.5-0.1-0.5-0.3c0-0.3 0.1-0.5 0.4-0.5v-0.1l3.4-0.5c0.2 0 0.5 0.1 0.5 0.4c0 0.2-0.1 0.5-0.4 0.5z" /><path class="s46" d="m267.8 44.6l-3.5 0.3c-0.2 0-0.4-0.2-0.4-0.5c-0.1-0.2 0.1-0.4 0.4-0.4l3.4-0.3c0.3 0 0.5 0.2 0.5 0.4c0 0.3-0.2 0.5-0.4 0.5z" /><path class="s46" d="m260.9 45h-3.5c-0.2 0-0.4-0.2-0.4-0.5c0-0.2 0.2-0.4 0.4-0.4h0.1h3.4c0.2 0 0.4 0.2 0.4 0.4c0 0.3-0.2 0.5-0.4 0.5z" /><path class="s46" d="m254 44.9l-3.4-0.2c-0.3-0.1-0.5-0.3-0.4-0.5c0-0.2 0.2-0.4 0.4-0.4l3.4 0.2h0.1c0.2 0 0.4 0.2 0.4 0.4c0 0.3-0.3 0.5-0.5 0.5z" /><path class="s46" d="m247.1 44.4l-3.4-0.4c-0.2 0-0.4-0.2-0.4-0.4c0.1-0.3 0.3-0.4 0.5-0.4l3.4 0.3c0.3 0 0.4 0.3 0.4 0.5c0 0.2-0.2 0.4-0.5 0.4z" /><path class="s46" d="m240.3 43.7l-3.4-0.5c-0.2 0-0.4-0.2-0.4-0.5c0-0.2 0.3-0.4 0.5-0.3l3.4 0.4c0.2 0 0.4 0.2 0.4 0.5c0 0.2-0.3 0.4-0.5 0.4z" /><path class="s46" d="m233.5 42.8l-3.4-0.5c-0.2-0.1-0.4-0.3-0.4-0.5c0.1-0.3 0.3-0.4 0.5-0.4l3.4 0.5c0.2 0 0.4 0.3 0.4 0.5c-0.1 0.2-0.3 0.4-0.5 0.4z" /><path class="s46" d="m226.7 41.8l-3.4-0.5c-0.2-0.1-0.4-0.3-0.4-0.5c0.1-0.2 0.3-0.4 0.5-0.4l3.4 0.5c0.2 0.1 0.4 0.3 0.4 0.5c-0.1 0.2-0.3 0.4-0.5 0.4z" /><path class="s46" d="m219.9 40.8l-3.4-0.5c-0.2 0-0.4-0.2-0.4-0.4c0.1-0.3 0.3-0.4 0.5-0.4l3.4 0.5c0.2 0 0.4 0.2 0.4 0.4c-0.1 0.3-0.3 0.4-0.5 0.4z" /><path class="s46" d="m213.1 39.9l-3.4-0.4c-0.2 0-0.4-0.2-0.4-0.4c0.1-0.3 0.3-0.4 0.5-0.4l3.4 0.4c0.2 0 0.4 0.2 0.4 0.4c-0.1 0.3-0.3 0.4-0.5 0.4z" /><path class="s46" d="m206.3 39.2l-3.4-0.3c-0.3 0-0.4-0.2-0.4-0.4c0-0.3 0.2-0.4 0.4-0.4l3.5 0.3c0.2 0 0.4 0.2 0.3 0.4c0 0.2-0.2 0.4-0.4 0.4z" /><path class="s46" d="m199.5 38.7l-3.5-0.1c-0.2 0-0.4-0.2-0.4-0.4c0-0.2 0.2-0.4 0.5-0.4l3.4 0.1c0.2 0 0.4 0.2 0.4 0.4c0 0.3-0.2 0.4-0.4 0.4z" /><path class="s46" d="m192.6 38.6l-3.4 0.1c-0.2 0.1-0.4-0.1-0.4-0.3c0-0.3 0.1-0.5 0.4-0.5l3.4-0.1c0.2 0 0.4 0.2 0.4 0.4c0 0.2-0.1 0.4-0.4 0.4z" /><path class="s46" d="m185.8 39l-3.4 0.4c-0.2 0-0.4-0.2-0.4-0.4c-0.1-0.2 0.1-0.4 0.3-0.4q1.7-0.2 3.4-0.4c0.3 0 0.5 0.1 0.5 0.3c0 0.3-0.2 0.5-0.4 0.5z" /><path class="s46" d="m179 39.8l-3.3 0.6h-0.1c-0.2 0.1-0.4-0.1-0.4-0.3c0-0.2 0.1-0.4 0.3-0.4l3.4-0.6c0.2-0.1 0.4 0.1 0.5 0.3c0 0.2-0.2 0.4-0.4 0.4z" /><path class="s46" d="m172.3 41.2q-1.6 0.4-3.3 0.9c-0.2 0-0.4-0.1-0.4-0.3c-0.1-0.2 0-0.4 0.2-0.4q1.7-0.5 3.3-1c0.2 0 0.4 0.1 0.5 0.3c0.1 0.2-0.1 0.4-0.3 0.5z" /><path class="s46" d="m165.8 43.2q-1.6 0.6-3.1 1.3c-0.2 0-0.4 0-0.5-0.2c-0.1-0.2 0-0.4 0.2-0.5q1.5-0.7 3.2-1.3c0.1-0.1 0.3 0 0.4 0.2c0.1 0.2 0 0.4-0.2 0.5z" /><path class="s46" d="m159.6 46l-1.7 0.9c-0.1 0.1-0.4 0.1-0.4-0.1c-0.1-0.2-0.1-0.4 0.1-0.5l1.7-0.9c0.1-0.1 0.3-0.1 0.4 0.1c0.1 0.1 0.1 0.4-0.1 0.5z" /><path class="s46" d="m383.4 28.7l-5.7 4.8l-1.3-9.3z" /><path class="s61" d="m417.5 13.2l-22.1 25.4c-0.4 0.5-1 0.8-1.7 0.9c-0.6 0-1.2-0.2-1.7-0.7l-24.7-23.2c-0.3-0.2-0.4-0.6-0.3-1c0.2-0.4 0.5-0.6 0.9-0.6z" /><path class="s46" d="m376.4 24.2l41.1-11l-37.1 14.8l0.2 2.6z" /><path class="s46" d="m382.8 30.2l-5.1 3.3l2.7-5.5z" /></g></svg>