<svg version="1.2" xmlns="http://www.w3.org/2000/svg" viewBox="0 0 96 108" width="96" height="108"><defs><clipPath clipPathUnits="userSpaceOnUse" id="cp1"><path d="m-912-4304h1920v8118h-1920z" /></clipPath><linearGradient id="P" gradientUnits="userSpaceOnUse"/><linearGradient id="g1" x1="23.2" y1="73.3" x2="68.8" y2="28" href="#P"><stop stop-color="#1e0b4b"/><stop offset="1" stop-color="#8f005b"/></linearGradient><linearGradient id="g2" x1=".5" y1="132.3" x2="87.9" y2="0" href="#P"><stop stop-color="#1e0b4b"/><stop offset="1" stop-color="#8f005b"/></linearGradient><linearGradient id="g3" x1="54.9" y1="73.6" x2="62.1" y2="69.7" href="#P"><stop stop-color="#1e0b4b"/><stop offset="1" stop-color="#8f005b"/></linearGradient><linearGradient id="g4" x1="33.3" y1="79.7" x2="60.4" y2="75.8" href="#P"><stop stop-color="#1e0b4b"/><stop offset="1" stop-color="#8f005b"/></linearGradient><linearGradient id="g5" x1="33.3" y1="73.6" x2="36.2" y2="69.7" href="#P"><stop stop-color="#1e0b4b"/><stop offset="1" stop-color="#8f005b"/></linearGradient><linearGradient id="g6" x1="38.7" y1="73.6" x2="41.6" y2="69.7" href="#P"><stop stop-color="#1e0b4b"/><stop offset="1" stop-color="#8f005b"/></linearGradient><linearGradient id="g7" x1="44.2" y1="73.6" x2="47.1" y2="69.7" href="#P"><stop stop-color="#1e0b4b"/><stop offset="1" stop-color="#8f005b"/></linearGradient></defs><style>.s0{fill:url(#g1)}.s1{fill:url(#g2)}.s2{fill:url(#g3)}.s3{fill:url(#g4)}.s4{fill:url(#g5)}.s5{fill:url(#g6)}.s6{fill:url(#g7)}</style><g clip-path="url(#cp1)"><path fill-rule="evenodd" class="s0" d="m72.8 56.7c0 0.9-0.7 1.6-1.6 1.6c-0.8 0-1.5-0.7-1.5-1.6c0-4.4-2.8-8.4-6.9-10c-1.2 0.5-2.5 0.8-3.9 0.8q-0.9 0-1.7-0.2c-0.5 1.4-1.3 2.7-2.4 3.7c4.3 2.4 7.1 7 7.1 12c0 0.9-0.7 1.6-1.6 1.6c-0.9 0-1.6-0.7-1.6-1.6c0-4.4-2.7-8.4-6.9-10c-1.1 0.5-2.4 0.8-3.8 0.8c-1.4 0-2.7-0.3-3.9-0.8q-0.1 0.1-0.3 0.2c-4 1.6-6.5 5.5-6.5 9.8c0 0.9-0.7 1.6-1.6 1.6c-0.9 0-1.6-0.7-1.6-1.6c0-5 2.7-9.6 7.1-12c-1.1-1-1.9-2.3-2.4-3.7q-0.8 0.2-1.7 0.2c-1.4 0-2.7-0.3-3.9-0.8c-4.1 1.6-6.9 5.6-6.9 10c0 0.9-0.7 1.6-1.5 1.6c-0.9 0-1.6-0.7-1.6-1.6c0-5 2.7-9.6 7-12c-1.8-1.8-2.9-4.2-2.9-6.9c0-5.4 4.4-9.8 9.8-9.8c4.1 0 7.8 2.7 9.1 6.5q0.9-0.2 1.8-0.2q0.9 0 1.8 0.2c1.3-3.8 5-6.5 9.1-6.5c5.4 0 9.8 4.4 9.8 9.8c0 2.7-1.1 5.1-2.9 6.9c4.3 2.4 7 7 7 12zm-29.5-21.1c-0.9-2.6-3.4-4.4-6.2-4.4c-3.7 0-6.6 2.9-6.6 6.6c0 3.6 2.9 6.6 6.6 6.6q0.6 0 1.2-0.1q0-0.1 0-0.2c0-3.7 2-6.9 5-8.5zm4.7 15.1c3.6 0 6.6-3 6.6-6.6c0-3.7-3-6.6-6.6-6.6c-3.6 0-6.6 2.9-6.6 6.6c0 3.6 3 6.6 6.6 6.6zm10.9-6.3c3.7 0 6.6-3 6.6-6.6c0-3.7-2.9-6.6-6.6-6.6c-2.8 0-5.3 1.8-6.2 4.4c3 1.6 5 4.8 5 8.5q0 0.1 0 0.2q0.6 0.1 1.2 0.1z" /><path fill-rule="evenodd" class="s1" d="m95.5 76c0 4.7-3.8 8.5-8.5 8.5c-2.5 0-4.8-1.2-6.4-3l-24.6 14.3q0.4 1.3 0.4 2.8c0 4.6-3.7 8.4-8.4 8.4c-4.7 0-8.4-3.8-8.4-8.4q0-1.5 0.4-2.8l-24.6-14.3c-1.6 1.8-3.9 3-6.4 3c-4.7 0-8.5-3.8-8.5-8.5c0-4.1 3-7.5 6.9-8.3v-28.5c-3.9-0.7-6.9-4.1-6.9-8.2c0-4.7 3.8-8.5 8.5-8.5c2.5 0 4.8 1.2 6.4 3l24.6-14.3q-0.4-1.3-0.4-2.8c0-4.6 3.7-8.4 8.4-8.4c4.7 0 8.4 3.8 8.4 8.4q0 1.5-0.4 2.8l24.6 14.3c1.6-1.8 3.9-3 6.4-3c4.7 0 8.5 3.8 8.5 8.5c0 4.1-3 7.5-6.9 8.2v28.5c3.9 0.8 6.9 4.2 6.9 8.3zm-13.8-45c0 2.9 2.4 5.3 5.3 5.3c2.9 0 5.3-2.4 5.3-5.3c0-3-2.4-5.3-5.3-5.3c-2.9 0-5.3 2.3-5.3 5.3zm-39-22.6c0 3 2.4 5.3 5.3 5.3q0 0 0 0q0 0 0 0c2.9 0 5.3-2.3 5.3-5.3c0-2.9-2.4-5.3-5.3-5.3c-2.9 0-5.3 2.4-5.3 5.3zm-33.7 27.9c2.9 0 5.3-2.4 5.3-5.3c0-3-2.4-5.3-5.3-5.3c-2.9 0-5.3 2.3-5.3 5.3c0 2.9 2.4 5.3 5.3 5.3zm5.3 39.7c0-2.9-2.4-5.3-5.3-5.3c-2.9 0-5.3 2.4-5.3 5.3c0 3 2.4 5.3 5.3 5.3c2.9 0 5.3-2.3 5.3-5.3zm39 22.6c0-3-2.4-5.3-5.3-5.3c-2.9 0-5.3 2.3-5.3 5.3c0 2.9 2.4 5.3 5.3 5.3c2.9 0 5.3-2.4 5.3-5.3zm25.8-19.8q-0.5-1.3-0.5-2.8q0-1.4 0.5-2.8l-5.3-3c-0.7-0.4-1-1.4-0.5-2.1c0.4-0.8 1.3-1 2.1-0.6l5.2 3c1.3-1.4 2.9-2.4 4.9-2.8v-28.5c-2-0.3-3.6-1.3-4.9-2.7l-5.2 3q-0.4 0.2-0.8 0.2c-0.5 0-1.1-0.3-1.4-0.8c-0.4-0.7-0.1-1.7 0.6-2.1l5.3-3.1q-0.5-1.3-0.5-2.7q0-1.5 0.5-2.8l-24.7-14.3c-1.2 1.5-2.9 2.5-4.8 2.8v6.1c0 0.8-0.7 1.5-1.6 1.5c-0.9 0-1.6-0.7-1.6-1.5v-6.1c-1.9-0.3-3.6-1.3-4.8-2.8l-24.7 14.3q0.5 1.3 0.5 2.8q0 1.4-0.5 2.7l5.3 3.1c0.7 0.4 1 1.4 0.6 2.1c-0.3 0.5-0.9 0.8-1.4 0.8q-0.4 0-0.8-0.2l-5.2-3c-1.3 1.4-2.9 2.4-4.9 2.7v28.5c2 0.4 3.6 1.4 4.9 2.8l5.2-3c0.8-0.4 1.7-0.2 2.1 0.6c0.5 0.7 0.2 1.7-0.5 2.1l-5.3 3q0.5 1.4 0.5 2.8q0 1.5-0.5 2.8l24.7 14.3c1.2-1.5 2.9-2.5 4.8-2.8v-6.1c0-0.8 0.7-1.5 1.6-1.5c0.9 0 1.6 0.7 1.6 1.5v6.1c1.9 0.3 3.6 1.3 4.8 2.8zm13.3-2.8c0-3-2.4-5.3-5.3-5.3c-3 0-5.3 2.3-5.3 5.3c0 2.9 2.3 5.3 5.3 5.3c2.9 0 5.3-2.4 5.3-5.3z" /><path class="s2" d="m62.7 71.3c0 0.8-0.7 1.5-1.6 1.5h-4.6c-0.9 0-1.6-0.7-1.6-1.5c0-0.9 0.7-1.6 1.6-1.6h4.6c0.9 0 1.6 0.7 1.6 1.6z" /><path class="s3" d="m62.7 77.4c0 0.9-0.7 1.6-1.6 1.6h-26.2c-0.9 0-1.6-0.7-1.6-1.6c0-0.9 0.7-1.6 1.6-1.6h26.2c0.9 0 1.6 0.7 1.6 1.6z" /><path class="s4" d="m33.3 71.3c0-0.9 0.7-1.6 1.6-1.6c0.9 0 1.6 0.7 1.6 1.6c0 0.8-0.7 1.5-1.6 1.5c-0.9 0-1.6-0.7-1.6-1.5z" /><path class="s5" d="m40.3 72.8c-0.9 0-1.6-0.7-1.6-1.5c0-0.9 0.7-1.6 1.6-1.6c0.9 0 1.6 0.7 1.6 1.6c0 0.8-0.7 1.5-1.6 1.5z" /><path class="s6" d="m45.7 72.8c-0.8 0-1.5-0.7-1.5-1.5c0-0.9 0.7-1.6 1.5-1.6h0.1c0.8 0 1.5 0.7 1.5 1.6c0 0.8-0.7 1.5-1.5 1.5z" /></g></svg>