<svg version="1.2" xmlns="http://www.w3.org/2000/svg" viewBox="0 0 72 108" width="72" height="108"><defs><clipPath clipPathUnits="userSpaceOnUse" id="cp1"><path d="m-533-4304h1920v8118h-1920z" /></clipPath><linearGradient id="P" gradientUnits="userSpaceOnUse"/><linearGradient id="g1" x1="22.1" y1="9.7" x2="28.1" y2="0" href="#P"><stop stop-color="#1e0b4b"/><stop offset="1" stop-color="#8f005b"/></linearGradient><linearGradient id="g2" x1="9.1" y1="111.8" x2="59.3" y2="44.4" href="#P"><stop stop-color="#1e0b4b"/><stop offset="1" stop-color="#8f005b"/></linearGradient><linearGradient id="g3" x1="1" y1="132.3" x2="66.1" y2="0" href="#P"><stop stop-color="#1e0b4b"/><stop offset="1" stop-color="#8f005b"/></linearGradient><linearGradient id="g4" x1="21.7" y1="91.9" x2="48.7" y2="56.9" href="#P"><stop stop-color="#1e0b4b"/><stop offset="1" stop-color="#8f005b"/></linearGradient></defs><style>.s0{fill:url(#g1)}.s1{fill:url(#g2)}.s2{fill:url(#g3)}.s3{fill:url(#g4)}</style><g clip-path="url(#cp1)"><path class="s0" d="m22.4 2.5c-0.5-0.7-0.3-1.7 0.4-2.2c0.7-0.5 1.7-0.3 2.2 0.4l3.3 4.7c0.5 0.7 0.3 1.7-0.4 2.2q-0.4 0.3-0.9 0.3c-0.5 0-1-0.3-1.3-0.7z" /><path class="s1" d="m36.3 95.8c13.4 0 24.2-10.8 24.2-24.1c0-13.4-10.8-24.2-24.2-24.2c-13.3 0-24.1 10.8-24.1 24.2c0 2.7 0.5 5.4 1.4 8c0.3 0.8-0.2 1.7-1 1.9c-0.8 0.3-1.7-0.1-2-0.9c-1-2.9-1.5-5.9-1.5-9c0-15.1 12.2-27.3 27.2-27.3c15.1 0 27.3 12.2 27.3 27.3c0 15-12.2 27.2-27.3 27.2c-8.7 0-17-4.2-22.1-11.3c-0.5-0.8-0.4-1.7 0.3-2.2c0.7-0.5 1.7-0.4 2.2 0.3c4.6 6.3 11.9 10.1 19.6 10.1z" /><path fill-rule="evenodd" class="s2" d="m71.7 71.7c0 19.4-15.9 35.3-35.4 35.3c-19.4 0-35.3-15.9-35.3-35.3c0-19 15-34.5 33.8-35.4v-3.6h-8.6c-0.9 0-1.6-0.7-1.6-1.6v-6.2l-15.7-22.4c-0.5-0.7-0.3-1.7 0.4-2.2c0.7-0.5 1.7-0.3 2.1 0.4l15.6 22.1h5.2l2.2-3.2l-4.5-6.4c-0.5-0.7-0.3-1.7 0.4-2.2c0.7-0.5 1.7-0.3 2.2 0.4l3.8 5.4l11.4-16.1c0.5-0.7 1.5-0.9 2.2-0.4c0.7 0.5 0.9 1.5 0.4 2.2l-14.3 20.3h9.7l15.5-22.1c0.5-0.7 1.5-0.9 2.2-0.4c0.7 0.5 0.9 1.5 0.4 2.2l-15.8 22.4v6.2c0 0.9-0.7 1.6-1.5 1.6h-8.6v3.6c7.5 0.4 14.7 3.1 20.5 7.8c0.7 0.5 0.8 1.5 0.3 2.2c-0.6 0.7-1.5 0.8-2.2 0.2c-5.8-4.6-12.7-7.1-20.2-7.1c-17.7 0-32.2 14.5-32.2 32.3c0 17.7 14.5 32.2 32.2 32.2c17.8 0 32.3-14.5 32.3-32.2c0-7.4-2.6-14.6-7.2-20.3c-0.5-0.6-0.4-1.6 0.3-2.2c0.6-0.5 1.6-0.4 2.2 0.3c5 6.2 7.8 14.1 7.8 22.2zm-43.9-42.1h17.1v-3.7h-17.1z" /><path fill-rule="evenodd" class="s3" d="m49.9 71.2l-4.1 4l1 5.7c0.2 1.4-0.4 2.8-1.5 3.6c-0.6 0.5-1.4 0.7-2.2 0.7q-0.8 0-1.7-0.4l-5.1-2.7l-5 2.7c-1.3 0.6-2.8 0.5-3.9-0.3c-1.2-0.8-1.7-2.2-1.5-3.6l1-5.7l-4.1-4c-1-1-1.4-2.4-1-3.8c0.5-1.3 1.6-2.3 3-2.5l5.7-0.8l2.5-5.1c0.7-1.3 1.9-2.1 3.3-2.1c1.5 0 2.7 0.8 3.3 2.1l2.6 5.1l5.7 0.8c1.4 0.2 2.5 1.2 2.9 2.5c0.5 1.4 0.1 2.8-0.9 3.8zm-2-2.8c-0.1-0.1-0.2-0.3-0.5-0.4l-6.5-0.9c-0.5-0.1-0.9-0.4-1.2-0.9l-2.9-5.8c-0.1-0.3-0.3-0.4-0.5-0.4c-0.1 0-0.3 0.1-0.4 0.4l-3 5.8c-0.2 0.5-0.6 0.8-1.1 0.9l-6.5 0.9c-0.3 0.1-0.4 0.3-0.5 0.4c0 0.1 0 0.4 0.2 0.6l4.7 4.6c0.3 0.3 0.5 0.8 0.4 1.3l-1.1 6.5c0 0.3 0.1 0.5 0.2 0.6c0.1 0 0.3 0.1 0.6 0l5.8-3.1q0.4-0.1 0.7-0.1q0.4 0 0.8 0.1l5.8 3.1c0.3 0.1 0.5 0 0.6 0c0.1-0.1 0.2-0.3 0.2-0.6l-1.1-6.5c-0.1-0.5 0.1-1 0.4-1.3l4.7-4.6c0.2-0.2 0.2-0.5 0.2-0.6z" /></g></svg>