<svg version="1.2" xmlns="http://www.w3.org/2000/svg" viewBox="0 0 103 97" width="103" height="97"><defs><clipPath clipPathUnits="userSpaceOnUse" id="cp1"><path d="m-1299-4309h1920v8118h-1920z" /></clipPath><linearGradient id="P" gradientUnits="userSpaceOnUse"/><linearGradient id="g1" x1="39.5" y1="30.2" x2="61.6" y2=".6" href="#P"><stop stop-color="#1e0b4b"/><stop offset="1" stop-color="#8f005b"/></linearGradient><linearGradient id="g2" x1="33.6" y1="59.1" x2="66.6" y2="24.6" href="#P"><stop stop-color="#1e0b4b"/><stop offset="1" stop-color="#8f005b"/></linearGradient><linearGradient id="g3" x1=".5" y1="114.2" x2="45.6" y2="20.6" href="#P"><stop stop-color="#1e0b4b"/><stop offset="1" stop-color="#8f005b"/></linearGradient><linearGradient id="g4" x1="90" y1="76.6" x2="93.3" y2="72.2" href="#P"><stop stop-color="#1e0b4b"/><stop offset="1" stop-color="#8f005b"/></linearGradient><linearGradient id="g5" x1="53.5" y1="114.2" x2="98.6" y2="20.6" href="#P"><stop stop-color="#1e0b4b"/><stop offset="1" stop-color="#8f005b"/></linearGradient></defs><style>.s0{fill:url(#g1)}.s1{fill:url(#g2)}.s2{fill:url(#g3)}.s3{fill:url(#g4)}.s4{fill:url(#g5)}</style><g clip-path="url(#cp1)"><path fill-rule="evenodd" class="s0" d="m51.5 24.6c-6.6 0-12-5.4-12-12c0-6.6 5.4-12 12-12c6.6 0 12 5.4 12 12c0 6.6-5.4 12-12 12zm8-12c0-4.4-3.6-8-8-8c-4.4 0-8 3.6-8 8c0 4.4 3.6 8 8 8c4.4 0 8-3.6 8-8z" /><path fill-rule="evenodd" class="s1" d="m67.5 52.5h-32c-1.1 0-1.9-0.9-1.9-2v-8c0-9.9 8-17.9 17.9-17.9c9.9 0 17.9 8 17.9 17.9v8c0 1.1-0.8 2-1.9 2zm-2-10c0-7.7-6.3-13.9-14-13.9c-7.7 0-14 6.2-14 13.9v6h28z" /><path fill-rule="evenodd" class="s2" d="m0.5 55.6v-27c0-4.4 3.5-8 7.9-8c4.4 0 8 3.6 8 8v15.9c2.1 0 4.1 0.8 5.6 2.3l5.5 5.5c3.7 3.7 11.2 4.2 11.4 4.2c5.9 0.7 10.6 6.2 10.6 12.5v25.4c0 1.1-0.9 2-2 2h-21.1c-1.1 0-2-0.9-2-2v-10.8l-9.6-4.8c-8.8-4.4-14.3-13.3-14.3-23.2zm3.9 0c0 8.4 4.7 15.9 12.2 19.7l10.7 5.3c0.6 0.4 1.1 1 1.1 1.8v10h17.1v-23.4c0-4.3-3.1-8.1-7.1-8.5q0 0 0 0c-4.6-0.6-10-1.7-13.7-5.4l-5.5-5.4c-1.1-1.2-2.7-1.5-4.1-1q0 0 0 0c-1.6 0.6-2.7 2.1-2.7 3.8c0 1.1 0.4 2.1 1.2 2.8l10.2 10.2c0.8 0.8 0.8 2.1 0 2.8c-0.8 0.8-2 0.8-2.8 0l-10.2-10.2c-1.5-1.5-2.4-3.5-2.4-5.6c0-2.9 1.6-5.5 4-6.9v-17c0-2.2-1.8-4-4-4c-2.2 0-4 1.8-4 4z" /><path class="s3" d="m91.8 75.8c-1 0-1.8-0.8-1.8-1.8c0-1 0.8-1.8 1.8-1.8c1 0 1.8 0.8 1.8 1.8c0 1-0.8 1.8-1.8 1.8z" /><path class="s4" d="m102.5 28.6v27c0 4.4-1 8.6-3.1 12.4c-0.5 1-1.7 1.3-2.7 0.8c-1-0.5-1.3-1.7-0.8-2.7c1.7-3.2 2.7-6.8 2.7-10.5v-27c0-2.2-1.8-4-4-4c-2.2 0-4 1.8-4 4v17c2.4 1.4 4 4 4 6.9c0 2.1-0.9 4.1-2.4 5.6l-10.2 10.2c-0.8 0.8-2 0.8-2.8 0c-0.8-0.7-0.8-2 0-2.8l10.2-10.2c0.8-0.7 1.2-1.7 1.2-2.8c0-1.7-1.1-3.2-2.7-3.8q0 0 0 0c-1.4-0.5-3-0.2-4.1 1l-5.5 5.4c-3.7 3.7-9.1 4.8-13.7 5.4q0 0 0 0c-4 0.4-7.1 4.2-7.1 8.5v23.4h17.1v-10c0-0.8 0.5-1.4 1.1-1.8l7.7-3.8c0.9-0.5 2.1-0.1 2.6 0.9c0.5 1 0.1 2.2-0.9 2.7l-6.5 3.2v10.8c0 1.1-0.9 2-2 2h-21.1c-1.1 0-2-0.9-2-2v-25.4c0-6.3 4.7-11.8 10.6-12.5c3.1-0.5 8.2-1 11.4-4.2l5.5-5.5c1.5-1.5 3.5-2.3 5.6-2.3v-15.9c0-4.4 3.6-8 8-8c4.4 0 7.9 3.6 7.9 8z" /></g></svg>